<svg width="248" height="96" viewBox="0 0 248 96" fill="none" xmlns="http://www.w3.org/2000/svg">
<path d="M82.3869 54.801C80.5218 56.6331 78.1331 57.4838 75.6135 57.4838C69.0692 57.4838 66.157 52.9689 66.1243 48.2578C66.0916 43.5139 69.2001 38.8027 75.6135 38.8027C78.0349 38.8027 80.3582 39.7188 82.1906 41.5182L80.26 43.383C78.9839 42.1071 77.2823 41.5182 75.6135 41.5182C71.0325 41.5182 68.9383 44.888 68.9711 48.1923C69.0038 51.4967 70.9671 54.7356 75.6135 54.7356C77.2823 54.7356 79.1475 54.0486 80.3909 52.7726L82.3869 54.801Z" fill="#909090"/>
<path d="M92.9563 47.079L98.0936 39.1289H101.562V39.2598L94.3961 49.729V57.1229H91.5166V49.729L84.5796 39.2598V39.1289H88.0154L92.9563 47.079Z" fill="#909090"/>
<path d="M108.205 54.4402H113.604C115.208 54.4402 117.4 53.9167 117.4 51.9537C117.4 50.0235 115.273 49.1401 113.604 49.1401H108.172V54.4402H108.205ZM108.205 46.5882H113.637C115.797 46.5882 116.876 45.7376 116.876 44.3308C116.876 43.0549 115.764 41.7462 113.604 41.7462H108.205V46.5882ZM113.604 39.1289C117.04 39.1289 119.723 40.6993 119.723 44.2654C119.723 45.7703 118.938 47.1444 117.236 47.8315C119.396 48.4858 120.312 50.6123 120.312 51.9864C120.312 55.9124 117.171 57.1229 113.637 57.1229H105.391V39.1289H113.604Z" fill="#909090"/>
<path d="M138.374 57.1229H125.057V39.1289H138.276V41.9098H127.936V46.7845H137.883V49.4673H127.936V54.2766H138.374V57.1229Z" fill="#909090"/>
<path d="M146.228 41.7457V48.289H151.692C154.081 48.289 155.128 46.784 155.128 45.0828C155.128 43.447 154.081 41.7784 151.692 41.7784H146.228V41.7457ZM158.891 57.1224H155.521L150.056 50.9063H146.26V57.1224H143.381V39.0957C146.195 39.0957 148.976 39.1284 151.758 39.1284C155.913 39.1284 158.106 41.9747 158.106 45.0174C158.106 47.602 156.764 50.1211 153.23 50.6119L158.596 56.5989L158.891 57.1224Z" fill="#909090"/>
<path d="M171.161 44.1672L168.838 49.8926H173.451L171.161 44.1672ZM175.186 54.1784H167.136L165.958 57.1229H160.559L168.641 39.1289H173.779L181.828 57.1229H176.364L175.186 54.1784Z" fill="#909090"/>
<path d="M189.616 43.1857V47.5043H193.379C194.721 47.5043 195.31 46.4901 195.31 45.4104C195.31 44.2654 194.655 43.1857 193.314 43.1857H189.616ZM201.2 57.1229H195.604L191.416 51.2994H189.649V57.1229H184.544V39.1289H193.314C197.928 39.1289 200.316 42.0734 200.316 45.3123C200.316 47.537 199.531 49.4018 196.521 50.7432L201.2 56.7957V57.1229Z" fill="#909090"/>
<path d="M220.702 39.4229L213.405 47.9291C215.924 50.71 218.836 53.9489 221.323 56.7952V57.0897H215.008L209.871 51.1026V57.0897H204.766V39.0957H209.871V45.0174C211.409 43.1198 213.077 40.9933 214.615 39.0957H220.702V39.4229Z" fill="#909090"/>
<path d="M224.955 36.9039H224.726V37.6563H224.955C225.348 37.6563 225.479 37.5255 225.479 37.2637C225.446 37.002 225.283 36.9039 224.955 36.9039ZM225.806 38.965H225.61C225.577 38.965 225.544 38.965 225.512 38.9323C225.446 38.8341 225.414 38.7687 225.348 38.6378C225.185 38.3761 225.086 38.2125 224.955 38.0489C224.923 38.0162 224.89 37.9835 224.825 37.9835H224.726V38.8668C224.726 38.9323 224.661 38.9977 224.628 38.9977H224.497C224.432 38.9977 224.367 38.9323 224.367 38.8668V36.773C224.367 36.7076 224.432 36.6748 224.497 36.6748H225.086C225.61 36.6748 225.872 36.9693 225.872 37.3292C225.872 37.6563 225.675 37.9508 225.25 37.9835C225.381 38.0489 225.643 38.4088 225.904 38.8996C225.904 38.8668 225.904 38.965 225.806 38.965ZM225.054 35.9878C224.105 35.9878 223.319 36.773 223.319 37.7872C223.319 38.8014 224.072 39.5866 225.054 39.5866C226.003 39.5866 226.788 38.8014 226.788 37.7872C226.788 36.773 226.003 35.9878 225.054 35.9878ZM225.054 39.8811C223.908 39.8811 222.959 38.965 222.959 37.7872C222.959 36.5767 223.908 35.6934 225.054 35.6934C226.199 35.6934 227.148 36.6094 227.148 37.7872C227.148 38.9977 226.199 39.8811 225.054 39.8811Z" fill="#909090"/>
<mask id="mask0_2915_461" style="mask-type:luminance" maskUnits="userSpaceOnUse" x="21" y="27" width="37" height="42">
<path d="M56.93 58.3989L40.1112 68.1156V58.5297L56.93 48.813V58.3989ZM31.2436 53.8186L39.424 58.5297V68.1156L22.9324 58.6279L31.2436 53.8186ZM39.3913 28.8887V38.4746L31.2436 43.1858L22.8996 38.4092L39.3913 28.8887ZM56.5701 38.3765L48.2588 43.1858L40.0784 38.4746V28.8887L56.5701 38.3765ZM30.8837 53.2297L22.5724 58.039L22.5397 38.9981L30.851 43.7746V53.2297H30.8837ZM39.3913 48.2895L31.5708 52.8044V43.8074L39.3913 39.2925V48.2895V48.2895ZM40.0784 39.2925L47.8989 43.8074V52.8371L40.0784 48.2895V39.2925ZM39.7512 57.9081L31.9308 53.426L39.7512 48.9111L47.5717 53.426L39.7512 57.9081ZM57.0937 47.8969L48.5861 52.8044V43.8074L57.4209 38.7036V38.1147L39.9148 27.9727H39.5549L22.0161 38.1147L21.8525 38.4092L21.8853 58.6279L22.0489 58.9223L39.5876 68.999H39.9476L57.4536 58.8896L57.6172 58.5952V48.1914L57.0937 47.8969Z" fill="white"/>
</mask>
<g mask="url(#mask0_2915_461)">
<path d="M57.6172 27.9727H21.8525V69.0317H57.6172V27.9727Z" fill="#909090"/>
</g>
</svg>
