<svg width="112" height="60" viewBox="0 0 112 60" fill="none" xmlns="http://www.w3.org/2000/svg">
<path d="M51.6736 40.9818H44.3861C44.1026 40.9818 43.8192 40.8912 43.6357 40.7824C42.9853 40.2927 42.8019 39.3497 43.2355 38.6243L43.5357 38.1347C43.5523 38.1347 50.6897 26.5103 50.6897 26.5103L51.2734 25.531C51.3734 25.3678 51.5068 25.2227 51.6569 25.1139C52.3239 24.6242 53.2078 24.8056 53.6413 25.531L54.225 26.5103L61.1956 37.8808C61.2957 38.044 61.4457 38.1347 61.6292 38.1347H63.8804C63.9805 38.1347 64.0806 38.0984 64.1639 38.044C64.4141 37.8445 64.4808 37.5 64.314 37.2279L56.4096 24.3341L54.8428 21.7824C54.4388 21.1244 54.4385 20.2954 54.842 19.6372C54.9421 19.4921 55.0588 19.3652 55.1922 19.2745C55.8593 18.7849 56.7431 18.9662 57.1767 19.6916L68.7665 38.5881C68.9166 38.8601 69 39.1502 69 39.4585C69 40.2927 68.383 41 67.5825 41H60.3118C59.8448 41 59.3946 40.7098 59.1278 40.2927L52.8743 30.0828C52.8242 30.0103 52.7742 29.9559 52.7242 29.9196C52.4573 29.7564 52.1405 29.8289 51.9738 30.0828L47.638 37.1917C47.5879 37.2824 47.5546 37.3911 47.5546 37.5C47.5379 37.8264 47.7881 38.0803 48.0716 38.0803H50.3728C50.5396 38.0803 50.7063 37.9896 50.8064 37.8264L52.1405 35.6684C52.2405 35.5051 52.374 35.3601 52.524 35.2513C53.1911 34.7616 54.0749 34.943 54.5085 35.6684L54.5752 35.7772C54.892 36.2849 54.892 36.974 54.5752 37.4818L52.8576 40.2746C52.5907 40.7279 52.1405 40.9818 51.6736 40.9818Z" fill="#1E2932"/>
</svg>
