<svg width="320" height="150" viewBox="0 0 320 150" fill="none" xmlns="http://www.w3.org/2000/svg">
<path d="M146.022 110.48H122.478C121.562 110.48 120.646 110.188 120.054 109.836C117.953 108.254 117.36 105.207 118.761 102.864L119.731 101.282C119.784 101.282 142.844 63.726 142.844 63.726L144.729 60.5623C145.052 60.0349 145.484 59.5662 145.968 59.2146C148.124 57.6327 150.979 58.2186 152.38 60.5623L154.265 63.726L176.786 100.462C177.109 100.989 177.594 101.282 178.187 101.282H185.46C185.783 101.282 186.106 101.165 186.376 100.989C187.184 100.344 187.399 99.2312 186.861 98.3524L161.323 56.6954L156.261 48.4513C154.956 46.3257 154.955 43.6472 156.259 41.5207C156.582 41.052 156.959 40.6419 157.39 40.349C159.545 38.7671 162.401 39.3529 163.802 41.6965L201.246 102.747C201.731 103.625 202 104.563 202 105.559C202 108.254 200.007 110.539 197.42 110.539H173.93C172.422 110.539 170.967 109.602 170.105 108.254L149.901 75.2682C149.74 75.0339 149.578 74.858 149.417 74.7409C148.554 74.2136 147.531 74.448 146.992 75.2682L132.984 98.2352C132.823 98.5282 132.715 98.8797 132.715 99.2312C132.661 100.286 133.469 101.106 134.385 101.106H141.82C142.359 101.106 142.897 100.813 143.221 100.286L147.531 93.3137C147.854 92.7865 148.285 92.3177 148.77 91.9662C150.925 90.3843 153.781 90.9702 155.181 93.3137L155.397 93.6653C156.42 95.3057 156.42 97.5321 155.397 99.1727L149.848 108.195C148.985 109.66 147.531 110.48 146.022 110.48Z" fill="#1E2932"/>
</svg>
