<svg width="32" height="32" viewBox="0 0 32 32" fill="none" xmlns="http://www.w3.org/2000/svg">
<path d="M11.4753 24H8.36544V13.9853H11.4753V24ZM9.91868 12.6192C8.92426 12.6192 8.11768 11.7955 8.11768 10.801C8.11768 10.3234 8.30742 9.86528 8.64518 9.52751C8.98293 9.18975 9.44102 9 9.91868 9C10.3963 9 10.8544 9.18975 11.1922 9.52751C11.5299 9.86528 11.7197 10.3234 11.7197 10.801C11.7197 11.7955 10.9128 12.6192 9.91868 12.6192ZM23.1143 24H20.0112V19.1249C20.0112 17.963 19.9878 16.473 18.3943 16.473C16.7775 16.473 16.5297 17.7354 16.5297 19.0412V24H13.4233V13.9853H16.4058V15.3514H16.4494C16.8646 14.5645 17.8787 13.7341 19.3918 13.7341C22.5391 13.7341 23.1177 15.8067 23.1177 18.4988V24H23.1143Z" fill="white"/>
</svg>
