<svg width="32" height="32" viewBox="0 0 32 32" fill="none" xmlns="http://www.w3.org/2000/svg">
<path d="M16.1177 8C11.7064 8 8.11768 11.8131 8.11768 16.5C8.11768 21.1869 11.7064 25 16.1177 25C20.5289 25 24.1177 21.1869 24.1177 16.5C24.1177 11.8131 20.5289 8 16.1177 8ZM21.407 11.9198C22.3587 13.1553 22.9351 14.7288 22.9501 16.4425C22.7248 16.3918 20.4656 15.905 18.192 16.2088C18.0064 15.7275 17.8313 15.3042 17.5914 14.7825C20.1179 13.6865 21.263 12.1269 21.407 11.9198ZM20.6474 11.0802C20.5245 11.2662 19.4959 12.7352 17.0661 13.7028C15.9463 11.517 14.7053 9.72128 14.5164 9.45257C16.6834 8.89757 18.9669 9.4961 20.6474 11.0802ZM13.2125 9.9406C13.3927 10.2031 14.6138 12.001 15.746 14.1395C12.5496 15.0414 9.73439 15.0284 9.42877 15.0241C9.87187 12.7711 11.3008 10.8987 13.2125 9.9406ZM9.28445 16.5111C9.28445 16.4368 9.28584 16.3629 9.28793 16.2892C9.5869 16.2957 12.8983 16.3411 16.3107 15.256C16.5063 15.6628 16.6932 16.0757 16.8647 16.4881C14.3938 17.2276 12.1488 19.3509 11.0411 21.3655C9.94974 20.0784 9.28445 18.3758 9.28445 16.5111ZM11.9234 22.2387C12.6372 20.6884 14.5743 18.6872 17.3292 17.6886C18.2885 20.3374 18.6853 22.5574 18.7869 23.1944C16.5897 24.1888 13.9477 23.9159 11.9234 22.2387ZM19.9356 22.5297C19.8656 22.088 19.5019 19.9627 18.6082 17.3532C20.7494 16.989 22.6307 17.5851 22.8645 17.6635C22.5599 19.6837 21.4686 21.4283 19.9356 22.5297Z" fill="white"/>
</svg>
