<svg width="32" height="32" viewBox="0 0 32 32" fill="none" xmlns="http://www.w3.org/2000/svg">
<path d="M16.1197 11.385C13.5658 11.385 11.5057 13.4455 11.5057 16C11.5057 18.5545 13.5658 20.615 16.1197 20.615C18.6736 20.615 20.7336 18.5545 20.7336 16C20.7336 13.4455 18.6736 11.385 16.1197 11.385ZM16.1197 19.0003C14.4693 19.0003 13.12 17.6548 13.12 16C13.12 14.3452 14.4653 12.9997 16.1197 12.9997C17.7741 12.9997 19.1193 14.3452 19.1193 16C19.1193 17.6548 17.7701 19.0003 16.1197 19.0003ZM21.9985 11.1963C21.9985 11.7947 21.5167 12.2727 20.9224 12.2727C20.324 12.2727 19.8462 11.7907 19.8462 11.1963C19.8462 10.6018 20.3281 10.1198 20.9224 10.1198C21.5167 10.1198 21.9985 10.6018 21.9985 11.1963ZM25.0544 12.2887C24.9862 10.8468 24.6569 9.56956 23.6008 8.51724C22.5487 7.46491 21.2717 7.13556 19.8301 7.06326C18.3443 6.97891 13.891 6.97891 12.4052 7.06326C10.9676 7.13154 9.69068 7.46089 8.63457 8.51322C7.57847 9.56555 7.2532 10.8428 7.18092 12.2847C7.09659 13.7708 7.09659 18.2251 7.18092 19.7113C7.24919 21.1532 7.57847 22.4304 8.63457 23.4828C9.69068 24.5351 10.9636 24.8644 12.4052 24.9367C13.891 25.0211 18.3443 25.0211 19.8301 24.9367C21.2717 24.8685 22.5487 24.5391 23.6008 23.4828C24.6529 22.4304 24.9821 21.1532 25.0544 19.7113C25.1388 18.2251 25.1388 13.7749 25.0544 12.2887ZM23.135 21.3058C22.8217 22.093 22.2154 22.6995 21.4243 23.0168C20.2397 23.4868 17.4288 23.3783 16.1197 23.3783C14.8106 23.3783 11.9956 23.4828 10.8151 23.0168C10.028 22.7036 9.42164 22.0971 9.1044 21.3058C8.63457 20.1209 8.743 17.3094 8.743 16C8.743 14.6906 8.63859 11.875 9.1044 10.6942C9.41762 9.90695 10.024 9.30046 10.8151 8.98315C11.9997 8.51322 14.8106 8.62167 16.1197 8.62167C17.4288 8.62167 20.2437 8.51724 21.4243 8.98315C22.2114 9.29644 22.8177 9.90293 23.135 10.6942C23.6048 11.8791 23.4964 14.6906 23.4964 16C23.4964 17.3094 23.6048 20.125 23.135 21.3058Z" fill="white"/>
</svg>
