<svg width="146" height="36" viewBox="0 0 146 36" fill="none" xmlns="http://www.w3.org/2000/svg">
<path d="M47.9486 14.6231V3.18425H55.7507V5.25706H50.3198V8.15899H54.9858V10.2318H50.3198V14.6231H47.9486Z" fill="white"/>
<path d="M56.9274 14.6231V3.18425H59.2986V12.5503H64.1176V14.6231H56.9274Z" fill="white"/>
<path d="M64.4522 14.6231L68.3074 3.18425H71.4589L75.3141 14.6231H72.7286L71.9637 12.2893H67.7873L67.0224 14.6231H64.4522ZM68.4451 10.2164H71.3059L69.5619 4.81179H70.2044L68.4451 10.2164Z" fill="white"/>
<path d="M78.9456 14.6231L75.0445 3.18425H77.6453L80.5825 12.366H80.0624L82.9997 3.18425H85.6004L81.6993 14.6231H78.9456Z" fill="white"/>
<path d="M92.1845 14.8073C91.3278 14.8073 90.5323 14.6589 89.798 14.3621C89.0637 14.0652 88.4211 13.6507 87.8704 13.1184C87.3299 12.5759 86.9066 11.9463 86.6006 11.2298C86.2947 10.5133 86.1417 9.73535 86.1417 8.89599C86.1417 8.05663 86.2896 7.27869 86.5853 6.56216C86.8913 5.84563 87.3146 5.22123 87.8551 4.68896C88.4058 4.15668 89.0484 3.74212 89.7827 3.44527C90.517 3.14842 91.3176 3 92.1845 3C93.0514 3 93.8521 3.14842 94.5864 3.44527C95.3207 3.74212 95.9581 4.15668 96.4987 4.68896C97.0494 5.22123 97.4727 5.84563 97.7684 6.56216C98.0744 7.27869 98.2274 8.05663 98.2274 8.89599C98.2274 9.73535 98.0744 10.5133 97.7684 11.2298C97.4625 11.9463 97.0341 12.5759 96.4834 13.1184C95.9428 13.6507 95.3054 14.0652 94.5711 14.3621C93.8368 14.6589 93.0412 14.8073 92.1845 14.8073ZM92.1845 12.6578C92.7047 12.6578 93.184 12.5656 93.6226 12.3814C94.0713 12.1971 94.464 11.9412 94.8006 11.6137C95.1371 11.2759 95.3972 10.8767 95.5808 10.416C95.7644 9.95542 95.8561 9.44874 95.8561 8.89599C95.8561 8.34324 95.7644 7.84167 95.5808 7.39128C95.3972 6.93066 95.1371 6.53145 94.8006 6.19366C94.464 5.85587 94.0713 5.59997 93.6226 5.42595C93.184 5.2417 92.7047 5.14958 92.1845 5.14958C91.6644 5.14958 91.1799 5.2417 90.7312 5.42595C90.2926 5.59997 89.9051 5.85587 89.5685 6.19366C89.232 6.53145 88.9719 6.93066 88.7883 7.39128C88.6047 7.84167 88.5129 8.34324 88.5129 8.89599C88.5129 9.44874 88.6047 9.95542 88.7883 10.416C88.9719 10.8767 89.232 11.2759 89.5685 11.6137C89.9051 11.9412 90.2926 12.1971 90.7312 12.3814C91.1799 12.5656 91.6644 12.6578 92.1845 12.6578Z" fill="white"/>
<path d="M99.9091 14.6231V3.18425H104.269C105.054 3.18425 105.748 3.32244 106.35 3.59881C106.962 3.87519 107.441 4.28463 107.788 4.82714C108.135 5.36965 108.308 6.04012 108.308 6.83853C108.308 7.61648 108.129 8.28182 107.772 8.83457C107.415 9.37708 106.936 9.78653 106.334 10.0629L108.935 14.6231H106.273L103.458 9.57157L104.988 10.4775H102.28V14.6231H99.9091ZM102.28 8.40466H104.284C104.621 8.40466 104.912 8.33812 105.156 8.20505C105.401 8.07198 105.59 7.88773 105.722 7.6523C105.865 7.41687 105.937 7.14562 105.937 6.83853C105.937 6.52121 105.865 6.24484 105.722 6.00941C105.59 5.77398 105.401 5.58973 105.156 5.45666C104.912 5.32359 104.621 5.25706 104.284 5.25706H102.28V8.40466Z" fill="white"/>
<path d="M114.259 14.8073C113.545 14.8073 112.872 14.6794 112.239 14.4235C111.617 14.1573 111.077 13.7837 110.618 13.3026C110.169 12.8215 109.833 12.2534 109.608 11.5983L111.551 10.7231C111.837 11.3475 112.229 11.8389 112.729 12.1971C113.239 12.5554 113.8 12.7345 114.412 12.7345C114.738 12.7345 115.019 12.6833 115.253 12.581C115.488 12.4786 115.671 12.3404 115.804 12.1664C115.937 11.9822 116.003 11.7672 116.003 11.5215C116.003 11.2554 115.921 11.0302 115.758 10.846C115.595 10.6515 115.34 10.4979 114.993 10.3853L112.76 9.64834C111.852 9.35149 111.169 8.93181 110.71 8.3893C110.251 7.83655 110.021 7.17633 110.021 6.40862C110.021 5.73304 110.184 5.13934 110.511 4.62754C110.847 4.11573 111.311 3.71653 111.903 3.42992C112.505 3.14331 113.193 3 113.968 3C114.651 3 115.284 3.11772 115.865 3.35315C116.447 3.58858 116.946 3.92125 117.364 4.35116C117.793 4.78108 118.114 5.298 118.328 5.90193L116.401 6.77712C116.186 6.24484 115.865 5.83028 115.437 5.53343C115.008 5.22635 114.519 5.07281 113.968 5.07281C113.652 5.07281 113.372 5.12399 113.127 5.22635C112.882 5.32871 112.693 5.47713 112.561 5.67162C112.428 5.85587 112.362 6.07083 112.362 6.31649C112.362 6.58263 112.449 6.81806 112.622 7.02278C112.795 7.21727 113.055 7.37081 113.402 7.48341L115.59 8.1897C116.508 8.48654 117.191 8.90111 117.64 9.43338C118.099 9.96566 118.328 10.6157 118.328 11.3834C118.328 12.0487 118.155 12.6424 117.808 13.1644C117.461 13.6762 116.982 14.0806 116.37 14.3774C115.768 14.664 115.065 14.8073 114.259 14.8073Z" fill="white"/>
<path d="M128.473 14.8073C127.617 14.8073 126.821 14.6589 126.087 14.3621C125.352 14.0652 124.71 13.6507 124.159 13.1184C123.619 12.5759 123.195 11.9463 122.889 11.2298C122.583 10.5133 122.43 9.73535 122.43 8.89599C122.43 8.05663 122.578 7.27869 122.874 6.56216C123.18 5.84563 123.603 5.22123 124.144 4.68896C124.695 4.15668 125.337 3.74212 126.071 3.44527C126.806 3.14842 127.606 3 128.473 3C129.34 3 130.141 3.14842 130.875 3.44527C131.609 3.74212 132.247 4.15668 132.787 4.68896C133.338 5.22123 133.761 5.84563 134.057 6.56216C134.363 7.27869 134.516 8.05663 134.516 8.89599C134.516 9.73535 134.363 10.5133 134.057 11.2298C133.751 11.9463 133.323 12.5759 132.772 13.1184C132.232 13.6507 131.594 14.0652 130.86 14.3621C130.125 14.6589 129.33 14.8073 128.473 14.8073ZM128.473 12.6578C128.993 12.6578 129.473 12.5656 129.911 12.3814C130.36 12.1971 130.753 11.9412 131.089 11.6137C131.426 11.2759 131.686 10.8767 131.869 10.416C132.053 9.95542 132.145 9.44874 132.145 8.89599C132.145 8.34324 132.053 7.84167 131.869 7.39128C131.686 6.93066 131.426 6.53145 131.089 6.19366C130.753 5.85587 130.36 5.59997 129.911 5.42595C129.473 5.2417 128.993 5.14958 128.473 5.14958C127.953 5.14958 127.469 5.2417 127.02 5.42595C126.581 5.59997 126.194 5.85587 125.857 6.19366C125.521 6.53145 125.261 6.93066 125.077 7.39128C124.893 7.84167 124.802 8.34324 124.802 8.89599C124.802 9.44874 124.893 9.95542 125.077 10.416C125.261 10.8767 125.521 11.2759 125.857 11.6137C126.194 11.9412 126.581 12.1971 127.02 12.3814C127.469 12.5656 127.953 12.6578 128.473 12.6578Z" fill="white"/>
<path d="M136.198 14.6231V3.18425H144V5.25706H138.569V8.15899H143.235V10.2318H138.569V14.6231H136.198Z" fill="white"/>
<path d="M47.1071 33.8158L50.9623 22.3769H54.1138L57.969 33.8158H55.3835L54.6186 31.4819H50.4422L49.6773 33.8158H47.1071ZM51.1 29.4091H53.9608L52.2168 24.0045H52.8593L51.1 29.4091Z" fill="white"/>
<path d="M59.1534 33.8158V22.3769H61.5246V31.7429H66.3436V33.8158H59.1534Z" fill="white"/>
<path d="M72.6365 34C71.8206 34 71.0608 33.8516 70.357 33.5547C69.6635 33.2579 69.0567 32.8433 68.5365 32.311C68.0164 31.7788 67.6084 31.1544 67.3127 30.4378C67.0271 29.7213 66.8843 28.9383 66.8843 28.0887C66.8843 27.2391 67.0271 26.456 67.3127 25.7395C67.5982 25.0127 68.0011 24.3883 68.5212 23.8663C69.0414 23.334 69.6482 22.9246 70.3417 22.6379C71.0455 22.3411 71.8104 22.1927 72.6365 22.1927C73.4626 22.1927 74.202 22.3309 74.8547 22.6072C75.5177 22.8836 76.0786 23.2521 76.5376 23.7127C76.9965 24.1734 77.3229 24.6852 77.5167 25.2481L75.4208 26.2615C75.227 25.7088 74.8853 25.2533 74.3958 24.895C73.9164 24.5265 73.33 24.3422 72.6365 24.3422C71.9634 24.3422 71.3718 24.5009 70.8619 24.8182C70.3519 25.1355 69.9542 25.5757 69.6686 26.1387C69.3932 26.6914 69.2556 27.3414 69.2556 28.0887C69.2556 28.8359 69.3932 29.491 69.6686 30.054C69.9542 30.617 70.3519 31.0571 70.8619 31.3744C71.3718 31.6918 71.9634 31.8504 72.6365 31.8504C73.33 31.8504 73.9164 31.6713 74.3958 31.313C74.8853 30.9445 75.227 30.4839 75.4208 29.9312L77.5167 30.9445C77.3229 31.5075 76.9965 32.0193 76.5376 32.4799C76.0786 32.9406 75.5177 33.3091 74.8547 33.5854C74.202 33.8618 73.4626 34 72.6365 34Z" fill="white"/>
<path d="M79.0382 33.8158V22.3769H81.4095V27.321H85.846V22.3769H88.2172V33.8158H85.846V29.3938H81.4095V33.8158H79.0382Z" fill="white"/>
<path d="M90.2431 33.8158V22.3769H97.9075V24.4497H92.6143V27.0446H97.6016V29.1174H92.6143V31.7429H97.9075V33.8158H90.2431Z" fill="white"/>
<path d="M99.2518 33.8158V22.3769H101.547L105.815 28.0579H104.744L108.89 22.3769H111.184V33.8158H108.813V25.0025L109.762 25.2174L105.371 30.8985H105.065L100.827 25.2174L101.623 25.0025V33.8158H99.2518Z" fill="white"/>
<path d="M116.158 33.8158V28.8257L112.364 22.3769H115.072L117.826 27.2288H116.862L119.6 22.3769H122.308L118.529 28.8103V33.8158H116.158Z" fill="white"/>
<path d="M2 4.41386V3.21431H13.1632V4.41386C10.5505 4.41386 9.12542 4.89367 10.0755 5.85331L18.151 14.0102V7.53266C18.151 5.6134 16.9634 4.41386 13.8757 4.41386V3.21431H20.7636V33.9226H13.6382V32.963H15.7758C17.2009 32.963 18.151 31.5235 18.151 30.5639V22.6469L9.36293 31.5235C8.65039 32.2432 11.0255 32.963 11.7381 32.963H12.9256V33.9226H2.23751V32.963C4.13763 32.963 4.37514 32.2432 5.3252 31.5235L16.0133 20.9675H9.12542C7.22531 20.9675 6.51277 22.1671 6.51277 25.5258H5.3252V11.851H6.27525C6.27525 14.49 7.22531 16.1694 9.12542 16.1694H16.4884L7.93785 7.53266C5.34283 4.82034 4.61265 4.41386 2 4.41386Z" fill="white"/>
<path d="M39.2897 4.41386V3.21431H28.1265V4.41386C30.7392 4.41386 32.1643 4.89367 31.2142 5.85331L23.1387 14.0102V7.53266C23.1387 5.6134 24.3263 4.41386 27.414 4.41386V3.21431H20.5261V33.9226H27.6515V32.963H25.5139C24.0888 32.963 23.1387 31.5235 23.1387 30.5639V22.6469L31.9268 31.5235C32.6393 32.2432 30.2642 32.963 29.5516 32.963H28.3641V33.9226H39.0522V32.963C37.1521 32.963 36.9146 32.2432 35.9645 31.5235L25.2764 20.9675H32.1643C34.0644 20.9675 34.7769 22.1671 34.7769 25.5258H35.9645V11.851H35.0144C35.0144 14.49 34.0644 16.1694 32.1643 16.1694H24.8013L33.3518 7.53266C35.9469 4.82034 36.677 4.41386 39.2897 4.41386Z" fill="white"/>
</svg>
