<svg width="146" height="36" viewBox="0 0 146 36" fill="none" xmlns="http://www.w3.org/2000/svg">
<g clip-path="url(#clip0_2786_131)">
<path d="M54.392 23.6306C54.392 26.7447 51.4178 28.9174 47.1554 28.9174C43.4229 28.9174 41.0472 27.4004 39.7109 26.1301L39.3774 25.8125L41.0769 24.1721L41.3807 24.4668C42.8906 25.9176 44.9396 26.715 47.1531 26.715C49.9468 26.715 51.7536 25.5452 51.7536 23.7311C51.7536 21.917 50.4516 21.3253 48.3249 20.5233L45.1863 19.349C43.8249 18.8349 40.6384 17.6286 40.6384 14.4871C40.6384 11.6357 43.4389 9.57031 47.2993 9.57031C49.6978 9.57031 51.9706 10.3974 53.5308 11.8391L53.8711 12.1543L52.2699 13.7148L51.9638 13.4498C50.6846 12.3371 49.1153 11.7728 47.2993 11.7728C44.8551 11.7728 43.2744 12.7895 43.2744 14.3637C43.2744 16.0909 45.095 16.7627 46.5592 17.3019L49.7001 18.4762C51.9706 19.3353 54.392 20.5142 54.392 23.6306Z" fill="white"/>
<path d="M72.3212 9.88672V21.187C72.3212 26.1723 69.6075 28.9163 64.6803 28.9163C59.7531 28.9163 57.0691 26.1723 57.0691 21.187V9.88672H59.6777V21.1139C59.6777 24.8312 61.3612 26.7138 64.6803 26.7138C67.9993 26.7138 69.7971 24.8289 69.7971 21.1139V9.88672H72.3189H72.3212Z" fill="white"/>
<path d="M91.1871 9.88672V28.5987H88.7315L80.0467 16.1309L78.4203 13.6725C78.4203 13.6931 78.4203 13.7159 78.4249 13.7388C78.498 14.9406 78.5734 16.1812 78.5734 17.4698V28.5987H76.0515V9.88672H78.5048L87.2193 22.3271L88.8046 24.7718C88.7269 23.4877 88.663 22.1854 88.663 20.8923V9.88672H91.1848H91.1871Z" fill="white"/>
<path d="M108.634 12.3908C106.9 10.7298 104.365 9.88672 101.101 9.88672H95.7075V28.5987H101.13C107.506 28.5987 111.161 25.167 111.161 19.1833C111.161 16.284 110.311 13.997 108.634 12.3931V12.3908ZM98.3139 11.9887H100.927C105.859 11.9887 108.465 14.4768 108.465 19.181C108.465 22.5053 107.156 26.4716 100.927 26.4716H98.3139V11.9887Z" fill="white"/>
<path d="M127.16 26.4465V28.5987H114.356V9.88672H126.845V12.0138H116.965V17.6388H125.287V19.7682H116.965V26.4465H127.16Z" fill="white"/>
<path d="M139.246 20.3097C142.384 19.6905 144.168 17.8193 144.168 15.0959C144.168 10.7892 140.123 9.88672 136.728 9.88672H130.154V28.5987H132.761V20.5519H136.381L141.969 28.5987H144.997L139.243 20.312L139.246 20.3097ZM132.763 11.9887H136.326C138.901 11.9887 141.532 12.3588 141.532 15.0959C141.532 17.319 139.78 18.4476 136.326 18.4476H132.763V11.9887Z" fill="white"/>
<path d="M3.69028 17.0998H2.03418L2.04332 16.9445C2.5824 8.56405 9.58141 2 17.9807 2C26.3799 2 33.379 8.56405 33.918 16.9445L33.9295 17.0998H32.2711L32.2597 16.9627C31.7366 9.50079 25.464 3.65415 17.9807 3.65415C10.4974 3.65415 4.22708 9.50079 3.7017 16.9627L3.69256 17.0998H3.69028Z" fill="white"/>
<path d="M3.83203 25.4844H32.093L31.972 25.7014C31.7093 26.1812 31.41 26.6633 31.0811 27.1362L31.0377 27.2002H4.88736L4.84396 27.1362C4.51503 26.6633 4.2135 26.1812 3.95081 25.7014L3.83203 25.4844Z" fill="white"/>
<path d="M10.8836 32.3633H25.0393L24.3997 32.6443C22.3621 33.5445 20.1943 33.9992 17.9603 33.9992C15.7263 33.9992 13.5608 33.5422 11.5209 32.6443L10.8813 32.3633H10.8836Z" fill="white"/>
<path d="M2.50244 22.043H33.4223L33.3721 22.228C33.2373 22.7192 33.082 23.2013 32.9084 23.6628L32.8718 23.7588H3.05067L3.0164 23.6628C2.84051 23.2013 2.68518 22.717 2.5527 22.228L2.50244 22.043Z" fill="white"/>
<path d="M6.28296 28.9219H29.6419L29.3998 29.1732C28.9041 29.6804 28.365 30.1648 27.7985 30.608L27.7597 30.64H8.1652L8.12637 30.608C7.55987 30.1648 7.02078 29.6827 6.52509 29.1732L6.28296 28.9219Z" fill="white"/>
<path d="M2 18.6016H33.925L33.9181 18.7546C33.8976 19.2162 33.8542 19.6982 33.7856 20.1895L33.7697 20.3174H2.15533L2.13706 20.1895C2.07081 19.6982 2.02741 19.2162 2.00685 18.7546L2 18.6016Z" fill="white"/>
</g>
<defs>
<clipPath id="clip0_2786_131">
<rect width="143" height="32" fill="white" transform="translate(2 2)"/>
</clipPath>
</defs>
</svg>
