<svg width="146" height="36" viewBox="0 0 146 36" fill="none" xmlns="http://www.w3.org/2000/svg">
<path d="M33.2704 26.75V9.25H44.6055V11.025H35.3217V17.125H44.3426V18.875H35.3217V24.975H44.6055V26.75H33.2704Z" fill="white"/>
<path d="M48.8745 21.85C49.2164 24 50.9522 25.25 53.6874 25.25C56.291 25.25 58.0531 23.975 58.0531 22.225C58.0531 17.375 47.2965 20.125 47.2965 13.7C47.2965 11.025 49.9002 9 53.4507 9C57.0537 9 59.4996 11 59.9467 13.75L57.869 14.15C57.5534 12.175 55.8966 10.725 53.4244 10.725C51.0574 10.725 49.4005 11.95 49.4005 13.625C49.4005 18.275 60.1571 15.45 60.1571 22.175C60.1571 25.025 57.2904 27 53.6348 27C49.9002 27 47.2439 25.175 46.8231 22.25L48.8745 21.85Z" fill="white"/>
<path d="M64.9009 21.85C65.2428 24 66.9786 25.25 69.7138 25.25C72.3174 25.25 74.0795 23.975 74.0795 22.225C74.0795 17.375 63.3229 20.125 63.3229 13.7C63.3229 11.025 65.9266 9 69.4771 9C73.0801 9 75.526 11 75.9731 13.75L73.8954 14.15C73.5798 12.175 71.9229 10.725 69.4508 10.725C67.0838 10.725 65.4269 11.95 65.4269 13.625C65.4269 18.275 76.1835 15.45 76.1835 22.175C76.1835 25.025 73.3168 27 69.6612 27C65.9266 27 63.2703 25.175 62.8495 22.25L64.9009 21.85Z" fill="white"/>
<path d="M79.2178 26.75V9.25H90.553V11.025H81.2692V17.125H90.29V18.875H81.2692V24.975H90.553V26.75H79.2178Z" fill="white"/>
<path d="M93.4721 26.75V9.25H97.4959L106.964 26.35V9.25H109.015V26.75H104.991L95.5234 9.675V26.75H93.4721Z" fill="white"/>
<path d="M111.849 18C111.849 12.925 116.004 9 121.396 9C125.472 9 128.523 11.35 129.812 14.05L127.944 14.8C126.814 12.5 124.394 10.8 121.396 10.8C117.214 10.8 113.953 13.95 113.953 18C113.953 22.05 117.214 25.2 121.396 25.2C124.394 25.2 126.814 23.5 127.944 21.2L129.812 21.95C128.523 24.65 125.472 27 121.396 27C116.004 27 111.849 23.075 111.849 18Z" fill="white"/>
<path d="M132.665 26.75V9.25H144V11.025H134.716V17.125H143.737V18.875H134.716V24.975H144V26.75H132.665Z" fill="white"/>
<path d="M13.1638 11.0258C12.5997 10.4829 13.0043 9.5625 13.807 9.5625H19.177C19.6763 9.5625 20.0811 9.94726 20.0811 10.4219V15.5272C20.0811 16.2902 19.113 16.6748 18.5418 16.1387L15.9149 13.6732L13.1638 11.0258Z" fill="white"/>
<path d="M2 20.8039C2 20.0383 2.97379 19.6548 3.54331 20.1962L8.89451 25.283C9.46404 25.8243 9.06068 26.75 8.25525 26.75H2.90405C2.40476 26.75 2 26.3652 2 25.8906V20.8039Z" fill="white"/>
<path d="M4.64792 16.1307C3.47107 15.012 3.47107 13.1983 4.64792 12.0796C5.82477 10.9609 7.73282 10.9609 8.90967 12.0796L17.4332 20.1818C18.61 21.3005 18.61 23.1143 17.4332 24.233C16.2563 25.3517 14.3483 25.3517 13.1714 24.233L4.64792 16.1307Z" fill="white"/>
</svg>
