<svg width="146" height="36" viewBox="0 0 146 36" fill="none" xmlns="http://www.w3.org/2000/svg">
<path d="M16.4145 16.2356L16.7063 16.2823V16.7453L16.4028 16.7375L16.4145 16.2356Z" fill="white"/>
<path d="M22.9323 16.2182C25.9571 16.2182 28.2046 16.9449 29.6748 18.3985C31.1449 19.8359 31.88 21.9032 31.88 24.6004C31.88 26.3608 31.5167 27.9032 30.7901 29.2276C30.0803 30.5358 29.0411 31.5533 27.6723 32.2801C26.3035 33.0069 24.6475 33.3703 22.7042 33.3703C22.4507 33.3703 22.1127 33.3622 21.6903 33.346C21.2678 33.3299 20.8285 33.3218 20.3722 33.3218C19.9328 33.3056 19.5273 33.2976 19.1555 33.2976C18.5641 33.2976 17.9811 33.3056 17.4065 33.3218C16.832 33.3218 16.3673 33.3379 16.0124 33.3703V32.8857C16.587 32.8534 17.0179 32.7888 17.3051 32.6919C17.6093 32.595 17.8121 32.4012 17.9135 32.1105C18.0149 31.8198 18.0656 31.3837 18.0656 30.8023V18.7861C18.0656 18.1886 18.0149 17.7525 17.9135 17.4779C17.8121 17.1872 17.6093 16.9934 17.3051 16.8965C17.0179 16.7834 17.0621 16.7571 16.4875 16.7409L16.5082 16.2506C16.863 16.2667 16.832 16.2585 17.4065 16.2908C17.9811 16.307 18.5472 16.307 19.1048 16.2908C19.6963 16.2747 20.3638 16.2585 21.1073 16.2424C21.8508 16.2262 22.4592 16.2182 22.9323 16.2182ZM22.2986 16.6542C21.5213 16.6542 21.0143 16.7915 20.7778 17.0661C20.5412 17.3406 20.4229 17.8978 20.4229 18.7377V30.8507C20.4229 31.6906 20.5412 32.2478 20.7778 32.5223C21.0312 32.7969 21.5466 32.9342 22.324 32.9342C24.1659 32.9342 25.5938 32.6192 26.6077 31.9894C27.6216 31.3433 28.3314 30.4066 28.7369 29.1791C29.1425 27.9517 29.3453 26.4577 29.3453 24.6973C29.3453 22.8884 29.1171 21.3945 28.6609 20.2155C28.2215 19.0203 27.4864 18.132 26.4556 17.5506C25.4417 16.953 24.0561 16.6542 22.2986 16.6542Z" fill="white"/>
<path d="M3.11998 3.83054C3.46967 3.84669 3.92761 3.86284 4.49378 3.87899C5.05995 3.89514 5.61779 3.90322 6.16731 3.90322C6.94996 3.90322 7.69931 3.89514 8.41535 3.87899C9.13139 3.86284 9.63928 3.85477 9.93902 3.85477C11.6875 3.85477 13.003 4.21008 13.8856 4.92072C14.7681 5.63135 15.2094 6.54387 15.2094 7.65827C15.2094 8.22354 15.0845 8.78074 14.8347 9.32987C14.6016 9.86284 14.202 10.3554 13.6358 10.8077C13.0863 11.2437 12.3452 11.599 11.4127 11.8736V11.9221C12.7282 12.0836 13.7523 12.3904 14.485 12.8427C15.2344 13.2787 15.7589 13.7956 16.0587 14.3931C16.3584 14.9907 16.5083 15.6206 16.5083 16.2828C16.5083 17.2034 16.2668 18.019 15.7839 18.7296C15.3176 19.4241 14.6349 19.9732 13.7357 20.377C12.8365 20.7807 11.7624 20.9826 10.5135 20.9826C10.1472 20.9826 9.59765 20.9746 8.86496 20.9584C8.13226 20.9261 7.2497 20.91 6.21727 20.91C5.63445 20.91 5.05995 20.918 4.49378 20.9342C3.92761 20.9342 3.46967 20.9503 3.11998 20.9826V20.4981C3.68615 20.4658 4.11078 20.4012 4.39386 20.3043C4.6936 20.2074 4.89343 20.0136 4.99334 19.7229C5.09325 19.4322 5.14321 18.9961 5.14321 18.4147V6.39851C5.14321 5.80093 5.09325 5.36486 4.99334 5.0903C4.89343 4.79959 4.6936 4.60578 4.39386 4.50887C4.11078 4.39582 3.68615 4.33121 3.11998 4.31506V3.83054ZM9.31456 4.31506C8.54857 4.31506 8.049 4.45235 7.81587 4.72691C7.58274 5.00147 7.46618 5.55867 7.46618 6.39851V18.4147C7.46618 18.9799 7.51613 19.4079 7.61605 19.6986C7.71596 19.9894 7.89913 20.1832 8.16557 20.2801C8.432 20.377 8.82333 20.4254 9.33954 20.4254C10.9714 20.4254 12.1537 20.062 12.8864 19.3353C13.6358 18.5923 14.0105 17.5425 14.0105 16.1859C14.0105 14.9423 13.6608 13.9813 12.9614 13.303C12.2786 12.6246 11.1463 12.2855 9.56434 12.2855H7.46618C7.46618 12.2855 7.46618 12.2109 7.46618 12.0817C7.46618 11.9363 7.46618 11.8736 7.46618 11.8736H9.13972C10.1222 11.8736 10.8799 11.696 11.4127 11.3406C11.9456 10.9692 12.3119 10.4846 12.5118 9.88707C12.7116 9.27334 12.8115 8.61924 12.8115 7.92475C12.8115 6.7296 12.5367 5.83323 11.9872 5.23566C11.4544 4.62193 10.5635 4.31506 9.31456 4.31506Z" fill="white"/>
<path d="M16.7181 5.06168C16.7377 5.05125 16.7632 5.03732 16.7947 5.01989C16.8261 5.00246 16.8568 4.98486 16.8868 4.9671C16.9294 4.9418 16.97 4.91714 17.0085 4.89312C17.047 4.8691 17.0744 4.85225 17.0907 4.84256C17.1861 4.78604 17.2701 4.76271 17.3429 4.77256C17.4157 4.78242 17.4714 4.81745 17.51 4.87764C17.5296 4.90818 17.5422 4.94231 17.5476 4.98005C17.5534 5.01637 17.5487 5.0559 17.5335 5.09863C17.5186 5.13995 17.4906 5.1831 17.4492 5.22807L17.4509 5.23069C17.5283 5.19689 17.5947 5.18036 17.6504 5.1811C17.7064 5.18043 17.7529 5.19139 17.79 5.21398C17.827 5.23657 17.857 5.26575 17.88 5.30152C17.912 5.35125 17.9271 5.40311 17.9254 5.45711C17.9241 5.50969 17.9059 5.56142 17.8709 5.6123C17.8358 5.66318 17.7843 5.7088 17.7162 5.74918C17.6962 5.76102 17.666 5.77834 17.6255 5.80116C17.5844 5.8231 17.5357 5.85075 17.4794 5.88413C17.4476 5.90297 17.4166 5.92197 17.3863 5.94115C17.3554 5.95945 17.331 5.97512 17.313 5.98817L17.2962 5.962C17.326 5.94195 17.3469 5.92474 17.359 5.91035C17.372 5.89543 17.3761 5.8785 17.3715 5.85957C17.3669 5.84064 17.3545 5.81547 17.3343 5.78406L16.9175 5.13499C16.8968 5.10271 16.8789 5.08077 16.8639 5.06917C16.8484 5.05669 16.8308 5.05269 16.8111 5.05714C16.7917 5.06018 16.7663 5.07042 16.7349 5.08785L16.7181 5.06168ZM17.0727 4.88761C17.0309 4.91237 17.0084 4.93593 17.0052 4.9583C17.002 4.98067 17.015 5.01453 17.0441 5.0599L17.4609 5.70897C17.4806 5.7395 17.4981 5.76101 17.5137 5.77348C17.5292 5.78595 17.5459 5.7905 17.5638 5.78712C17.5817 5.78375 17.6047 5.77371 17.6328 5.75703C17.7218 5.70427 17.7737 5.64643 17.7884 5.58348C17.8035 5.51913 17.7875 5.45031 17.7405 5.37703C17.6973 5.30986 17.6449 5.26925 17.5833 5.25522C17.5225 5.24065 17.449 5.25893 17.3627 5.31007L17.248 5.37737C17.248 5.37737 17.245 5.37267 17.2405 5.36569C17.2355 5.35784 17.2334 5.35455 17.2334 5.35455L17.3253 5.30155C17.3789 5.26979 17.414 5.2357 17.4308 5.19928C17.4469 5.16199 17.4501 5.12398 17.4403 5.08524C17.4299 5.04563 17.4126 5.00706 17.3885 4.96955C17.3471 4.90499 17.301 4.86546 17.2503 4.85094C17.2 4.83501 17.1408 4.84724 17.0727 4.88761Z" fill="white"/>
<path d="M18.6912 4.08433C18.7869 4.05219 18.878 4.04492 18.9647 4.06251C19.0523 4.07977 19.13 4.12099 19.1978 4.18618C19.2663 4.25006 19.3208 4.33765 19.3612 4.44893C19.4007 4.55731 19.4145 4.65908 19.4028 4.75424C19.3921 4.84905 19.3588 4.93138 19.3028 5.00121C19.2468 5.07105 19.172 5.1217 19.0784 5.15316C18.9827 5.1853 18.891 5.19274 18.8034 5.17548C18.7167 5.15789 18.639 5.11667 18.5702 5.05182C18.5024 4.98663 18.4484 4.89887 18.4083 4.78856C18.3689 4.68018 18.355 4.57841 18.3667 4.48325C18.3784 4.3881 18.4118 4.30577 18.4667 4.23627C18.5227 4.16644 18.5975 4.11579 18.6912 4.08433ZM18.6946 4.11249C18.6292 4.13447 18.5802 4.17536 18.5477 4.23514C18.5152 4.29492 18.4993 4.36761 18.4999 4.45319C18.5015 4.53843 18.5206 4.63137 18.5573 4.73201C18.5946 4.83458 18.6417 4.91919 18.6988 4.98583C18.7564 5.05116 18.818 5.09617 18.8835 5.12087C18.9497 5.14426 19.0135 5.14564 19.0749 5.125C19.1404 5.10301 19.1893 5.06213 19.2218 5.00235C19.2543 4.94256 19.2698 4.87005 19.2681 4.78481C19.2672 4.69826 19.2485 4.60515 19.2123 4.50548C19.1746 4.40194 19.1269 4.3175 19.0693 4.25217C19.0126 4.1865 18.9517 4.1418 18.8866 4.11807C18.8211 4.09337 18.7571 4.09151 18.6946 4.11249Z" fill="white"/>
<path d="M21.0316 3.65309L21.035 3.68367C20.999 3.68839 20.972 3.69631 20.9539 3.70744C20.9369 3.71846 20.9263 3.73449 20.9222 3.75553C20.9181 3.77657 20.9182 3.80595 20.9223 3.84366L21.0236 4.75647C21.0173 4.75712 21.0109 4.75778 21.0045 4.75843C20.9992 4.75897 20.9934 4.75957 20.987 4.76022L20.2086 3.83637L20.2982 4.64368C20.3022 4.68038 20.3086 4.7091 20.3174 4.72986C20.3271 4.74948 20.3425 4.76285 20.3637 4.76996C20.3858 4.77594 20.4177 4.77783 20.4593 4.77563L20.4626 4.80621C20.4433 4.80613 20.4183 4.80766 20.3875 4.81081C20.3566 4.81295 20.3274 4.81543 20.2998 4.81825C20.2733 4.82097 20.2463 4.82425 20.2188 4.82809C20.1923 4.83081 20.1702 4.83411 20.1523 4.838L20.149 4.80742C20.1848 4.80169 20.2113 4.79382 20.2284 4.78382C20.2465 4.77269 20.2576 4.7566 20.2617 4.73556C20.2657 4.7135 20.2656 4.68413 20.2616 4.64743L20.1791 3.90434C20.1749 3.86662 20.1687 3.83943 20.1604 3.82275C20.152 3.80506 20.1379 3.79413 20.1181 3.78997C20.0993 3.78468 20.0718 3.78337 20.0356 3.78605L20.0322 3.75547C20.0504 3.75464 20.0728 3.75338 20.0994 3.75168C20.1271 3.74988 20.1542 3.74761 20.1807 3.7449C20.2041 3.74251 20.2263 3.73971 20.2474 3.73652C20.2685 3.73333 20.2875 3.73035 20.3043 3.72759L20.9584 4.50182L20.8857 3.84741C20.8816 3.8097 20.8746 3.78103 20.8649 3.7614C20.8563 3.74167 20.8409 3.7283 20.8186 3.7213C20.7975 3.71419 20.7661 3.71224 20.7246 3.71546L20.7213 3.68488C20.7405 3.68395 20.7655 3.68241 20.7964 3.68028C20.8283 3.67804 20.8576 3.67556 20.8841 3.67284C20.9117 3.67002 20.9387 3.66673 20.9651 3.663C20.9925 3.65915 21.0147 3.65585 21.0316 3.65309Z" fill="white"/>
<path d="M22.9344 3.77333L22.9304 3.80384C22.8943 3.80055 22.8661 3.80235 22.8459 3.80922C22.8267 3.81623 22.8126 3.82952 22.8036 3.84911C22.7946 3.86869 22.7877 3.8973 22.7828 3.93494L22.6648 4.84589C22.6584 4.84513 22.6521 4.84437 22.6457 4.84361C22.6404 4.84298 22.6346 4.84228 22.6283 4.84152L22.0896 3.77144L21.9852 4.57711C21.9805 4.61373 21.9799 4.6431 21.9835 4.66522C21.9882 4.68645 22.0001 4.70285 22.019 4.71441C22.0391 4.72508 22.0697 4.7339 22.1107 4.74088L22.1068 4.7714C22.088 4.76708 22.0632 4.76309 22.0325 4.75942C22.002 4.75473 21.9729 4.75073 21.9454 4.74744C21.9189 4.74428 21.8919 4.74156 21.8642 4.73928C21.8377 4.73611 21.8154 4.73447 21.7971 4.73435L21.8011 4.70384C21.8373 4.70611 21.865 4.70425 21.884 4.69826C21.9043 4.69139 21.9189 4.67816 21.9279 4.65857C21.937 4.63797 21.9439 4.60936 21.9487 4.57274L22.0448 3.83116C22.0496 3.79352 22.05 3.76567 22.0459 3.74762C22.0419 3.72855 22.0308 3.71482 22.0125 3.70644C21.9955 3.69717 21.969 3.68987 21.9331 3.68455L21.9371 3.65403C21.955 3.6572 21.9771 3.66088 22.0034 3.66506C22.0308 3.66937 22.0577 3.67311 22.0842 3.67627C22.1075 3.67906 22.1298 3.68121 22.1511 3.68273C22.1724 3.68424 22.1916 3.6855 22.2086 3.68651L22.6617 4.58365L22.7463 3.93057C22.7512 3.89293 22.7512 3.8635 22.7464 3.84227C22.7427 3.82116 22.7309 3.80477 22.7109 3.79308C22.692 3.78152 22.6619 3.77276 22.6208 3.7668L22.6247 3.73628C22.6436 3.73958 22.6684 3.74357 22.699 3.74826C22.7306 3.75308 22.7596 3.75707 22.7861 3.76024C22.8136 3.76353 22.8407 3.76625 22.8673 3.7684C22.895 3.77067 22.9173 3.77232 22.9344 3.77333Z" fill="white"/>
<path d="M24.1643 4.09613L24.1544 4.12538C24.1196 4.11562 24.0919 4.1113 24.0713 4.11244C24.0521 4.11292 24.0365 4.12099 24.0245 4.13665C24.0128 4.15133 24.0009 4.17671 23.9887 4.2128L23.7441 4.93834C23.7322 4.97345 23.7264 5.00073 23.7265 5.02018C23.7267 5.03963 23.7344 5.05496 23.7497 5.06618C23.766 5.07772 23.7911 5.08984 23.8249 5.10253L23.8151 5.13179C23.7924 5.12257 23.7633 5.11243 23.7278 5.10137C23.6936 5.08966 23.6587 5.07827 23.6232 5.06721C23.5836 5.05489 23.5464 5.04384 23.5116 5.03407C23.4771 5.02333 23.4488 5.01562 23.4269 5.01093L23.4367 4.98168C23.4719 4.99047 23.4991 4.99462 23.5183 4.99414C23.5386 4.99398 23.5547 4.98607 23.5667 4.97041C23.5787 4.95475 23.5906 4.92937 23.6025 4.89426L23.8471 4.16872C23.8593 4.13264 23.8651 4.10536 23.8646 4.08688C23.8645 4.06743 23.8562 4.05194 23.8399 4.0404C23.825 4.0282 23.8004 4.01625 23.7662 4.00453L23.7761 3.97527C23.7971 3.98288 23.8247 3.99255 23.8588 4.00426C23.893 4.01598 23.9299 4.028 23.9695 4.04033C24.005 4.05138 24.0402 4.0618 24.075 4.07157C24.1109 4.08165 24.1406 4.08984 24.1643 4.09613Z" fill="white"/>
<path d="M25.6619 4.75631C25.6406 4.78606 25.6207 4.81538 25.6023 4.84427C25.5848 4.87365 25.5718 4.89603 25.5632 4.91141C25.5542 4.9277 25.5459 4.94377 25.5383 4.95964C25.5312 4.9746 25.5254 4.9873 25.5208 4.99773L25.4884 4.98111C25.5123 4.92483 25.5276 4.87866 25.5343 4.8426C25.5415 4.80563 25.5359 4.77431 25.5175 4.74863C25.5005 4.72253 25.4671 4.69672 25.4172 4.67118L25.2999 4.6112C25.2679 4.59482 25.2419 4.58501 25.2219 4.58176C25.2034 4.5781 25.1868 4.58296 25.1722 4.59636C25.158 4.60885 25.1416 4.63184 25.1231 4.66532L24.75 5.33851C24.732 5.37109 24.7212 5.39696 24.7179 5.41614C24.7145 5.43532 24.7193 5.45172 24.7323 5.46534C24.7468 5.47853 24.77 5.49332 24.802 5.5097L24.9051 5.56246C24.9644 5.59281 25.0134 5.608 25.0521 5.60804C25.0917 5.60856 25.1276 5.59499 25.1599 5.56736C25.1935 5.53929 25.2302 5.49709 25.2699 5.44074L25.3024 5.45736C25.286 5.48035 25.2666 5.5122 25.244 5.55292C25.2345 5.57011 25.2212 5.59523 25.2041 5.62829C25.1884 5.66092 25.1729 5.69539 25.1576 5.73171C25.1106 5.70533 25.0569 5.67672 24.9967 5.64588C24.9369 5.61414 24.8835 5.58623 24.8364 5.56214C24.8157 5.55154 24.7888 5.53781 24.7559 5.52095C24.7239 5.50457 24.6888 5.4872 24.6506 5.46883C24.6129 5.44956 24.5745 5.4305 24.5354 5.41165C24.4968 5.3919 24.4598 5.37356 24.4245 5.35664L24.4395 5.32949C24.4726 5.34406 24.4986 5.35273 24.5176 5.35549C24.5376 5.35873 24.5549 5.35366 24.5695 5.34026C24.5842 5.32687 24.6006 5.30388 24.6186 5.27131L24.9917 4.59811C25.0102 4.56463 25.021 4.53875 25.0238 4.52048C25.0272 4.5013 25.0219 4.48466 25.008 4.47056C24.9955 4.45604 24.9735 4.44013 24.942 4.42285L24.957 4.3957C24.9913 4.41443 25.0276 4.43413 25.0657 4.45478C25.1043 4.47454 25.1422 4.4945 25.1793 4.51468C25.217 4.53395 25.2519 4.55177 25.2839 4.56816C25.3168 4.58502 25.3437 4.59875 25.3644 4.60935C25.4077 4.63151 25.4567 4.65656 25.5113 4.68451C25.5674 4.71203 25.6176 4.73596 25.6619 4.75631ZM25.0388 5.03332C25.0388 5.03332 25.0363 5.03785 25.0313 5.0469C25.0263 5.05595 25.0238 5.06047 25.0238 5.06047L24.9304 5.01297C24.9304 5.01297 24.9327 5.00883 24.9377 4.99978C24.9427 4.99074 24.9456 4.98548 24.9456 4.98548L25.0388 5.03332ZM25.3019 4.938C25.2696 4.98765 25.2459 5.02604 25.2308 5.05319C25.2167 5.08081 25.2034 5.10594 25.1909 5.12856C25.1784 5.15118 25.165 5.1763 25.1509 5.20393C25.1368 5.23156 25.1174 5.27212 25.0926 5.32562L25.0601 5.309C25.0724 5.27812 25.0832 5.24766 25.0926 5.21763C25.1034 5.18717 25.1047 5.15877 25.0963 5.13242C25.0894 5.10565 25.0652 5.08167 25.0238 5.06047L25.0388 5.03332C25.0699 5.04922 25.0967 5.05539 25.1192 5.05181C25.1432 5.04782 25.1642 5.03825 25.1822 5.0231C25.2003 5.00795 25.2163 4.99115 25.2301 4.97269C25.2445 4.95332 25.2576 4.93622 25.2694 4.92137L25.3019 4.938Z" fill="white"/>
<path d="M26.4761 5.26564C26.4948 5.27932 26.5071 5.29418 26.5132 5.31022C26.5193 5.32626 26.5216 5.34278 26.5201 5.35979C26.5191 5.37967 26.5137 5.39828 26.504 5.41563C26.4942 5.43298 26.4855 5.44655 26.4777 5.45633C26.446 5.49627 26.4066 5.52476 26.3595 5.54182C26.3124 5.55888 26.2583 5.56112 26.1972 5.54854L26.2032 5.51814C26.2379 5.52682 26.2737 5.52659 26.3104 5.51745C26.3481 5.50893 26.3763 5.49285 26.395 5.46921C26.4028 5.45943 26.4083 5.44994 26.4116 5.44074C26.3896 5.44139 26.3697 5.43518 26.3519 5.42213C26.3298 5.40596 26.3163 5.38505 26.3111 5.35938C26.306 5.33371 26.3132 5.30865 26.3326 5.2842C26.3507 5.26138 26.3736 5.24854 26.4014 5.24568C26.4292 5.24282 26.4541 5.24948 26.4761 5.26564Z" fill="white"/>
<path d="M27.4175 6.07532C27.4544 6.11235 27.4778 6.14474 27.4878 6.1725C27.4985 6.19955 27.5058 6.22544 27.5098 6.25018C27.5132 6.26403 27.516 6.27496 27.5181 6.28298C27.5217 6.29103 27.526 6.29765 27.5312 6.30283C27.5386 6.31024 27.548 6.31152 27.5594 6.30669C27.5716 6.3026 27.5872 6.29386 27.6064 6.28049L27.6319 6.30604C27.618 6.31735 27.6011 6.33077 27.5811 6.3463C27.5627 6.36186 27.538 6.38309 27.5072 6.41C27.478 6.43693 27.439 6.47273 27.3905 6.51738L27.365 6.49183C27.3998 6.45559 27.4275 6.4152 27.4482 6.37069C27.4688 6.32617 27.477 6.28103 27.4727 6.23526C27.4692 6.19024 27.4468 6.14699 27.4055 6.10551C27.3664 6.06626 27.3216 6.04502 27.2712 6.04178C27.2214 6.03928 27.1765 6.05646 27.1364 6.09332C27.1017 6.12522 27.0809 6.16067 27.074 6.19967C27.0679 6.23797 27.0692 6.28005 27.0779 6.32591C27.0882 6.37181 27.0991 6.42134 27.1108 6.47451C27.1244 6.5357 27.1337 6.59245 27.1386 6.64475C27.1449 6.69709 27.1419 6.74524 27.1296 6.78921C27.118 6.83392 27.0914 6.87541 27.0498 6.91368C27.0005 6.95905 26.9489 6.98588 26.8952 6.99417C26.8414 7.00246 26.7887 6.99628 26.7371 6.97562C26.6855 6.95495 26.6383 6.92314 26.5956 6.88019C26.5565 6.84094 26.5301 6.80558 26.5165 6.77412C26.5029 6.74266 26.4929 6.71417 26.4867 6.68867C26.4813 6.66245 26.4741 6.6449 26.4653 6.63601C26.4579 6.62861 26.4482 6.62695 26.436 6.63104C26.4246 6.63588 26.4093 6.64498 26.3901 6.65835L26.3646 6.6328C26.3823 6.6194 26.4019 6.60278 26.4235 6.58293C26.4466 6.56311 26.4759 6.5369 26.5113 6.5043C26.5475 6.47244 26.5926 6.4317 26.6465 6.38208L26.672 6.40763C26.6287 6.45312 26.5936 6.50096 26.5668 6.55115C26.5408 6.60207 26.5294 6.65295 26.5328 6.70377C26.5377 6.75463 26.5637 6.80375 26.6109 6.85115C26.6353 6.87559 26.6632 6.89394 26.6946 6.9062C26.7275 6.9185 26.7621 6.9214 26.7985 6.91492C26.8356 6.90772 26.8723 6.88747 26.9085 6.85416C26.9401 6.8251 26.9601 6.79253 26.9685 6.75645C26.9784 6.72041 26.9804 6.68021 26.9746 6.63586C26.9696 6.59081 26.9606 6.54095 26.9475 6.4863C26.9352 6.43094 26.9255 6.37744 26.9183 6.32581C26.9112 6.27419 26.9135 6.22529 26.9251 6.17914C26.9382 6.13301 26.9663 6.0901 27.0095 6.05041C27.055 6.00859 27.102 5.98384 27.1504 5.97616C27.2004 5.96851 27.2482 5.97423 27.2938 5.99332C27.3401 6.0117 27.3814 6.03903 27.4175 6.07532Z" fill="white"/>
<path d="M28.933 8.20545C29.0129 8.37209 29.0287 8.51522 28.9803 8.63483C28.933 8.75402 28.8284 8.84944 28.6666 8.9211C28.561 8.96788 28.4588 8.98884 28.3602 8.984C28.2629 8.97965 28.1744 8.94943 28.0947 8.89333C28.0149 8.83723 27.9493 8.75565 27.898 8.64859C27.8913 8.63463 27.8828 8.61579 27.8726 8.59209C27.8624 8.56839 27.8513 8.54397 27.8392 8.51883C27.8286 8.4942 27.8184 8.47164 27.8085 8.45116C27.7929 8.41857 27.777 8.38667 27.7608 8.35544C27.7457 8.32379 27.7324 8.29862 27.7211 8.27993L27.7502 8.26705C27.7673 8.29785 27.7826 8.31987 27.796 8.33312C27.8098 8.34731 27.8268 8.35333 27.8469 8.35119C27.867 8.34905 27.8945 8.34026 27.9294 8.32481L28.6503 8.00555C28.6861 7.98968 28.711 7.9753 28.7247 7.96242C28.7395 7.94911 28.7458 7.93279 28.7436 7.91346C28.7427 7.89462 28.7352 7.86917 28.721 7.83709L28.7501 7.82421C28.7585 7.84419 28.7693 7.87044 28.7826 7.90295C28.7968 7.93503 28.8117 7.96622 28.8274 7.99651C28.844 8.02867 28.8627 8.06501 28.8833 8.10555C28.9039 8.14608 28.9205 8.17938 28.933 8.20545ZM28.8901 8.18212C28.8695 8.1393 28.8479 8.11501 28.8252 8.10928C28.8024 8.10354 28.7659 8.11182 28.7155 8.13414L27.9888 8.45597C27.9384 8.47828 27.9081 8.4996 27.8979 8.51993C27.8881 8.54119 27.8935 8.57323 27.9141 8.61606C27.9627 8.71754 28.0194 8.78784 28.084 8.82696C28.1495 8.86565 28.2245 8.87986 28.3088 8.8696C28.3932 8.85933 28.4882 8.83081 28.5938 8.78403C28.7023 8.73597 28.7859 8.68371 28.8446 8.62725C28.9046 8.57129 28.9385 8.50719 28.9461 8.43496C28.9552 8.36322 28.9365 8.27894 28.8901 8.18212Z" fill="white"/>
<path d="M29.5559 9.94192L28.652 10.5093C28.6156 10.5324 28.5928 10.5548 28.5834 10.5767C28.5751 10.5983 28.5722 10.6172 28.5747 10.6334L28.5433 10.6398C28.541 10.6193 28.5366 10.5945 28.5302 10.5655C28.5249 10.5362 28.519 10.507 28.5126 10.4779C28.504 10.4388 28.4954 10.4023 28.4868 10.3684C28.4793 10.3343 28.4722 10.3069 28.4655 10.2863L28.4968 10.2799C28.5101 10.3306 28.5262 10.3614 28.5449 10.3723C28.5647 10.3829 28.599 10.3728 28.6478 10.3419L29.3434 9.91663L29.39 9.9238L28.6246 9.80597C28.5794 9.79842 28.5418 9.79611 28.5119 9.79904C28.483 9.80177 28.4612 9.80884 28.4462 9.82026C28.4315 9.83268 28.4227 9.84966 28.4198 9.87121C28.4172 9.89375 28.4187 9.92068 28.4245 9.95198L28.3932 9.95835C28.3891 9.92984 28.3836 9.90005 28.3768 9.86896C28.3712 9.83866 28.3656 9.81047 28.3598 9.7844C28.3543 9.75932 28.349 9.73787 28.344 9.72003C28.3402 9.70298 28.3357 9.68715 28.3303 9.67253L28.3616 9.66616C28.3712 9.68515 28.3877 9.70327 28.4112 9.72051C28.4356 9.73754 28.4732 9.7498 28.524 9.7573L29.5506 9.91785C29.5515 9.92186 29.5524 9.92587 29.5533 9.92988C29.5541 9.93389 29.555 9.93791 29.5559 9.94192ZM28.9125 10.1801L28.8843 10.1974L28.8044 9.83364L28.8379 9.83881L28.9125 10.1801Z" fill="white"/>
<path d="M29.7269 12.1957L29.6949 12.1952C29.6943 12.1604 29.6894 12.1336 29.6801 12.1151C29.6707 12.0975 29.6555 12.0855 29.6342 12.079C29.613 12.0726 29.5826 12.0691 29.5431 12.0685L28.5879 12.055C28.588 12.0489 28.588 12.0427 28.5881 12.0366C28.5882 12.0314 28.5883 12.0258 28.5884 12.0197L29.6368 11.3886L28.7919 11.3766C28.7535 11.3761 28.7231 11.3787 28.7006 11.3846C28.6791 11.3915 28.6634 11.4046 28.6535 11.4239C28.6447 11.4443 28.6389 11.4744 28.6362 11.5144L28.6041 11.5139C28.6066 11.4955 28.608 11.4714 28.6085 11.4417C28.61 11.412 28.6109 11.3838 28.6114 11.3572C28.6117 11.3316 28.6116 11.3054 28.611 11.2787C28.6113 11.2531 28.6106 11.2316 28.6087 11.2141L28.6407 11.2146C28.6423 11.2495 28.6473 11.2757 28.6555 11.2932C28.6649 11.3118 28.6801 11.3243 28.7014 11.3308C28.7237 11.3372 28.754 11.3407 28.7924 11.3413L29.5701 11.3523C29.6096 11.3528 29.6384 11.3502 29.6567 11.3443C29.676 11.3384 29.689 11.3263 29.6956 11.3079C29.7034 11.2906 29.708 11.2645 29.7096 11.2297L29.7416 11.2301C29.7403 11.2476 29.7389 11.2691 29.7375 11.2947C29.736 11.3213 29.735 11.3474 29.7347 11.3731C29.7343 11.3956 29.7345 11.4171 29.7353 11.4377C29.736 11.4582 29.7368 11.4766 29.7376 11.4931L28.8588 12.0235L29.5437 12.0332C29.5832 12.0337 29.6136 12.0306 29.6351 12.0237C29.6565 12.0178 29.6722 12.0047 29.6821 11.9844C29.692 11.965 29.6978 11.9354 29.6994 11.8954L29.7314 11.8959C29.7301 11.9143 29.7287 11.9384 29.7271 11.9681C29.7256 11.9988 29.7246 12.027 29.7242 12.0526C29.7238 12.0793 29.724 12.1054 29.7246 12.1311C29.7253 12.1577 29.726 12.1793 29.7269 12.1957Z" fill="white"/>
<path d="M29.5108 13.5554C29.4937 13.621 29.4694 13.6722 29.4378 13.709C29.4071 13.7471 29.3739 13.7793 29.3385 13.8056C29.3178 13.8218 29.3119 13.8362 29.3207 13.8489C29.3302 13.8628 29.3568 13.8771 29.4002 13.8918L29.3913 13.9261C29.3535 13.9149 29.3073 13.9022 29.2527 13.8881C29.1981 13.8739 29.1258 13.856 29.0358 13.8344L29.0447 13.8001C29.091 13.8038 29.1279 13.8058 29.1553 13.8061C29.1838 13.8065 29.2085 13.8046 29.2294 13.8001C29.2501 13.7966 29.2716 13.7901 29.2939 13.7807C29.3443 13.76 29.3849 13.7286 29.4157 13.6863C29.4475 13.6443 29.4702 13.5974 29.4836 13.5457C29.4963 13.497 29.4949 13.4496 29.4793 13.4036C29.4646 13.3588 29.4371 13.3163 29.397 13.2761C29.3566 13.2368 29.3049 13.2011 29.2417 13.1691C29.1783 13.138 29.1047 13.1124 29.0209 13.0923C28.9339 13.0714 28.8546 13.0614 28.7829 13.0621C28.7123 13.0631 28.6503 13.0731 28.597 13.092C28.5435 13.1119 28.4995 13.1394 28.4651 13.1744C28.4314 13.2107 28.4084 13.2527 28.396 13.3005C28.3844 13.3452 28.3815 13.3942 28.3875 13.4474C28.3935 13.5006 28.4135 13.5461 28.4477 13.5839C28.472 13.613 28.5007 13.6357 28.5339 13.6521C28.5667 13.6695 28.6138 13.6893 28.6752 13.7114L28.6662 13.7457C28.5721 13.7231 28.4958 13.7054 28.4376 13.6924C28.3804 13.6798 28.3319 13.6697 28.2921 13.6623L28.301 13.6279C28.3465 13.6346 28.3763 13.6344 28.3903 13.6272C28.404 13.621 28.4064 13.6052 28.3976 13.5798C28.3803 13.5366 28.3667 13.4916 28.3568 13.4448C28.3478 13.3993 28.3516 13.3443 28.3685 13.2796C28.393 13.1851 28.4369 13.1074 28.5 13.0465C28.5629 12.9866 28.6414 12.9468 28.7356 12.9271C28.8295 12.9084 28.9354 12.9133 29.0534 12.9416C29.1694 12.9694 29.2655 13.0142 29.3419 13.0758C29.4182 13.1375 29.4715 13.2094 29.5018 13.2917C29.5318 13.375 29.5348 13.4629 29.5108 13.5554Z" fill="white"/>
<path d="M28.705 15.4867C28.6734 15.467 28.6424 15.4488 28.6118 15.4319C28.5807 15.4159 28.5571 15.404 28.5408 15.3963C28.5236 15.388 28.5067 15.3805 28.49 15.3737C28.4742 15.3673 28.4608 15.3621 28.4499 15.358L28.4662 15.3263C28.5255 15.3477 28.5739 15.3611 28.6116 15.3665C28.6503 15.3724 28.6827 15.3661 28.7089 15.3477C28.7356 15.3307 28.7615 15.2979 28.7867 15.2492L28.8458 15.135C28.862 15.1037 28.8714 15.0785 28.8743 15.0592C28.8776 15.0414 28.872 15.0256 28.8577 15.0118C28.8443 14.9986 28.8199 14.9835 28.7846 14.9666L28.0738 14.6271C28.0394 14.6107 28.0122 14.6011 27.9921 14.5984C27.9721 14.5957 27.9552 14.6008 27.9414 14.6137C27.928 14.6279 27.9133 14.6506 27.8971 14.6818L27.8451 14.7823C27.8152 14.8402 27.8008 14.8877 27.8018 14.9248C27.8024 14.9628 27.8175 14.997 27.8472 15.0272C27.8773 15.0587 27.9222 15.0928 27.982 15.1293L27.9656 15.161C27.9412 15.1459 27.9075 15.1281 27.8645 15.1076C27.8464 15.0989 27.8199 15.0868 27.785 15.0713C27.7506 15.0572 27.7143 15.0433 27.6761 15.0296C27.7023 14.9837 27.7305 14.9314 27.7609 14.8726C27.7923 14.8143 27.8198 14.7622 27.8436 14.7163C27.854 14.6961 27.8675 14.67 27.8842 14.6379C27.9003 14.6066 27.9174 14.5725 27.9354 14.5353C27.9544 14.4986 27.9732 14.4612 27.9917 14.4231C28.0112 14.3854 28.0292 14.3494 28.0458 14.315L28.0745 14.3287C28.0603 14.3608 28.052 14.386 28.0496 14.4044C28.0468 14.4236 28.0526 14.4401 28.0669 14.4538C28.0813 14.4676 28.1056 14.4826 28.14 14.4991L28.8508 14.8386C28.8862 14.8554 28.9134 14.865 28.9325 14.8673C28.9525 14.87 28.9697 14.8644 28.984 14.8506C28.9987 14.8382 29.0147 14.8167 29.0318 14.7859L29.0604 14.7996C29.0419 14.8331 29.0224 14.8684 29.002 14.9056C28.9825 14.9433 28.9628 14.9802 28.9429 15.0165C28.9239 15.0532 28.9063 15.0871 28.8901 15.1184C28.8735 15.1505 28.86 15.1766 28.8495 15.1968C28.8277 15.2391 28.803 15.2868 28.7755 15.34C28.7484 15.3947 28.7249 15.4435 28.705 15.4867ZM28.3994 14.896C28.3994 14.896 28.3933 14.893 28.3837 14.8885C28.3742 14.8839 28.3707 14.8823 28.3707 14.8823L28.4175 14.7913C28.4175 14.7913 28.4221 14.7935 28.4317 14.7981C28.4413 14.8026 28.4457 14.8048 28.4457 14.8048L28.3994 14.896ZM28.5059 15.146C28.4533 15.1163 28.4127 15.0947 28.3841 15.081C28.3549 15.0682 28.3284 15.0561 28.3045 15.0447C28.2806 15.0333 28.2541 15.0212 28.225 15.0084C28.1959 14.9957 28.1531 14.9781 28.0968 14.9558L28.1132 14.9241C28.1456 14.935 28.1776 14.9446 28.2091 14.9528C28.2411 14.9623 28.2707 14.9627 28.2979 14.9539C28.3255 14.9466 28.3498 14.9227 28.3707 14.8823L28.3994 14.896C28.3837 14.9262 28.378 14.9522 28.3824 14.9737C28.3872 14.9966 28.3977 15.0165 28.414 15.0335C28.4303 15.0504 28.4482 15.0652 28.4678 15.078C28.4883 15.0913 28.5065 15.1034 28.5223 15.1144L28.5059 15.146Z" fill="white"/>
<path d="M44.468 5.504C44.652 5.512 44.888 5.52 45.176 5.528C45.472 5.536 45.764 5.54 46.052 5.54C46.436 5.54 46.8 5.536 47.144 5.528C47.496 5.52 47.744 5.516 47.888 5.516C48.784 5.516 49.452 5.692 49.892 6.044C50.34 6.396 50.564 6.848 50.564 7.4C50.564 7.68 50.496 7.96 50.36 8.24C50.232 8.512 50.02 8.76 49.724 8.984C49.428 9.2 49.036 9.372 48.548 9.5V9.524C49.22 9.596 49.748 9.74 50.132 9.956C50.516 10.172 50.788 10.432 50.948 10.736C51.108 11.032 51.188 11.344 51.188 11.672C51.188 12.144 51.068 12.556 50.828 12.908C50.588 13.252 50.24 13.52 49.784 13.712C49.336 13.904 48.796 14 48.164 14C47.988 14 47.72 13.996 47.36 13.988C47.008 13.972 46.58 13.964 46.076 13.964C45.772 13.964 45.472 13.968 45.176 13.976C44.888 13.976 44.652 13.984 44.468 14V13.76C44.74 13.744 44.944 13.712 45.08 13.664C45.216 13.616 45.304 13.52 45.344 13.376C45.392 13.232 45.416 13.016 45.416 12.728V6.776C45.416 6.48 45.392 6.264 45.344 6.128C45.304 5.984 45.212 5.888 45.068 5.84C44.932 5.784 44.732 5.752 44.468 5.744V5.504ZM47.636 5.744C47.292 5.744 47.064 5.812 46.952 5.948C46.848 6.084 46.796 6.36 46.796 6.776V12.728C46.796 13.008 46.82 13.22 46.868 13.364C46.916 13.508 47 13.604 47.12 13.652C47.248 13.7 47.432 13.724 47.672 13.724C48.392 13.724 48.912 13.544 49.232 13.184C49.56 12.816 49.724 12.296 49.724 11.624C49.724 11.008 49.56 10.532 49.232 10.196C48.912 9.86 48.38 9.692 47.636 9.692H46.472C46.472 9.692 46.472 9.66 46.472 9.596C46.472 9.524 46.472 9.488 46.472 9.488H47.504C47.944 9.488 48.284 9.4 48.524 9.224C48.764 9.04 48.928 8.8 49.016 8.504C49.104 8.2 49.148 7.876 49.148 7.532C49.148 6.94 49.032 6.496 48.8 6.2C48.568 5.896 48.18 5.744 47.636 5.744ZM56.2241 5.336C57.0081 5.336 57.6961 5.508 58.2881 5.852C58.8881 6.196 59.3521 6.692 59.6801 7.34C60.0081 7.98 60.1721 8.76 60.1721 9.68C60.1721 10.576 60.0041 11.36 59.6681 12.032C59.3321 12.704 58.8641 13.228 58.2641 13.604C57.6641 13.98 56.9801 14.168 56.2121 14.168C55.4201 14.168 54.7281 13.996 54.1361 13.652C53.5441 13.308 53.0841 12.812 52.7561 12.164C52.4281 11.516 52.2641 10.736 52.2641 9.824C52.2641 8.928 52.4321 8.144 52.7681 7.472C53.1121 6.8 53.5801 6.276 54.1721 5.9C54.7641 5.524 55.4481 5.336 56.2241 5.336ZM56.1761 5.552C55.6801 5.552 55.2481 5.732 54.8801 6.092C54.5121 6.452 54.2281 6.948 54.0281 7.58C53.8281 8.212 53.7281 8.944 53.7281 9.776C53.7281 10.624 53.8401 11.364 54.0641 11.996C54.2881 12.62 54.5921 13.104 54.9761 13.448C55.3601 13.784 55.7881 13.952 56.2601 13.952C56.7561 13.952 57.1841 13.772 57.5441 13.412C57.9121 13.052 58.1961 12.556 58.3961 11.924C58.6041 11.284 58.7081 10.552 58.7081 9.728C58.7081 8.872 58.5921 8.132 58.3601 7.508C58.1361 6.884 57.8321 6.404 57.4481 6.068C57.0721 5.724 56.6481 5.552 56.1761 5.552ZM68.8001 5.504V5.744C68.5281 5.76 68.3241 5.808 68.1881 5.888C68.0521 5.968 67.9601 6.1 67.9121 6.284C67.8721 6.46 67.8521 6.712 67.8521 7.04V14.048C67.7881 14.048 67.7241 14.048 67.6601 14.048C67.5961 14.048 67.5281 14.048 67.4561 14.048L62.3681 6.656V12.416C62.3681 12.752 62.3921 13.016 62.4401 13.208C62.4881 13.392 62.5921 13.524 62.7521 13.604C62.9121 13.684 63.1561 13.736 63.4841 13.76V14C63.3321 13.984 63.1361 13.976 62.8961 13.976C62.6641 13.968 62.4441 13.964 62.2361 13.964C62.0361 13.964 61.8361 13.968 61.6361 13.976C61.4361 13.976 61.2721 13.984 61.1441 14V13.76C61.4081 13.736 61.6081 13.688 61.7441 13.616C61.8801 13.536 61.9721 13.404 62.0201 13.22C62.0681 13.036 62.0921 12.784 62.0921 12.464V6.776C62.0921 6.48 62.0681 6.264 62.0201 6.128C61.9721 5.984 61.8801 5.888 61.7441 5.84C61.6081 5.784 61.4081 5.752 61.1441 5.744V5.504C61.2721 5.512 61.4361 5.52 61.6361 5.528C61.8361 5.536 62.0361 5.54 62.2361 5.54C62.4121 5.54 62.5841 5.536 62.7521 5.528C62.9201 5.52 63.0681 5.512 63.1961 5.504L67.5761 11.768V7.088C67.5761 6.744 67.5481 6.48 67.4921 6.296C67.4441 6.112 67.3401 5.98 67.1801 5.9C67.0201 5.812 66.7801 5.76 66.4601 5.744V5.504C66.6041 5.512 66.7961 5.52 67.0361 5.528C67.2761 5.536 67.5001 5.54 67.7081 5.54C67.9081 5.54 68.1081 5.536 68.3081 5.528C68.5081 5.52 68.6721 5.512 68.8001 5.504ZM77.3313 5.504V5.744C77.0593 5.76 76.8553 5.808 76.7193 5.888C76.5833 5.968 76.4913 6.1 76.4433 6.284C76.4033 6.46 76.3833 6.712 76.3833 7.04V14.048C76.3193 14.048 76.2553 14.048 76.1913 14.048C76.1273 14.048 76.0593 14.048 75.9873 14.048L70.8993 6.656V12.416C70.8993 12.752 70.9233 13.016 70.9713 13.208C71.0193 13.392 71.1233 13.524 71.2833 13.604C71.4433 13.684 71.6873 13.736 72.0153 13.76V14C71.8633 13.984 71.6673 13.976 71.4273 13.976C71.1953 13.968 70.9753 13.964 70.7673 13.964C70.5673 13.964 70.3673 13.968 70.1673 13.976C69.9673 13.976 69.8033 13.984 69.6753 14V13.76C69.9393 13.736 70.1393 13.688 70.2753 13.616C70.4113 13.536 70.5033 13.404 70.5513 13.22C70.5993 13.036 70.6233 12.784 70.6233 12.464V6.776C70.6233 6.48 70.5993 6.264 70.5513 6.128C70.5033 5.984 70.4113 5.888 70.2753 5.84C70.1393 5.784 69.9393 5.752 69.6753 5.744V5.504C69.8033 5.512 69.9673 5.52 70.1673 5.528C70.3673 5.536 70.5673 5.54 70.7673 5.54C70.9433 5.54 71.1153 5.536 71.2833 5.528C71.4513 5.52 71.5993 5.512 71.7273 5.504L76.1073 11.768V7.088C76.1073 6.744 76.0793 6.48 76.0233 6.296C75.9753 6.112 75.8713 5.98 75.7113 5.9C75.5513 5.812 75.3113 5.76 74.9913 5.744V5.504C75.1353 5.512 75.3273 5.52 75.5673 5.528C75.8073 5.536 76.0313 5.54 76.2393 5.54C76.4393 5.54 76.6393 5.536 76.8393 5.528C77.0393 5.52 77.2033 5.512 77.3313 5.504ZM81.4706 5.504V5.744C81.2066 5.752 81.0066 5.784 80.8706 5.84C80.7346 5.888 80.6426 5.984 80.5946 6.128C80.5466 6.264 80.5226 6.48 80.5226 6.776V12.728C80.5226 13.016 80.5466 13.232 80.5946 13.376C80.6426 13.52 80.7346 13.616 80.8706 13.664C81.0066 13.712 81.2066 13.744 81.4706 13.76V14C81.2786 13.984 81.0346 13.976 80.7386 13.976C80.4506 13.968 80.1546 13.964 79.8506 13.964C79.5146 13.964 79.1986 13.968 78.9026 13.976C78.6146 13.976 78.3786 13.984 78.1946 14V13.76C78.4666 13.744 78.6706 13.712 78.8066 13.664C78.9426 13.616 79.0306 13.52 79.0706 13.376C79.1186 13.232 79.1426 13.016 79.1426 12.728V6.776C79.1426 6.48 79.1186 6.264 79.0706 6.128C79.0306 5.984 78.9386 5.888 78.7946 5.84C78.6586 5.784 78.4586 5.752 78.1946 5.744V5.504C78.3786 5.512 78.6146 5.52 78.9026 5.528C79.1986 5.536 79.5146 5.54 79.8506 5.54C80.1546 5.54 80.4506 5.536 80.7386 5.528C81.0346 5.52 81.2786 5.512 81.4706 5.504ZM88.5336 5.504C88.5016 5.808 88.4776 6.104 88.4616 6.392C88.4536 6.672 88.4496 6.888 88.4496 7.04C88.4496 7.192 88.4536 7.336 88.4616 7.472C88.4696 7.608 88.4776 7.72 88.4856 7.808H88.2096C88.1536 7.296 88.0656 6.892 87.9456 6.596C87.8336 6.3 87.6616 6.092 87.4296 5.972C87.2056 5.844 86.8896 5.78 86.4816 5.78H85.6536C85.3976 5.78 85.2016 5.804 85.0656 5.852C84.9376 5.892 84.8496 5.98 84.8016 6.116C84.7536 6.244 84.7296 6.448 84.7296 6.728V12.776C84.7296 13.048 84.7536 13.252 84.8016 13.388C84.8496 13.524 84.9376 13.616 85.0656 13.664C85.2016 13.704 85.3976 13.724 85.6536 13.724H86.4336C86.8896 13.724 87.2496 13.652 87.5136 13.508C87.7856 13.364 87.9896 13.128 88.1256 12.8C88.2696 12.472 88.3776 12.024 88.4496 11.456H88.7256C88.7016 11.688 88.6896 11.992 88.6896 12.368C88.6896 12.528 88.6936 12.76 88.7016 13.064C88.7176 13.368 88.7416 13.68 88.7736 14C88.3656 13.984 87.9056 13.976 87.3936 13.976C86.8816 13.968 86.4256 13.964 86.0256 13.964C85.8416 13.964 85.6056 13.964 85.3176 13.964C85.0296 13.964 84.7176 13.968 84.3816 13.976C84.0536 13.976 83.7176 13.98 83.3736 13.988C83.0376 13.988 82.7136 13.992 82.4016 14V13.76C82.6736 13.744 82.8776 13.712 83.0136 13.664C83.1496 13.616 83.2376 13.52 83.2776 13.376C83.3256 13.232 83.3496 13.016 83.3496 12.728V6.776C83.3496 6.48 83.3256 6.264 83.2776 6.128C83.2376 5.984 83.1456 5.888 83.0016 5.84C82.8656 5.784 82.6656 5.752 82.4016 5.744V5.504C82.7136 5.512 83.0376 5.52 83.3736 5.528C83.7176 5.528 84.0536 5.532 84.3816 5.54C84.7176 5.54 85.0296 5.54 85.3176 5.54C85.6056 5.54 85.8416 5.54 86.0256 5.54C86.3936 5.54 86.8096 5.54 87.2736 5.54C87.7456 5.532 88.1656 5.52 88.5336 5.504ZM86.5416 9.608C86.5416 9.608 86.5416 9.648 86.5416 9.728C86.5416 9.808 86.5416 9.848 86.5416 9.848H84.3696C84.3696 9.848 84.3696 9.808 84.3696 9.728C84.3696 9.648 84.3696 9.608 84.3696 9.608H86.5416ZM86.8896 8.024C86.8576 8.48 86.8416 8.828 86.8416 9.068C86.8496 9.308 86.8536 9.528 86.8536 9.728C86.8536 9.928 86.8576 10.148 86.8656 10.388C86.8736 10.628 86.8936 10.976 86.9256 11.432H86.6496C86.6096 11.168 86.5576 10.916 86.4936 10.676C86.4296 10.428 86.3136 10.228 86.1456 10.076C85.9856 9.924 85.7336 9.848 85.3896 9.848V9.608C85.6456 9.608 85.8456 9.556 85.9896 9.452C86.1416 9.348 86.2576 9.212 86.3376 9.044C86.4176 8.876 86.4736 8.704 86.5056 8.528C86.5456 8.344 86.5816 8.176 86.6136 8.024H86.8896ZM90.7678 5.336C90.9518 5.336 91.1038 5.372 91.2238 5.444C91.3438 5.516 91.4438 5.612 91.5238 5.732C91.6118 5.86 91.6678 6.004 91.6918 6.164C91.7238 6.324 91.7398 6.468 91.7398 6.596C91.7398 6.988 91.6398 7.348 91.4398 7.676C91.2398 8.004 90.9278 8.268 90.5038 8.468L90.3958 8.252C90.6358 8.148 90.8438 7.988 91.0198 7.772C91.1958 7.556 91.2918 7.336 91.3078 7.112C91.3158 6.992 91.3078 6.88 91.2838 6.776C91.1398 6.912 90.9638 6.98 90.7558 6.98C90.5238 6.98 90.3278 6.908 90.1678 6.764C90.0078 6.62 89.9278 6.42 89.9278 6.164C89.9278 5.916 90.0078 5.716 90.1678 5.564C90.3358 5.412 90.5358 5.336 90.7678 5.336ZM95.4964 5.36C95.9204 5.36 96.2444 5.408 96.4684 5.504C96.6924 5.6 96.8884 5.704 97.0564 5.816C97.1524 5.872 97.2284 5.916 97.2844 5.948C97.3484 5.972 97.4084 5.984 97.4644 5.984C97.5444 5.984 97.6004 5.94 97.6324 5.852C97.6724 5.764 97.7044 5.632 97.7284 5.456H98.0044C97.9964 5.6 97.9844 5.772 97.9684 5.972C97.9604 6.164 97.9524 6.42 97.9444 6.74C97.9444 7.06 97.9444 7.48 97.9444 8H97.6684C97.6444 7.608 97.5564 7.228 97.4044 6.86C97.2604 6.492 97.0444 6.192 96.7564 5.96C96.4764 5.728 96.1164 5.612 95.6764 5.612C95.2684 5.612 94.9284 5.736 94.6564 5.984C94.3924 6.224 94.2604 6.544 94.2604 6.944C94.2604 7.296 94.3484 7.592 94.5244 7.832C94.7004 8.064 94.9404 8.284 95.2444 8.492C95.5564 8.692 95.9084 8.916 96.3004 9.164C96.7004 9.42 97.0604 9.676 97.3804 9.932C97.7004 10.18 97.9524 10.456 98.1364 10.76C98.3204 11.064 98.4124 11.432 98.4124 11.864C98.4124 12.384 98.2884 12.816 98.0404 13.16C97.8004 13.496 97.4764 13.748 97.0684 13.916C96.6604 14.084 96.2124 14.168 95.7244 14.168C95.2764 14.168 94.9204 14.12 94.6564 14.024C94.3924 13.928 94.1684 13.828 93.9844 13.724C93.8084 13.612 93.6724 13.556 93.5764 13.556C93.4964 13.556 93.4364 13.6 93.3964 13.688C93.3644 13.776 93.3364 13.908 93.3124 14.084H93.0364C93.0524 13.908 93.0604 13.704 93.0604 13.472C93.0684 13.232 93.0724 12.92 93.0724 12.536C93.0804 12.152 93.0844 11.668 93.0844 11.084H93.3604C93.3924 11.58 93.4804 12.044 93.6244 12.476C93.7764 12.908 94.0044 13.256 94.3084 13.52C94.6204 13.776 95.0324 13.904 95.5444 13.904C95.8164 13.904 96.0684 13.852 96.3004 13.748C96.5324 13.644 96.7204 13.48 96.8644 13.256C97.0084 13.032 97.0804 12.744 97.0804 12.392C97.0804 12.064 97.0004 11.776 96.8404 11.528C96.6884 11.28 96.4724 11.052 96.1924 10.844C95.9204 10.628 95.6004 10.408 95.2324 10.184C94.8564 9.944 94.5044 9.704 94.1764 9.464C93.8484 9.224 93.5844 8.944 93.3844 8.624C93.1924 8.304 93.0964 7.924 93.0964 7.484C93.0964 6.996 93.2084 6.596 93.4324 6.284C93.6644 5.972 93.9604 5.74 94.3204 5.588C94.6884 5.436 95.0804 5.36 95.4964 5.36ZM47.888 23.504C49.368 23.504 50.468 23.864 51.188 24.584C51.908 25.296 52.268 26.32 52.268 27.656C52.268 28.528 52.092 29.292 51.74 29.948C51.388 30.596 50.876 31.1 50.204 31.46C49.54 31.82 48.732 32 47.78 32C47.66 32 47.496 31.996 47.288 31.988C47.088 31.98 46.88 31.976 46.664 31.976C46.448 31.968 46.252 31.964 46.076 31.964C45.772 31.964 45.472 31.968 45.176 31.976C44.888 31.976 44.652 31.984 44.468 32V31.76C44.74 31.744 44.944 31.712 45.08 31.664C45.216 31.616 45.304 31.52 45.344 31.376C45.392 31.232 45.416 31.016 45.416 30.728V24.776C45.416 24.48 45.392 24.264 45.344 24.128C45.304 23.984 45.212 23.888 45.068 23.84C44.932 23.784 44.732 23.752 44.468 23.744V23.504C44.652 23.512 44.888 23.524 45.176 23.54C45.472 23.548 45.764 23.548 46.052 23.54C46.34 23.532 46.66 23.524 47.012 23.516C47.372 23.508 47.664 23.504 47.888 23.504ZM47.684 23.72C47.316 23.72 47.076 23.788 46.964 23.924C46.852 24.06 46.796 24.336 46.796 24.752V30.752C46.796 31.168 46.852 31.444 46.964 31.58C47.084 31.716 47.328 31.784 47.696 31.784C48.504 31.784 49.132 31.628 49.58 31.316C50.028 30.996 50.344 30.532 50.528 29.924C50.712 29.316 50.804 28.576 50.804 27.704C50.804 26.808 50.704 26.068 50.504 25.484C50.304 24.892 49.976 24.452 49.52 24.164C49.072 23.868 48.46 23.72 47.684 23.72ZM56.6576 23.456L59.5856 30.992C59.6976 31.288 59.8256 31.488 59.9696 31.592C60.1216 31.696 60.2616 31.752 60.3896 31.76V32C60.1976 31.984 59.9696 31.976 59.7056 31.976C59.4496 31.968 59.1896 31.964 58.9256 31.964C58.5896 31.964 58.2776 31.968 57.9896 31.976C57.7016 31.976 57.4696 31.984 57.2936 32V31.76C57.7016 31.744 57.9576 31.676 58.0616 31.556C58.1736 31.428 58.1496 31.16 57.9896 30.752L55.8296 24.92L56.0216 24.704L54.0296 29.912C53.8856 30.272 53.7976 30.572 53.7656 30.812C53.7416 31.052 53.7616 31.24 53.8256 31.376C53.8976 31.512 54.0176 31.608 54.1856 31.664C54.3536 31.72 54.5616 31.752 54.8096 31.76V32C54.5696 31.984 54.3256 31.976 54.0776 31.976C53.8376 31.968 53.6096 31.964 53.3936 31.964C53.2016 31.964 53.0296 31.968 52.8776 31.976C52.7336 31.976 52.6016 31.984 52.4816 32V31.76C52.6496 31.72 52.8176 31.62 52.9856 31.46C53.1536 31.3 53.3136 31.028 53.4656 30.644L56.2496 23.456C56.3136 23.456 56.3816 23.456 56.4536 23.456C56.5256 23.456 56.5936 23.456 56.6576 23.456ZM57.9176 28.544V28.784H54.3416L54.4616 28.544H57.9176ZM68.2024 23.504V23.744C67.9304 23.76 67.7264 23.808 67.5904 23.888C67.4544 23.968 67.3624 24.1 67.3144 24.284C67.2744 24.46 67.2544 24.712 67.2544 25.04V32.048C67.1904 32.048 67.1264 32.048 67.0624 32.048C66.9984 32.048 66.9304 32.048 66.8584 32.048L61.7704 24.656V30.416C61.7704 30.752 61.7944 31.016 61.8424 31.208C61.8904 31.392 61.9944 31.524 62.1544 31.604C62.3144 31.684 62.5584 31.736 62.8864 31.76V32C62.7344 31.984 62.5384 31.976 62.2984 31.976C62.0664 31.968 61.8464 31.964 61.6384 31.964C61.4384 31.964 61.2384 31.968 61.0384 31.976C60.8384 31.976 60.6744 31.984 60.5464 32V31.76C60.8104 31.736 61.0104 31.688 61.1464 31.616C61.2824 31.536 61.3744 31.404 61.4224 31.22C61.4704 31.036 61.4944 30.784 61.4944 30.464V24.776C61.4944 24.48 61.4704 24.264 61.4224 24.128C61.3744 23.984 61.2824 23.888 61.1464 23.84C61.0104 23.784 60.8104 23.752 60.5464 23.744V23.504C60.6744 23.512 60.8384 23.52 61.0384 23.528C61.2384 23.536 61.4384 23.54 61.6384 23.54C61.8144 23.54 61.9864 23.536 62.1544 23.528C62.3224 23.52 62.4704 23.512 62.5984 23.504L66.9784 29.768V25.088C66.9784 24.744 66.9504 24.48 66.8944 24.296C66.8464 24.112 66.7424 23.98 66.5824 23.9C66.4224 23.812 66.1824 23.76 65.8624 23.744V23.504C66.0064 23.512 66.1984 23.52 66.4384 23.528C66.6784 23.536 66.9024 23.54 67.1104 23.54C67.3104 23.54 67.5104 23.536 67.7104 23.528C67.9104 23.52 68.0744 23.512 68.2024 23.504ZM73.0756 23.336C73.6036 23.336 74.0356 23.416 74.3716 23.576C74.7156 23.728 75.0196 23.908 75.2836 24.116C75.4436 24.236 75.5636 24.252 75.6436 24.164C75.7316 24.068 75.7916 23.848 75.8236 23.504H76.0996C76.0836 23.808 76.0716 24.176 76.0636 24.608C76.0556 25.032 76.0516 25.6 76.0516 26.312H75.7756C75.7196 25.96 75.6636 25.672 75.6076 25.448C75.5596 25.224 75.4916 25.032 75.4036 24.872C75.3236 24.712 75.2116 24.556 75.0676 24.404C74.8356 24.116 74.5516 23.908 74.2156 23.78C73.8796 23.652 73.5236 23.588 73.1476 23.588C72.7396 23.588 72.3796 23.692 72.0676 23.9C71.7556 24.1 71.4916 24.388 71.2756 24.764C71.0676 25.14 70.9076 25.584 70.7956 26.096C70.6836 26.608 70.6276 27.168 70.6276 27.776C70.6276 28.4 70.6876 28.968 70.8076 29.48C70.9276 29.984 71.0996 30.42 71.3236 30.788C71.5556 31.148 71.8316 31.428 72.1516 31.628C72.4796 31.82 72.8436 31.916 73.2436 31.916C73.5716 31.916 73.9116 31.852 74.2636 31.724C74.6156 31.588 74.8956 31.384 75.1036 31.112C75.3276 30.872 75.4796 30.604 75.5596 30.308C75.6476 30.004 75.7196 29.592 75.7756 29.072H76.0516C76.0516 29.808 76.0556 30.404 76.0636 30.86C76.0716 31.308 76.0836 31.688 76.0996 32H75.8236C75.7916 31.656 75.7356 31.44 75.6556 31.352C75.5836 31.264 75.4596 31.276 75.2836 31.388C74.9876 31.596 74.6716 31.78 74.3356 31.94C74.0076 32.092 73.5836 32.168 73.0636 32.168C72.2716 32.168 71.5796 31.996 70.9876 31.652C70.3956 31.308 69.9356 30.812 69.6076 30.164C69.2796 29.516 69.1156 28.736 69.1156 27.824C69.1156 26.928 69.2836 26.144 69.6196 25.472C69.9636 24.8 70.4316 24.276 71.0236 23.9C71.6156 23.524 72.2996 23.336 73.0756 23.336ZM83.4477 23.504C83.4157 23.808 83.3917 24.104 83.3757 24.392C83.3677 24.672 83.3637 24.888 83.3637 25.04C83.3637 25.192 83.3677 25.336 83.3757 25.472C83.3837 25.608 83.3917 25.72 83.3997 25.808H83.1237C83.0677 25.296 82.9797 24.892 82.8597 24.596C82.7477 24.3 82.5757 24.092 82.3437 23.972C82.1197 23.844 81.8037 23.78 81.3957 23.78H80.5677C80.3117 23.78 80.1157 23.804 79.9797 23.852C79.8517 23.892 79.7637 23.98 79.7157 24.116C79.6677 24.244 79.6437 24.448 79.6437 24.728V30.776C79.6437 31.048 79.6677 31.252 79.7157 31.388C79.7637 31.524 79.8517 31.616 79.9797 31.664C80.1157 31.704 80.3117 31.724 80.5677 31.724H81.3477C81.8037 31.724 82.1637 31.652 82.4277 31.508C82.6997 31.364 82.9037 31.128 83.0397 30.8C83.1837 30.472 83.2917 30.024 83.3637 29.456H83.6397C83.6157 29.688 83.6037 29.992 83.6037 30.368C83.6037 30.528 83.6077 30.76 83.6157 31.064C83.6317 31.368 83.6557 31.68 83.6877 32C83.2797 31.984 82.8197 31.976 82.3077 31.976C81.7957 31.968 81.3397 31.964 80.9397 31.964C80.7557 31.964 80.5197 31.964 80.2317 31.964C79.9437 31.964 79.6317 31.968 79.2957 31.976C78.9677 31.976 78.6317 31.98 78.2877 31.988C77.9517 31.988 77.6277 31.992 77.3157 32V31.76C77.5877 31.744 77.7917 31.712 77.9277 31.664C78.0637 31.616 78.1517 31.52 78.1917 31.376C78.2397 31.232 78.2637 31.016 78.2637 30.728V24.776C78.2637 24.48 78.2397 24.264 78.1917 24.128C78.1517 23.984 78.0597 23.888 77.9157 23.84C77.7797 23.784 77.5797 23.752 77.3157 23.744V23.504C77.6277 23.512 77.9517 23.52 78.2877 23.528C78.6317 23.528 78.9677 23.532 79.2957 23.54C79.6317 23.54 79.9437 23.54 80.2317 23.54C80.5197 23.54 80.7557 23.54 80.9397 23.54C81.3077 23.54 81.7237 23.54 82.1877 23.54C82.6597 23.532 83.0797 23.52 83.4477 23.504ZM81.4557 27.608C81.4557 27.608 81.4557 27.648 81.4557 27.728C81.4557 27.808 81.4557 27.848 81.4557 27.848H79.2837C79.2837 27.848 79.2837 27.808 79.2837 27.728C79.2837 27.648 79.2837 27.608 79.2837 27.608H81.4557ZM81.8037 26.024C81.7717 26.48 81.7557 26.828 81.7557 27.068C81.7637 27.308 81.7677 27.528 81.7677 27.728C81.7677 27.928 81.7717 28.148 81.7797 28.388C81.7877 28.628 81.8077 28.976 81.8397 29.432H81.5637C81.5237 29.168 81.4717 28.916 81.4077 28.676C81.3437 28.428 81.2277 28.228 81.0597 28.076C80.8997 27.924 80.6477 27.848 80.3037 27.848V27.608C80.5597 27.608 80.7597 27.556 80.9037 27.452C81.0557 27.348 81.1717 27.212 81.2517 27.044C81.3317 26.876 81.3877 26.704 81.4197 26.528C81.4597 26.344 81.4957 26.176 81.5277 26.024H81.8037ZM90.3636 23.36C90.7876 23.36 91.1116 23.408 91.3356 23.504C91.5596 23.6 91.7556 23.704 91.9236 23.816C92.0196 23.872 92.0956 23.916 92.1516 23.948C92.2156 23.972 92.2756 23.984 92.3316 23.984C92.4116 23.984 92.4676 23.94 92.4996 23.852C92.5396 23.764 92.5716 23.632 92.5956 23.456H92.8716C92.8636 23.6 92.8516 23.772 92.8356 23.972C92.8276 24.164 92.8196 24.42 92.8116 24.74C92.8116 25.06 92.8116 25.48 92.8116 26H92.5356C92.5116 25.608 92.4236 25.228 92.2716 24.86C92.1276 24.492 91.9116 24.192 91.6236 23.96C91.3436 23.728 90.9836 23.612 90.5436 23.612C90.1356 23.612 89.7956 23.736 89.5236 23.984C89.2596 24.224 89.1276 24.544 89.1276 24.944C89.1276 25.296 89.2156 25.592 89.3916 25.832C89.5676 26.064 89.8076 26.284 90.1116 26.492C90.4236 26.692 90.7756 26.916 91.1676 27.164C91.5676 27.42 91.9276 27.676 92.2476 27.932C92.5676 28.18 92.8196 28.456 93.0036 28.76C93.1876 29.064 93.2796 29.432 93.2796 29.864C93.2796 30.384 93.1556 30.816 92.9076 31.16C92.6676 31.496 92.3436 31.748 91.9356 31.916C91.5276 32.084 91.0796 32.168 90.5916 32.168C90.1436 32.168 89.7876 32.12 89.5236 32.024C89.2596 31.928 89.0356 31.828 88.8516 31.724C88.6756 31.612 88.5396 31.556 88.4436 31.556C88.3636 31.556 88.3036 31.6 88.2636 31.688C88.2316 31.776 88.2036 31.908 88.1796 32.084H87.9036C87.9196 31.908 87.9276 31.704 87.9276 31.472C87.9356 31.232 87.9396 30.92 87.9396 30.536C87.9476 30.152 87.9516 29.668 87.9516 29.084H88.2276C88.2596 29.58 88.3476 30.044 88.4916 30.476C88.6436 30.908 88.8716 31.256 89.1756 31.52C89.4876 31.776 89.8996 31.904 90.4116 31.904C90.6836 31.904 90.9356 31.852 91.1676 31.748C91.3996 31.644 91.5876 31.48 91.7316 31.256C91.8756 31.032 91.9476 30.744 91.9476 30.392C91.9476 30.064 91.8676 29.776 91.7076 29.528C91.5556 29.28 91.3396 29.052 91.0596 28.844C90.7876 28.628 90.4676 28.408 90.0996 28.184C89.7236 27.944 89.3716 27.704 89.0436 27.464C88.7156 27.224 88.4516 26.944 88.2516 26.624C88.0596 26.304 87.9636 25.924 87.9636 25.484C87.9636 24.996 88.0756 24.596 88.2996 24.284C88.5316 23.972 88.8276 23.74 89.1876 23.588C89.5556 23.436 89.9476 23.36 90.3636 23.36ZM98.3998 23.336C98.9278 23.336 99.3598 23.416 99.6958 23.576C100.04 23.728 100.344 23.908 100.608 24.116C100.768 24.236 100.888 24.252 100.968 24.164C101.056 24.068 101.116 23.848 101.148 23.504H101.424C101.408 23.808 101.396 24.176 101.388 24.608C101.38 25.032 101.376 25.6 101.376 26.312H101.1C101.044 25.96 100.988 25.672 100.932 25.448C100.884 25.224 100.816 25.032 100.728 24.872C100.648 24.712 100.536 24.556 100.392 24.404C100.16 24.116 99.8758 23.908 99.5398 23.78C99.2038 23.652 98.8478 23.588 98.4718 23.588C98.0638 23.588 97.7038 23.692 97.3918 23.9C97.0798 24.1 96.8158 24.388 96.5998 24.764C96.3918 25.14 96.2318 25.584 96.1198 26.096C96.0078 26.608 95.9518 27.168 95.9518 27.776C95.9518 28.4 96.0118 28.968 96.1318 29.48C96.2518 29.984 96.4238 30.42 96.6478 30.788C96.8798 31.148 97.1558 31.428 97.4758 31.628C97.8038 31.82 98.1678 31.916 98.5678 31.916C98.8958 31.916 99.2358 31.852 99.5878 31.724C99.9398 31.588 100.22 31.384 100.428 31.112C100.652 30.872 100.804 30.604 100.884 30.308C100.972 30.004 101.044 29.592 101.1 29.072H101.376C101.376 29.808 101.38 30.404 101.388 30.86C101.396 31.308 101.408 31.688 101.424 32H101.148C101.116 31.656 101.06 31.44 100.98 31.352C100.908 31.264 100.784 31.276 100.608 31.388C100.312 31.596 99.9958 31.78 99.6598 31.94C99.3318 32.092 98.9078 32.168 98.3878 32.168C97.5958 32.168 96.9038 31.996 96.3118 31.652C95.7198 31.308 95.2598 30.812 94.9318 30.164C94.6038 29.516 94.4398 28.736 94.4398 27.824C94.4398 26.928 94.6078 26.144 94.9438 25.472C95.2878 24.8 95.7558 24.276 96.3478 23.9C96.9398 23.524 97.6238 23.336 98.3998 23.336ZM107.68 32V31.76C107.952 31.744 108.156 31.712 108.292 31.664C108.428 31.616 108.516 31.52 108.556 31.376C108.604 31.232 108.628 31.016 108.628 30.728V24.776C108.628 24.48 108.604 24.264 108.556 24.128C108.516 23.984 108.424 23.888 108.28 23.84C108.144 23.784 107.944 23.752 107.68 23.744V23.504C107.88 23.512 108.128 23.52 108.424 23.528C108.728 23.536 109.028 23.54 109.324 23.54C109.66 23.54 109.972 23.536 110.26 23.528C110.548 23.52 110.78 23.512 110.956 23.504V23.744C110.692 23.752 110.492 23.784 110.356 23.84C110.22 23.888 110.128 23.984 110.08 24.128C110.032 24.264 110.008 24.48 110.008 24.776V30.728C110.008 31.016 110.032 31.232 110.08 31.376C110.128 31.52 110.22 31.616 110.356 31.664C110.492 31.712 110.692 31.744 110.956 31.76V32C110.78 31.984 110.548 31.976 110.26 31.976C109.972 31.968 109.66 31.964 109.324 31.964C109.028 31.964 108.728 31.968 108.424 31.976C108.128 31.976 107.88 31.984 107.68 32ZM102.64 32V31.76C102.912 31.744 103.116 31.712 103.252 31.664C103.388 31.616 103.476 31.52 103.516 31.376C103.564 31.232 103.588 31.016 103.588 30.728V24.776C103.588 24.48 103.564 24.264 103.516 24.128C103.476 23.984 103.384 23.888 103.24 23.84C103.104 23.784 102.904 23.752 102.64 23.744V23.504C102.824 23.512 103.06 23.52 103.348 23.528C103.644 23.536 103.96 23.54 104.296 23.54C104.6 23.54 104.896 23.536 105.184 23.528C105.48 23.52 105.724 23.512 105.916 23.504V23.744C105.652 23.752 105.452 23.784 105.316 23.84C105.18 23.888 105.088 23.984 105.04 24.128C104.992 24.264 104.968 24.48 104.968 24.776V30.728C104.968 31.016 104.992 31.232 105.04 31.376C105.088 31.52 105.18 31.616 105.316 31.664C105.452 31.712 105.652 31.744 105.916 31.76V32C105.724 31.984 105.48 31.976 105.184 31.976C104.896 31.968 104.6 31.964 104.296 31.964C103.96 31.964 103.644 31.968 103.348 31.976C103.06 31.976 102.824 31.984 102.64 32ZM104.428 27.848V27.608H109.168V27.848H104.428ZM115.896 23.336C116.68 23.336 117.368 23.508 117.96 23.852C118.56 24.196 119.024 24.692 119.352 25.34C119.68 25.98 119.844 26.76 119.844 27.68C119.844 28.576 119.676 29.36 119.34 30.032C119.004 30.704 118.536 31.228 117.936 31.604C117.336 31.98 116.652 32.168 115.884 32.168C115.092 32.168 114.4 31.996 113.808 31.652C113.216 31.308 112.756 30.812 112.428 30.164C112.1 29.516 111.936 28.736 111.936 27.824C111.936 26.928 112.104 26.144 112.44 25.472C112.784 24.8 113.252 24.276 113.844 23.9C114.436 23.524 115.12 23.336 115.896 23.336ZM115.848 23.552C115.352 23.552 114.92 23.732 114.552 24.092C114.184 24.452 113.9 24.948 113.7 25.58C113.5 26.212 113.4 26.944 113.4 27.776C113.4 28.624 113.512 29.364 113.736 29.996C113.96 30.62 114.264 31.104 114.648 31.448C115.032 31.784 115.46 31.952 115.932 31.952C116.428 31.952 116.856 31.772 117.216 31.412C117.584 31.052 117.868 30.556 118.068 29.924C118.276 29.284 118.38 28.552 118.38 27.728C118.38 26.872 118.264 26.132 118.032 25.508C117.808 24.884 117.504 24.404 117.12 24.068C116.744 23.724 116.32 23.552 115.848 23.552ZM124.99 23.336C125.774 23.336 126.462 23.508 127.054 23.852C127.654 24.196 128.118 24.692 128.446 25.34C128.774 25.98 128.938 26.76 128.938 27.68C128.938 28.576 128.77 29.36 128.434 30.032C128.098 30.704 127.63 31.228 127.03 31.604C126.43 31.98 125.746 32.168 124.978 32.168C124.186 32.168 123.494 31.996 122.902 31.652C122.31 31.308 121.85 30.812 121.522 30.164C121.194 29.516 121.03 28.736 121.03 27.824C121.03 26.928 121.198 26.144 121.534 25.472C121.878 24.8 122.346 24.276 122.938 23.9C123.53 23.524 124.214 23.336 124.99 23.336ZM124.942 23.552C124.446 23.552 124.014 23.732 123.646 24.092C123.278 24.452 122.994 24.948 122.794 25.58C122.594 26.212 122.494 26.944 122.494 27.776C122.494 28.624 122.606 29.364 122.83 29.996C123.054 30.62 123.358 31.104 123.742 31.448C124.126 31.784 124.554 31.952 125.026 31.952C125.522 31.952 125.95 31.772 126.31 31.412C126.678 31.052 126.962 30.556 127.162 29.924C127.37 29.284 127.474 28.552 127.474 27.728C127.474 26.872 127.358 26.132 127.126 25.508C126.902 24.884 126.598 24.404 126.214 24.068C125.838 23.724 125.414 23.552 124.942 23.552ZM133.198 23.504V23.744C132.926 23.752 132.718 23.784 132.574 23.84C132.438 23.888 132.346 23.984 132.298 24.128C132.25 24.264 132.226 24.48 132.226 24.776V30.776C132.226 31.048 132.246 31.252 132.286 31.388C132.334 31.524 132.422 31.616 132.55 31.664C132.686 31.704 132.878 31.724 133.126 31.724H133.906C134.25 31.724 134.538 31.676 134.77 31.58C135.01 31.484 135.21 31.34 135.37 31.148C135.53 30.956 135.654 30.708 135.742 30.404C135.83 30.1 135.898 29.744 135.946 29.336H136.222C136.198 29.592 136.186 29.928 136.186 30.344C136.186 30.504 136.19 30.74 136.198 31.052C136.214 31.356 136.238 31.672 136.27 32C135.862 31.984 135.402 31.976 134.89 31.976C134.378 31.968 133.922 31.964 133.522 31.964C133.338 31.964 133.102 31.964 132.814 31.964C132.526 31.964 132.214 31.968 131.878 31.976C131.55 31.976 131.214 31.98 130.87 31.988C130.534 31.988 130.21 31.992 129.898 32V31.76C130.17 31.744 130.374 31.712 130.51 31.664C130.646 31.616 130.734 31.52 130.774 31.376C130.822 31.232 130.846 31.016 130.846 30.728V24.776C130.846 24.48 130.822 24.264 130.774 24.128C130.734 23.984 130.642 23.888 130.498 23.84C130.362 23.784 130.162 23.752 129.898 23.744V23.504C130.082 23.512 130.318 23.52 130.606 23.528C130.902 23.536 131.218 23.54 131.554 23.54C131.858 23.54 132.158 23.536 132.454 23.528C132.758 23.52 133.006 23.512 133.198 23.504Z" fill="white"/>
</svg>
