<svg width="146" height="36" viewBox="0 0 146 36" fill="none" xmlns="http://www.w3.org/2000/svg">
<g clip-path="url(#clip0_2962_160)">
<path d="M29.9719 13.6453C29.9719 10.1899 31.7437 8.51562 35.394 8.51562H41.293C44.9433 8.51562 46.7151 10.1899 46.7151 13.6453V14.0218L43.6131 14.2966V14.0931C43.6131 11.971 42.6232 11.0499 40.3031 11.0499H36.3484C34.0283 11.0499 33.0737 11.971 33.0737 14.1592V22.9121C33.0737 25.1004 34.0283 26.0215 36.3484 26.0215H40.3031C42.6232 26.0215 43.6131 25.1004 43.6131 22.9784V22.7748L46.7151 23.0496V23.4261C46.7151 26.8815 44.9433 28.5559 41.293 28.5559H35.394C31.7437 28.5559 29.9719 26.8815 29.9719 23.4261V13.6453Z" fill="white"/>
<path d="M117.18 13.6453C117.18 10.1899 118.952 8.51562 122.602 8.51562H128.502C132.152 8.51562 133.924 10.1899 133.924 13.6453V14.0218L130.822 14.2966V14.0931C130.822 11.971 129.832 11.0499 127.512 11.0499H123.557C121.237 11.0499 120.282 11.971 120.282 14.1592V22.9121C120.282 25.1004 121.237 26.0215 123.557 26.0215H127.512C129.832 26.0215 130.822 25.1004 130.822 22.9784V22.7748L133.924 23.0496V23.4261C133.924 26.8815 132.152 28.5559 128.502 28.5559H122.602C118.952 28.5559 117.18 26.8815 117.18 23.4261V13.6453Z" fill="white"/>
<path d="M83.8976 11.0421C81.5775 11.0421 80.5873 11.9632 80.5873 14.1514V28.2019H77.4856V13.6374C77.4856 10.1821 79.2574 8.50781 82.9074 8.50781H88.1214C91.7717 8.50781 93.5432 10.1821 93.5432 13.6374V28.2019H90.4415V14.1514C90.4415 11.9632 89.4514 11.0421 87.1313 11.0421H83.8976Z" fill="white"/>
<path d="M25.2656 25.3345V27.8637H18.9501C17.9195 27.8637 17.0819 27.0241 17.0819 25.991V12.2865C17.0819 11.5995 16.5285 11.0448 15.8431 11.0448H12V8.51562H18.945C19.6304 8.51562 20.1838 9.07031 20.1838 9.75731V24.0928C20.1838 24.7797 20.7371 25.3345 21.4225 25.3345H25.2656Z" fill="white"/>
<path d="M16.2849 4.1239V3.78295C16.2849 2.58704 16.8332 2.24609 18.4679 2.24609H18.5339C20.1686 2.24609 20.7169 2.58704 20.7169 3.78295V4.1239C20.7169 5.3198 20.1737 5.66076 18.5339 5.66076H18.4679C16.8332 5.66076 16.2849 5.3198 16.2849 4.1239Z" fill="white"/>
<path d="M99.2036 11.6854V9.15625H105.519C106.55 9.15625 107.387 9.99592 107.387 11.029V24.7334C107.387 25.4205 107.941 25.9751 108.626 25.9751H112.469V28.5043H105.524C104.839 28.5043 104.285 27.9497 104.285 27.2626V12.9271C104.285 12.2401 103.732 11.6854 103.047 11.6854H99.2036Z" fill="white"/>
<path d="M107.885 33.2361V33.5771C107.885 34.773 107.337 35.114 105.702 35.114H105.636C104.001 35.114 103.453 34.773 103.453 33.5771V33.2361C103.453 32.0403 103.996 31.6992 105.636 31.6992H105.702C107.337 31.6992 107.885 32.0403 107.885 33.2361Z" fill="white"/>
<path d="M65.0676 1.82246V13.471C65.0676 14.4074 64.6664 15.303 63.9608 15.9239L58.7063 20.5497C58.0007 21.1705 57.5996 22.061 57.5996 23.0025V28.7123L56.1526 28.3815C54.65 28.0406 53.4772 26.8396 53.198 25.3179C53.1777 25.2163 53.1675 25.1398 53.1675 25.089V12.8196C53.1675 10.9113 54.0254 9.10979 55.4977 7.90373L63.7272 1.18635C64.2653 0.748704 65.0726 1.13038 65.0726 1.82756L65.0676 1.82246Z" fill="white"/>
<path d="M58.4169 35.1008V23.4523C58.4169 22.5158 58.818 21.6202 59.5236 20.9994L64.7781 16.3735C65.4837 15.7527 65.8848 14.8621 65.8848 13.9207V8.21094L67.3316 8.54171C68.8344 8.88267 70.0071 10.0836 70.2864 11.6052C70.3066 11.707 70.3167 11.7834 70.3167 11.8342V24.1035C70.3167 26.0119 69.4588 27.8135 67.9865 29.0196L59.7572 35.7369C59.2189 36.1746 58.4119 35.7929 58.4119 35.0956L58.4169 35.1008Z" fill="white"/>
</g>
<defs>
<clipPath id="clip0_2962_160">
<rect width="122" height="35" fill="white" transform="translate(12 1)"/>
</clipPath>
</defs>
</svg>
