<svg width="146" height="36" viewBox="0 0 146 36" fill="none" xmlns="http://www.w3.org/2000/svg">
<path d="M23.9474 13.1495C23.9474 12.0449 23.052 11.1495 21.9474 11.1495H19.9844C18.8716 11.1495 17.8432 11.7328 17.2868 12.6798L14.7201 17.0479C14.1636 17.9949 14.1636 19.1616 14.7201 20.1086L17.2868 24.4767C17.8432 25.4237 18.8716 26.007 19.9844 26.007H21.9474C23.052 26.007 23.9474 25.1116 23.9474 24.007V13.1495Z" fill="white"/>
<path fill-rule="evenodd" clip-rule="evenodd" d="M12.804 7.06065C13.9169 5.16671 15.9736 4 18.1993 4H28.138C30.3638 4 32.4205 5.16671 33.5333 7.06065L38.5027 15.5177C39.6156 17.4116 39.6156 19.745 38.5027 21.639L33.5333 30.096C32.4205 31.9899 30.3638 33.1566 28.138 33.1566H18.1993C15.9736 33.1566 13.9169 31.9899 12.804 30.096L7.83466 21.639C6.72178 19.745 6.72178 17.4116 7.83466 15.5177L12.804 7.06065ZM18.1993 7.06065H28.138C29.2509 7.06065 30.2792 7.64401 30.8357 8.59098L35.805 17.048C36.3615 17.995 36.3615 19.1617 35.805 20.1086L30.8357 28.5657C30.2792 29.5126 29.2509 30.096 28.138 30.096H18.1993C17.0864 30.096 16.0581 29.5126 15.5017 28.5657L10.5323 20.1086C9.97588 19.1617 9.97588 17.995 10.5323 17.048L15.5017 8.59098C16.0581 7.64401 17.0864 7.06065 18.1993 7.06065Z" fill="white"/>
<path d="M23.9474 13.1495C23.9474 12.0449 23.052 11.1495 21.9474 11.1495H19.9844C18.8716 11.1495 17.8432 11.7328 17.2868 12.6798L14.7201 17.0479C14.1636 17.9949 14.1636 19.1616 14.7201 20.1086L17.2868 24.4767C17.8432 25.4237 18.8716 26.007 19.9844 26.007H21.9474C23.052 26.007 23.9474 25.1116 23.9474 24.007V13.1495Z" fill="white"/>
<path d="M59.2454 30.5027C56.8986 30.5027 54.9094 30.0562 53.2777 29.1632C51.6685 28.2703 50.4392 26.9193 49.5898 25.1104C48.7629 23.3016 48.3494 21.0347 48.3494 18.31C48.3494 14.2343 49.3105 11.1889 51.2326 9.17397C53.1548 7.13611 55.8481 6.11719 59.3125 6.11719C61.3017 6.11719 63.0451 6.4492 64.5426 7.11322C66.0625 7.75434 67.2471 8.72747 68.0964 10.0326C68.9681 11.3149 69.4039 12.952 69.4039 14.9441H66.7218C66.7218 13.4557 66.4201 12.2422 65.8166 11.3034C65.2131 10.3417 64.3526 9.63191 63.2351 9.17397C62.1399 8.69312 60.8212 8.4527 59.279 8.4527C57.625 8.4527 56.1834 8.78471 54.9541 9.44873C53.7248 10.1128 52.7748 11.1546 52.1043 12.5742C51.4338 13.9709 51.0985 15.8027 51.0985 18.0695V18.7908C51.0985 21.0118 51.4338 22.8093 52.1043 24.1831C52.7748 25.5569 53.7248 26.5644 54.9541 27.2055C56.1834 27.8467 57.6362 28.1672 59.3125 28.1672C60.8547 28.1672 62.1846 27.9382 63.3021 27.4803C64.4197 26.9995 65.2802 26.2896 65.8837 25.3509C66.4871 24.3892 66.7889 23.1642 66.7889 21.6759H69.4039C69.4039 23.6908 68.9569 25.3509 68.0629 26.656C67.1912 27.9611 65.9954 28.9343 64.4756 29.5754C62.9557 30.1936 61.2123 30.5027 59.2454 30.5027Z" fill="white"/>
<path d="M82.9963 30.5027C80.6271 30.5027 78.5819 30.0562 76.8609 29.1632C75.1623 28.2474 73.8547 26.885 72.9383 25.0761C72.022 23.2672 71.5638 21.0118 71.5638 18.31C71.5638 15.5852 72.022 13.3298 72.9383 11.5438C73.8547 9.73495 75.1623 8.38401 76.8609 7.49102C78.5819 6.57513 80.6271 6.11719 82.9963 6.11719C85.3878 6.11719 87.4329 6.57513 89.1316 7.49102C90.8526 8.38401 92.1601 9.73495 93.0542 11.5438C93.9706 13.3298 94.4287 15.5852 94.4287 18.31C94.4287 21.0118 93.9706 23.2672 93.0542 25.0761C92.1601 26.885 90.8526 28.2474 89.1316 29.1632C87.4329 30.0562 85.3878 30.5027 82.9963 30.5027ZM82.9963 28.1672C84.315 28.1672 85.5107 27.9955 86.5836 27.652C87.6564 27.2857 88.5728 26.7132 89.3327 25.9347C90.0927 25.1562 90.6738 24.1716 91.0761 22.981C91.5008 21.7903 91.7131 20.3593 91.7131 18.6878V17.9665C91.7131 16.2721 91.5008 14.8296 91.0761 13.6389C90.6738 12.4483 90.0927 11.4637 89.3327 10.6852C88.5728 9.90668 87.6564 9.3457 86.5836 9.00224C85.5107 8.63588 84.315 8.4527 82.9963 8.4527C81.6775 8.4527 80.4818 8.63588 79.4089 9.00224C78.3584 9.3457 77.4532 9.90668 76.6933 10.6852C75.9334 11.4637 75.3411 12.4483 74.9164 13.6389C74.5141 14.8296 74.3129 16.2721 74.3129 17.9665V18.6878C74.3129 20.3593 74.5141 21.7903 74.9164 22.981C75.3411 24.1716 75.9334 25.1562 76.6933 25.9347C77.4532 26.7132 78.3584 27.2857 79.4089 27.652C80.4818 27.9955 81.6775 28.1672 82.9963 28.1672Z" fill="white"/>
<path d="M97.9831 30.0906V6.52934H110.053C111.572 6.52934 112.824 6.827 113.808 7.42233C114.813 7.99476 115.562 8.78471 116.054 9.79219C116.568 10.7997 116.825 11.9445 116.825 13.2268C116.825 14.8983 116.445 16.3179 115.685 17.4857C114.947 18.6305 113.964 19.4434 112.735 19.9242L117.63 30.0906H114.713L110.12 20.4051H100.632V30.0906H97.9831ZM100.632 18.0695H109.784C111.148 18.0695 112.221 17.6459 113.003 16.7987C113.785 15.9286 114.176 14.738 114.176 13.2268C114.176 12.3109 114.009 11.5324 113.673 10.8913C113.338 10.2501 112.846 9.75785 112.198 9.41439C111.55 9.04803 110.745 8.86485 109.784 8.86485H100.632V18.0695Z" fill="white"/>
<path d="M121.197 30.0906V6.52934H138.799V8.86485H123.846V16.8331H137.324V19.2029H123.846V27.7551H139V30.0906H121.197Z" fill="white"/>
</svg>
