<svg width="146" height="36" viewBox="0 0 146 36" fill="none" xmlns="http://www.w3.org/2000/svg">
<path d="M29.607 22.4444L33.3065 13.2978H35.8849L39.5844 22.4444H37.3283L36.6416 20.6444H32.4517L31.765 22.4444H29.607ZM33.0543 19.0444H36.039L35.1842 16.7911C35.1469 16.6933 35.1002 16.5778 35.0441 16.4444C34.9974 16.3022 34.946 16.1467 34.89 15.9778C34.8339 15.8089 34.7779 15.6444 34.7218 15.4844C34.6751 15.3156 34.6284 15.1644 34.5817 15.0311H34.4976C34.4509 15.2 34.3902 15.4 34.3154 15.6311C34.2407 15.8533 34.166 16.0711 34.0912 16.2844C34.0165 16.4889 33.9558 16.6578 33.9091 16.7911L33.0543 19.0444Z" fill="white"/>
<path d="M39.4199 22.4444L42.8812 17.6311L39.7562 13.2978H42.3066L44.2965 16.1911H44.3666L46.3424 13.2978H48.7386L45.5997 17.6311L49.061 22.4444H46.5106L44.1984 19.0578H44.1283L41.8302 22.4444H39.4199Z" fill="white"/>
<path d="M52.6172 22.4444V18.7644L48.8897 13.2978H51.314L53.6962 16.9778H53.7663L56.1345 13.2978H58.4186L54.7192 18.7644V22.4444H52.6172Z" fill="white"/>
<path d="M62.7525 22.6044C62.192 22.6044 61.6595 22.5511 61.155 22.4444C60.6506 22.3378 60.2021 22.1689 59.8098 21.9378C59.4267 21.6978 59.1231 21.4 58.8989 21.0444C58.6841 20.68 58.5766 20.24 58.5766 19.7244C58.5766 19.68 58.5766 19.6356 58.5766 19.5911C58.5766 19.5378 58.5813 19.4978 58.5906 19.4711H60.6646C60.6552 19.4978 60.6506 19.5333 60.6506 19.5778C60.6506 19.6222 60.6506 19.6622 60.6506 19.6978C60.6506 19.9822 60.73 20.2222 60.8888 20.4178C61.0569 20.6133 61.2998 20.76 61.6175 20.8578C61.9351 20.9556 62.3041 21.0044 62.7245 21.0044C62.9954 21.0044 63.2336 20.9911 63.4392 20.9644C63.654 20.9289 63.8409 20.8844 63.9997 20.8311C64.1679 20.7689 64.3033 20.6978 64.4061 20.6178C64.5182 20.5378 64.5976 20.4444 64.6443 20.3378C64.7004 20.2311 64.7284 20.1111 64.7284 19.9778C64.7284 19.7378 64.6443 19.5422 64.4761 19.3911C64.3173 19.24 64.0931 19.1111 63.8035 19.0044C63.5232 18.8978 63.2056 18.8 62.8506 18.7111C62.4956 18.6222 62.1313 18.5333 61.7576 18.4444C61.3839 18.3467 61.0196 18.2311 60.6646 18.0978C60.3096 17.9556 59.9919 17.7867 59.7117 17.5911C59.4314 17.3956 59.2072 17.1467 59.0391 16.8444C58.8709 16.5422 58.7868 16.1778 58.7868 15.7511C58.7868 15.2978 58.8849 14.9067 59.0811 14.5778C59.2866 14.2489 59.5715 13.9778 59.9359 13.7644C60.3002 13.5511 60.7206 13.3956 61.1971 13.2978C61.6735 13.1911 62.192 13.1378 62.7525 13.1378C63.2757 13.1378 63.7708 13.1911 64.2379 13.2978C64.705 13.3956 65.1161 13.5556 65.4711 13.7778C65.8261 14 66.1017 14.28 66.2978 14.6178C66.5034 14.9556 66.6061 15.3556 66.6061 15.8178V15.9778H64.5742V15.8711C64.5742 15.6311 64.4995 15.4267 64.35 15.2578C64.2006 15.0889 63.9904 14.9556 63.7194 14.8578C63.4485 14.76 63.1309 14.7111 62.7665 14.7111C62.3742 14.7111 62.0379 14.7467 61.7576 14.8178C61.4867 14.8889 61.2765 14.9956 61.127 15.1378C60.9869 15.2711 60.9168 15.4311 60.9168 15.6178C60.9168 15.8311 60.9962 16.0089 61.155 16.1511C61.3232 16.2844 61.5474 16.4044 61.8277 16.5111C62.1173 16.6089 62.4396 16.6978 62.7946 16.7778C63.1496 16.8578 63.5139 16.9467 63.8876 17.0444C64.2613 17.1422 64.6256 17.2578 64.9806 17.3911C65.3356 17.5244 65.6532 17.6933 65.9335 17.8978C66.2138 18.0933 66.438 18.3378 66.6061 18.6311C66.7743 18.9244 66.8584 19.2756 66.8584 19.6844C66.8584 20.3867 66.6809 20.9511 66.3259 21.3778C65.9709 21.8044 65.4851 22.1156 64.8685 22.3111C64.2519 22.5067 63.5466 22.6044 62.7525 22.6044Z" fill="white"/>
<path d="M75.5745 22.6044C74.5749 22.6044 73.7201 22.44 73.0101 22.1111C72.3001 21.7733 71.7583 21.2533 71.3846 20.5511C71.0203 19.8489 70.8381 18.9556 70.8381 17.8711C70.8381 16.2711 71.2491 15.0844 72.0712 14.3111C72.9027 13.5289 74.0705 13.1378 75.5745 13.1378C76.3966 13.1378 77.1347 13.2711 77.7886 13.5378C78.4425 13.8044 78.9564 14.2044 79.33 14.7378C79.7131 15.2711 79.9046 15.9422 79.9046 16.7511H77.8026C77.8026 16.3244 77.7092 15.9644 77.5223 15.6711C77.3448 15.3778 77.0879 15.1556 76.7516 15.0044C76.4247 14.8444 76.0416 14.7644 75.6026 14.7644C75.0047 14.7644 74.5095 14.8756 74.1172 15.0978C73.7341 15.32 73.4492 15.6489 73.2624 16.0844C73.0849 16.5111 72.9961 17.0356 72.9961 17.6578V18.0711C72.9961 18.7111 73.0895 19.2489 73.2764 19.6844C73.4632 20.1111 73.7435 20.4356 74.1172 20.6578C74.5002 20.8711 74.9906 20.9778 75.5885 20.9778C76.0556 20.9778 76.462 20.9022 76.8077 20.7511C77.1533 20.6 77.4196 20.3778 77.6064 20.0844C77.7933 19.7911 77.8867 19.4311 77.8867 19.0044H79.9046C79.9046 19.8133 79.7177 20.4844 79.3441 21.0178C78.9797 21.5511 78.4706 21.9511 77.8166 22.2178C77.1627 22.4756 76.4153 22.6044 75.5745 22.6044Z" fill="white"/>
<path d="M81.5497 22.4444V13.2978H86.8186C87.5286 13.2978 88.1172 13.4178 88.5843 13.6578C89.0607 13.8978 89.4157 14.2356 89.6493 14.6711C89.8828 15.0978 89.9996 15.5911 89.9996 16.1511C89.9996 16.7467 89.8595 17.2756 89.5792 17.7378C89.2989 18.1911 88.8926 18.5378 88.3601 18.7778L90.3219 22.4444H88.0097L86.3141 19.1111H83.6376V22.4444H81.5497ZM83.6376 17.5378H86.5384C86.9588 17.5378 87.2857 17.4178 87.5193 17.1778C87.7528 16.9289 87.8696 16.5956 87.8696 16.1778C87.8696 15.9111 87.8182 15.6844 87.7155 15.4978C87.6127 15.3022 87.4632 15.1556 87.267 15.0578C87.0709 14.96 86.828 14.9111 86.5384 14.9111H83.6376V17.5378Z" fill="white"/>
<path d="M91.7858 22.4444V13.2978H99.465V14.9244H93.8878V16.9644H98.8204V18.5778H93.8878V20.8044H99.5491V22.4444H91.7858Z" fill="white"/>
<path d="M100.371 22.4444L104.07 13.2978H106.648L110.348 22.4444H108.092L107.405 20.6444H103.215L102.529 22.4444H100.371ZM103.818 19.0444H106.803L105.948 16.7911C105.91 16.6933 105.864 16.5778 105.808 16.4444C105.761 16.3022 105.71 16.1467 105.653 15.9778C105.597 15.8089 105.541 15.6444 105.485 15.4844C105.439 15.3156 105.392 15.1644 105.345 15.0311H105.261C105.214 15.2 105.154 15.4 105.079 15.6311C105.004 15.8533 104.929 16.0711 104.855 16.2844C104.78 16.4889 104.719 16.6578 104.673 16.7911L103.818 19.0444Z" fill="white"/>
<path d="M112.683 22.4444V14.9644H109.6V13.2978H117.882V14.9644H114.785V22.4444H112.683Z" fill="white"/>
<path d="M119.292 22.4444V13.2978H121.38V22.4444H119.292Z" fill="white"/>
<path d="M126.085 22.4444L122.61 13.2978H124.866L126.94 19.1378C126.978 19.2356 127.02 19.3556 127.066 19.4978C127.113 19.6311 127.16 19.7644 127.206 19.8978C127.253 20.0311 127.29 20.1511 127.318 20.2578H127.403C127.44 20.16 127.477 20.0489 127.515 19.9244C127.561 19.7911 127.603 19.6578 127.641 19.5244C127.688 19.3911 127.73 19.2667 127.767 19.1511L129.841 13.2978H132.013L128.524 22.4444H126.085Z" fill="white"/>
<path d="M133.237 22.4444V13.2978H140.916V14.9244H135.339V16.9644H140.271V18.5778H135.339V20.8044H141V22.4444H133.237Z" fill="white"/>
<path d="M6.08665 13.1464C5.44931 12.779 4.73567 13.4905 5.10349 14.1266L7.14934 17.6646C7.27778 17.8867 7.27769 18.1603 7.14909 18.3823L5.10073 21.9189C4.73246 22.5548 5.4456 23.2667 6.0832 22.8998L13.4722 18.6473C13.9519 18.3712 13.9522 17.6805 13.4726 17.4041L6.08665 13.1464Z" fill="white"/>
<path d="M22.5975 13.1005C23.2348 12.7331 23.9485 13.4445 23.5807 14.0806L21.5348 17.6187C21.4064 17.8408 21.4065 18.1144 21.5351 18.3364L23.5834 21.873C23.9517 22.5088 23.2386 23.2208 22.601 22.8538L15.212 18.6014C14.7322 18.3253 14.732 17.6346 15.2115 17.3582L22.5975 13.1005Z" fill="white"/>
</svg>
