<svg width="146" height="36" viewBox="0 0 146 36" fill="none" xmlns="http://www.w3.org/2000/svg">
<path d="M9.37703 31.6646C14.0035 31.6646 17.7541 27.9096 17.7541 23.2776C17.7541 18.6456 14.0035 14.8906 9.37703 14.8906C4.75052 14.8906 1 18.6456 1 23.2776C1 27.9096 4.75052 31.6646 9.37703 31.6646Z" fill="white"/>
<path d="M15.9514 31.6656C23.6922 24.8711 19.4507 13.9361 10.5435 12.7683C15.4212 7.248 25.2828 9.05281 26.2371 17.9704C34.5081 18.7135 35.0383 30.4978 26.2371 31.6656H15.9514Z" fill="white"/>
<path d="M40.7653 24.2763C42.284 24.2763 43.6055 23.5852 44.0197 22.5781L44.1972 24.0196H46.3075V18.0956C46.3075 15.3903 44.6902 13.9686 42.0671 13.9686C39.4242 13.9686 37.6885 15.3508 37.6885 17.4637H39.7397C39.7397 16.4369 40.5287 15.8445 41.9487 15.8445C43.1716 15.8445 43.9605 16.3777 43.9605 17.7007V17.9179L41.0415 18.1351C38.7339 18.3128 37.4321 19.4384 37.4321 21.2353C37.4321 23.0717 38.6944 24.2763 40.7653 24.2763ZM41.5543 22.4596C40.4695 22.4596 39.8778 22.0252 39.8778 21.1366C39.8778 20.3467 40.4498 19.853 41.9487 19.7148L43.9802 19.5569V20.0703C43.9802 21.571 43.0335 22.4596 41.5543 22.4596ZM51.0973 24.0196V9.32812H48.7108V24.0196H51.0973ZM56.0474 24.0196V9.32812H53.6609V24.0196H56.0474ZM63.1379 21.0576C63.1379 22.973 64.6763 24.2763 67.1023 24.2763C69.5085 24.2763 71.185 23.052 71.185 21.0773C71.185 19.5766 70.3566 18.8262 68.7196 18.451L66.9642 18.0364C66.1358 17.8389 65.7019 17.4835 65.7019 16.9306C65.7019 16.1999 66.2542 15.7655 67.2009 15.7655C68.1279 15.7655 68.6801 16.2987 68.6998 17.128H70.9877C70.968 15.2324 69.4888 13.9686 67.2995 13.9686C65.0511 13.9686 63.4338 15.1139 63.4338 17.0293C63.4338 18.5893 64.2819 19.4186 66.0372 19.8136L67.7926 20.2282C68.6604 20.4257 68.9168 20.7811 68.9168 21.2748C68.9168 21.9857 68.3054 22.4398 67.1812 22.4398C66.0767 22.4398 65.4455 21.9067 65.4258 21.0576H63.1379ZM72.4451 19.1224C72.4451 22.1634 74.6344 24.2565 77.652 24.2565C80.6697 24.2565 82.8589 22.1634 82.8589 19.1224C82.8589 16.0815 80.6697 13.9883 77.652 13.9883C74.6344 13.9883 72.4451 16.0815 72.4451 19.1224ZM74.8513 19.1224C74.8513 17.3452 75.9953 16.1407 77.652 16.1407C79.3088 16.1407 80.4527 17.3452 80.4527 19.1224C80.4527 20.8996 79.3088 22.1042 77.652 22.1042C75.9953 22.1042 74.8513 20.8996 74.8513 19.1224ZM87.1921 24.0196V9.32812H84.8056V24.0196H87.1921ZM96.3235 14.2648V19.3791C96.3235 21.2353 95.5937 22.1239 94.075 22.1239C92.7339 22.1239 92.0041 21.3735 92.0041 19.5174V14.2648H89.5979V20.3665C89.5979 22.7558 90.9193 24.2763 93.1678 24.2763C94.4695 24.2763 95.7318 23.6444 96.3235 22.7163L96.501 24.0196H98.7297V14.2648H96.3235ZM104.528 24.0196V16.2789H106.422V14.2648H104.528V11.2238H102.122V14.2648H100.249V16.2789H102.122V24.0196H104.528ZM109.121 12.3099C109.91 12.3099 110.561 11.6582 110.561 10.8486C110.561 10.039 109.91 9.40711 109.121 9.40711C108.292 9.40711 107.642 10.039 107.642 10.8486C107.642 11.6582 108.292 12.3099 109.121 12.3099ZM107.918 24.0196H110.324V14.2648H107.918V24.0196ZM112.238 19.1224C112.238 22.1634 114.427 24.2565 117.445 24.2565C120.462 24.2565 122.652 22.1634 122.652 19.1224C122.652 16.0815 120.462 13.9883 117.445 13.9883C114.427 13.9883 112.238 16.0815 112.238 19.1224ZM114.644 19.1224C114.644 17.3452 115.788 16.1407 117.445 16.1407C119.102 16.1407 120.245 17.3452 120.245 19.1224C120.245 20.8996 119.102 22.1042 117.445 22.1042C115.788 22.1042 114.644 20.8996 114.644 19.1224ZM126.965 24.0196V18.767C126.965 17.1873 127.873 16.1604 129.352 16.1604C130.594 16.1604 131.403 16.9503 131.403 18.5893V24.0196H133.809V18.0166C133.809 15.4891 132.547 13.9686 130.101 13.9686C128.78 13.9686 127.596 14.5412 126.985 15.5285L126.788 14.2648H124.559V24.0196H126.965ZM135.308 21.0576C135.308 22.973 136.847 24.2763 139.273 24.2763C141.679 24.2763 143.355 23.052 143.355 21.0773C143.355 19.5766 142.527 18.8262 140.89 18.451L139.135 18.0364C138.306 17.8389 137.872 17.4835 137.872 16.9306C137.872 16.1999 138.425 15.7655 139.371 15.7655C140.298 15.7655 140.851 16.2987 140.87 17.128H143.158C143.139 15.2324 141.659 13.9686 139.47 13.9686C137.222 13.9686 135.604 15.1139 135.604 17.0293C135.604 18.5893 136.452 19.4186 138.208 19.8136L139.963 20.2282C140.831 20.4257 141.087 20.7811 141.087 21.2748C141.087 21.9857 140.476 22.4398 139.352 22.4398C138.247 22.4398 137.616 21.9067 137.596 21.0576H135.308Z" fill="white"/>
<path d="M37.455 31.2403V29.8389H39.0965V31.2403H39.3977V28.1997H39.0965V29.5544H37.455V28.1997H37.1497V31.2403H37.455ZM43.5718 31.2403V30.96H42.0575V29.8517H43.4275V29.5756H42.0575V28.48H43.5675V28.1997H41.7521V31.2403H43.5718ZM45.8037 31.2403L46.1006 30.4334H47.5003L47.7972 31.2403H48.1153L46.987 28.1997H46.6095L45.494 31.2403H45.8037ZM46.758 28.6286C46.775 28.5862 46.7919 28.531 46.7962 28.5055C46.8004 28.5352 46.8216 28.5862 46.8343 28.6286L47.4027 30.1659H46.1939L46.758 28.6286ZM49.5536 28.48H50.4867V31.2403H50.7921V28.48H51.7295V28.1997H49.5536V28.48ZM54.067 28.1997H53.7616V31.2403H54.067V28.1997ZM56.7226 31.2403V28.7093L58.398 31.2403H58.6992V28.1997H58.398V30.7307L56.7269 28.1997H56.4172V31.2403H56.7226ZM62.3253 28.4375C62.7706 28.4375 63.1269 28.6499 63.2542 29.066H63.585C63.4662 28.514 62.97 28.1488 62.3295 28.1488C61.46 28.1488 60.8662 28.8028 60.8662 29.7328C60.8662 30.6712 61.46 31.2912 62.321 31.2912C62.813 31.2912 63.1948 31.0619 63.356 30.7604L63.3856 31.2445H63.6274V29.5969H62.2404V29.8686H63.339V30.0258C63.339 30.7562 62.8427 31.0025 62.3337 31.0025C61.6509 31.0025 61.1843 30.5226 61.1843 29.7328C61.1843 28.9556 61.6254 28.4375 62.3253 28.4375ZM70.3744 29.6775V29.9408H71.3033V30.8751H71.5663V29.9408H72.4952V29.6775H71.5663V28.7475H71.3033V29.6775H70.3744ZM79.3741 31.2403L79.671 30.4334H81.0707L81.3676 31.2403H81.6857L80.5575 28.1997H80.18L79.0645 31.2403H79.3741ZM80.3284 28.6286C80.3454 28.5862 80.3624 28.531 80.3666 28.5055C80.3709 28.5352 80.3921 28.5862 80.4048 28.6286L80.9732 30.1659H79.7643L80.3284 28.6286ZM84.0252 28.1997H83.7198V31.2403H84.0252V28.1997ZM86.6808 31.2403V29.9791H87.5673L88.1865 31.2403H88.5258L87.8769 29.9281C88.2671 29.8219 88.4962 29.5162 88.4962 29.0788C88.4962 28.5395 88.1229 28.1997 87.5079 28.1997H86.3754V31.2403H86.6808ZM86.6808 28.4758H87.5079C87.9235 28.4758 88.1823 28.6923 88.1823 29.0873C88.1823 29.4737 87.9363 29.703 87.5164 29.703H86.6808V28.4758ZM97.1871 31.287C97.8402 31.287 98.3704 30.9006 98.5104 30.3273H98.1838C98.0523 30.7349 97.6706 30.994 97.1913 30.994C96.5254 30.994 96.08 30.4844 96.08 29.72C96.08 28.9514 96.5254 28.4418 97.1913 28.4418C97.6663 28.4418 98.0396 28.7093 98.1668 29.1467H98.4934C98.3704 28.5437 97.8572 28.1488 97.204 28.1488C96.3472 28.1488 95.7619 28.7858 95.7619 29.72C95.7619 30.6543 96.3387 31.287 97.1871 31.287ZM103.356 29.72C103.356 28.7943 102.763 28.1445 101.91 28.1445C101.062 28.1445 100.464 28.7985 100.464 29.72C100.464 30.6415 101.057 31.2912 101.91 31.2912C102.758 31.2912 103.356 30.6415 103.356 29.72ZM103.042 29.72C103.042 30.4759 102.58 30.9982 101.91 30.9982C101.24 30.9982 100.782 30.4801 100.782 29.72C100.782 28.9599 101.24 28.4418 101.91 28.4418C102.58 28.4418 103.042 28.9599 103.042 29.72ZM105.827 31.2403V28.7093L107.503 31.2403H107.804V28.1997H107.503V30.7307L105.832 28.1997H105.522V31.2403H105.827ZM111.082 31.2403C111.994 31.2403 112.601 30.6288 112.601 29.72C112.601 28.8112 111.99 28.1997 111.074 28.1997H110.157V31.2403H111.082ZM111.061 28.48C111.812 28.48 112.287 28.9599 112.287 29.72C112.287 30.4759 111.812 30.96 111.069 30.96H110.463V28.48H111.061ZM115.069 28.1997H114.764V31.2403H115.069V28.1997ZM117.101 28.48H118.035V31.2403H118.34V28.48H119.277V28.1997H117.101V28.48ZM121.615 28.1997H121.309V31.2403H121.615V28.1997ZM126.671 29.72C126.671 28.7943 126.077 28.1445 125.225 28.1445C124.377 28.1445 123.778 28.7985 123.778 29.72C123.778 30.6415 124.372 31.2912 125.225 31.2912C126.073 31.2912 126.671 30.6415 126.671 29.72ZM126.357 29.72C126.357 30.4759 125.895 30.9982 125.225 30.9982C124.555 30.9982 124.097 30.4801 124.097 29.72C124.097 28.9599 124.555 28.4418 125.225 28.4418C125.895 28.4418 126.357 28.9599 126.357 29.72ZM129.142 31.2403V28.7093L130.818 31.2403H131.119V28.1997H130.818V30.7307L129.146 28.1997H128.837V31.2403H129.142ZM133.778 28.1997H133.472V31.2403H133.778V28.1997ZM136.433 31.2403V28.7093L138.109 31.2403H138.41V28.1997H138.109V30.7307L136.438 28.1997H136.128V31.2403H136.433ZM142.036 28.4375C142.481 28.4375 142.838 28.6499 142.965 29.066H143.296C143.177 28.514 142.681 28.1488 142.04 28.1488C141.171 28.1488 140.577 28.8028 140.577 29.7328C140.577 30.6712 141.171 31.2912 142.032 31.2912C142.524 31.2912 142.905 31.0619 143.067 30.7604L143.096 31.2445H143.338V29.5969H141.951V29.8686H143.05V30.0258C143.05 30.7562 142.553 31.0025 142.044 31.0025C141.362 31.0025 140.895 30.5226 140.895 29.7328C140.895 28.9556 141.336 28.4375 142.036 28.4375Z" fill="white"/>
</svg>
