<svg width="70" height="59" viewBox="0 0 70 59" fill="none" xmlns="http://www.w3.org/2000/svg">
<path d="M23.3519 58.9513H3.73189C2.96865 58.9513 2.20541 58.7082 1.71147 58.4164C-0.0394516 57.1032 -0.533386 54.5742 0.633987 52.6289L1.44217 51.3157C1.48702 51.3157 20.703 20.1411 20.703 20.1411L22.2744 17.515C22.5437 17.0772 22.9029 16.6881 23.307 16.3963C25.1029 15.0832 27.4824 15.5695 28.6497 17.515L30.2212 20.1411L48.9881 50.6348C49.2575 51.0726 49.6616 51.3157 50.1555 51.3157H56.2166C56.486 51.3157 56.7554 51.2185 56.9798 51.0726C57.6533 50.5376 57.8329 49.6135 57.384 48.884L36.1027 14.3051L31.8844 7.46182C30.7974 5.69839 30.7966 3.47299 31.8824 1.70878C32.1518 1.31969 32.466 0.979286 32.8252 0.736153C34.6211 -0.576981 37.0006 -0.0907097 38.168 1.85475L69.3714 52.5316C69.7756 53.2611 70 54.0393 70 54.8661C70 57.1032 68.3388 59 66.1837 59H46.6086C45.3515 59 44.1392 58.2218 43.4209 57.1032L26.5846 29.7222C26.4498 29.5276 26.3152 29.3817 26.1804 29.2844C25.462 28.8467 24.609 29.0413 24.1601 29.7222L12.4868 48.7868C12.3521 49.03 12.2623 49.3217 12.2623 49.6135C12.2174 50.489 12.8909 51.1699 13.6542 51.1699H19.85C20.299 51.1699 20.7479 50.9267 21.0173 50.489L24.609 44.7015C24.8784 44.2638 25.2376 43.8747 25.6416 43.5829C27.4376 42.2698 29.8171 42.7561 30.9844 44.7015L31.164 44.9933C32.017 46.355 32.017 48.2031 31.164 49.5649L26.5396 57.0545C25.8212 58.2704 24.609 58.9513 23.3519 58.9513Z" fill="white"/>
</svg>
