<svg width="248" height="96" viewBox="0 0 248 96" fill="none" xmlns="http://www.w3.org/2000/svg">
<path d="M214.062 40.3204L213.538 46.5519H210.969C206.867 46.5519 204.735 49.809 204.735 52.9304V67.0046H197.466V40.3204H204.351L204.508 43.651C205.953 41.3671 208.481 40.3204 211.598 40.3204H214.062ZM163.663 67.0043H156.386V52.8979C156.386 49.9436 156.129 46.2254 151.934 46.2254C147.895 46.2254 146.285 49.1134 146.285 52.4763V67.0043H139.012V40.3202H145.756L145.91 43.7315C147.355 41.4476 150.047 39.6692 154.018 39.6692C161.349 39.6692 163.663 44.8541 163.663 50.2497V67.0043ZM135.839 60.771L135.33 66.8426C133.586 67.3062 132.037 67.4725 130.163 67.4725C123.307 67.4725 121.319 64.3584 121.319 58.0994V32.7954H128.594V40.3207H135.833L135.33 46.5514H128.594V57.5575C128.594 60.0692 129.289 61.426 131.89 61.426C133.021 61.426 134.279 61.2911 135.839 60.771ZM118.93 40.3204L118.366 46.5519H116.389C112.296 46.5519 110.26 49.8049 110.26 52.9304V67.0046H102.984V40.3204H109.873L110.017 43.651C111.469 41.3671 113.997 40.3204 117.119 40.3204H118.93ZM70.152 64.0481C65.2172 66.6631 60.2882 68.1717 53.7776 67.9844C41.7077 67.6193 33 60.195 33 47.6544C33 35.1688 41.7917 27.1913 53.7833 27.0039C59.8618 26.9118 65.3012 28.4398 69.5527 32.1565L64.4313 37.2888C61.8005 35.0671 57.9297 33.7684 53.3039 33.976C45.7571 34.3241 41.2096 39.7568 41.1093 47.2264C41.0107 55.3195 46.0204 60.8968 53.8518 61.1003C57.5367 61.1916 60.1765 60.7014 62.4608 59.6854V51.4131H54.3214L54.8708 44.6283H70.152V64.0481ZM194.217 56.1983H174.27C174.838 59.608 177.544 61.6593 180.913 61.7522C184.189 61.8403 186.022 60.8598 188.418 58.4564L193.165 62.0422C189.791 66.1585 185.743 67.6567 181.131 67.6567C173.019 67.6567 166.942 62.0381 166.942 53.6616C166.942 45.294 172.989 39.669 180.828 39.669C189.467 39.669 194.217 44.8538 194.217 54.0573V56.1983ZM186.928 50.6193C186.705 47.2484 184.156 45.1171 180.644 45.2528C177.11 45.3852 174.757 47.6651 174.27 50.6193H186.928ZM98.4039 49.5309V67.0043H91.9895L91.8306 64.3731C89.8625 66.7878 86.6675 67.6568 83.378 67.6568C78.4245 67.6568 73.7441 65.2372 73.6463 59.6017C73.4987 50.7439 83.7098 50.1148 90.1226 50.1148H91.4042V49.7643C91.4042 46.8351 89.4476 45.253 85.7634 45.253C83.1188 45.253 80.5083 46.3037 78.5778 48.0965L74.38 43.8719C78.1913 40.8111 82.1568 39.6692 86.3814 39.6692C94.7255 39.6692 98.4039 43.4891 98.4039 49.5309ZM91.4042 55.3674H90.3924C86.948 55.3747 80.898 55.5427 80.9208 59.1107C80.9534 64.1373 91.4042 62.5398 91.4042 56.4779V55.3674ZM208.387 63.9003C208.387 62.2019 209.68 60.9218 211.34 60.9218C212.978 60.9218 214.274 62.2019 214.274 63.9003C214.274 65.6286 212.978 66.9046 211.34 66.9046C209.68 66.9046 208.387 65.6286 208.387 63.9003ZM211.34 67.5014C213.315 67.5014 215 65.9815 215 63.9003C215 61.8401 213.315 60.3234 211.34 60.3234C209.346 60.3234 207.659 61.8401 207.659 63.9003C207.659 65.9815 209.346 67.5014 211.34 67.5014ZM210.572 64.1878H211.302L212.402 65.9815H213.113L211.925 64.1587C212.539 64.0844 213.008 63.7582 213.008 63.0176C213.008 62.2019 212.519 61.8401 211.531 61.8401H209.941V65.9815H210.572V64.1878ZM210.572 63.654V62.3739H211.434C211.876 62.3739 212.346 62.4684 212.346 62.9813C212.346 63.6168 211.866 63.654 211.331 63.654H210.572Z" fill="#909090"/>
</svg>
