<svg width="248" height="96" viewBox="0 0 248 96" fill="none" xmlns="http://www.w3.org/2000/svg">
<path d="M63.2249 3.10891C62.145 3.41613 61.3257 4.07714 60.8416 5.05468C59.8361 7.10287 60.6088 9.39312 62.6291 10.3427C64.8914 11.4041 67.6099 9.9331 68.0754 7.4101C68.2988 6.20912 67.8333 4.97089 66.7999 4.00266C66.4089 3.63026 66.0365 3.3882 65.6734 3.24855C64.9659 2.97857 63.9045 2.92271 63.2249 3.10891Z" fill="#909090"/>
<path d="M79.8617 19.262C78.6794 19.4668 77.5436 20.3326 76.985 21.4685C76.6964 22.055 76.6777 22.1574 76.6777 23.0325C76.687 23.7773 76.7243 24.0659 76.9012 24.5035C77.1991 25.2669 78.0463 26.1514 78.847 26.5424C79.4335 26.831 79.5266 26.8496 80.4948 26.8496C81.4724 26.8496 81.5468 26.831 82.1427 26.5331C83.7998 25.7045 84.7122 23.768 84.2188 22.0922C84.0047 21.3381 83.7067 20.8633 83.0737 20.2675C82.422 19.6437 82.1054 19.4761 81.3048 19.2992C80.6158 19.1596 80.5134 19.1596 79.8617 19.262Z" fill="#909090"/>
<path d="M118.665 30.8064C116.18 31.1323 114.225 32.4822 113.219 34.577C112.381 36.3179 112.195 37.5934 112.195 41.8573V44.4921L109.523 44.5107L106.842 44.5386V46.0747C106.842 46.922 106.87 47.7226 106.916 47.8623C107.009 48.216 107.503 48.7467 107.922 48.9701C108.238 49.1284 108.48 49.147 110.24 49.147H112.195V58.4104V67.6738H114.755H117.315V58.4104V49.147H121.365H125.415L125.397 46.8382L125.369 44.5386L121.393 44.5107L117.409 44.4921V41.5315C117.409 38.4127 117.483 37.7144 117.855 36.9882C118.07 36.5693 118.544 36.1038 118.954 35.899C119.969 35.3869 122.427 35.6197 124.587 36.4296C125.061 36.6065 125.471 36.7462 125.48 36.7276C125.564 36.6438 126.439 32.6219 126.402 32.5195C126.337 32.3333 124.838 31.6071 123.963 31.3371C123.553 31.2068 122.874 31.0392 122.464 30.9554C121.514 30.7785 119.513 30.6947 118.665 30.8064Z" fill="#909090"/>
<path d="M66.2427 32.0077C65.2093 32.3894 64.5203 33.0318 64.0269 34.0559C63.7569 34.6238 63.7383 34.7448 63.7383 35.6479C63.7383 36.551 63.7569 36.672 64.0362 37.2492C64.4179 38.0685 65.0603 38.7388 65.7772 39.0926C67.7881 40.0701 70.097 39.2229 71.0745 37.1654C71.3445 36.5882 71.3724 36.4486 71.3724 35.6479C71.3724 34.8473 71.3445 34.7076 71.0745 34.1304C70.6835 33.3018 69.9666 32.557 69.1939 32.1846C68.6539 31.9146 68.4957 31.8774 67.6578 31.8588C66.9316 31.8401 66.6151 31.8774 66.2427 32.0077Z" fill="#909090"/>
<path d="M24.6823 44.1662C23.0252 44.52 21.9266 45.0972 20.8001 46.2237L19.9343 47.0802V45.7861V44.4921H17.4671H15V56.0829V67.6738H17.5137H20.0274V61.222C20.0274 57.5446 20.0646 54.4351 20.1205 53.9696C20.3998 51.5118 21.6101 49.7987 23.5652 49.0819C24.2075 48.8398 24.3751 48.8212 25.5668 48.8212C26.2837 48.8212 27.1867 48.8584 27.5871 48.905C28.518 49.0074 28.8998 48.9329 29.3373 48.5233C29.6259 48.2719 29.747 48.0578 29.8866 47.5736C30.1845 46.5775 30.65 44.6596 30.6128 44.6224C30.5942 44.5945 30.1566 44.4734 29.6539 44.3431C28.8532 44.129 28.5087 44.0917 27.0098 44.0638C25.7809 44.0452 25.1106 44.0731 24.6823 44.1662Z" fill="#909090"/>
<path d="M42.5208 44.1755C38.0986 44.9762 34.6725 48.244 33.5274 52.7407C32.1867 57.9729 33.9929 63.3447 38.0427 66.2029C39.9792 67.5714 42.1484 68.2324 44.69 68.2324C47.455 68.2324 49.5498 67.3945 51.2907 65.5977L51.9611 64.8995V66.2866V67.6738H54.5213H57.0815L57.0629 56.1016L57.035 44.5386L54.5027 44.5107L51.9611 44.4921V45.9258V47.3595L51.3838 46.7544C50.006 45.3206 48.5722 44.5386 46.6544 44.1755C45.6955 43.9893 43.5356 43.9893 42.5208 44.1755ZM47.1758 48.8677C49.1122 49.3705 50.7973 50.8228 51.6445 52.7407C52.5104 54.6958 52.4917 57.4701 51.5887 59.4438C50.5087 61.8365 48.3954 63.2516 45.7141 63.3633C44.2897 63.4285 43.368 63.2516 42.1856 62.6744C41.4408 62.3206 41.1708 62.1251 40.5005 61.4455C39.8395 60.7752 39.6254 60.4772 39.2623 59.7511C38.6199 58.4477 38.443 57.6563 38.4337 56.0829C38.4244 54.1372 38.8433 52.7127 39.8395 51.3349C41.4501 49.1005 44.3083 48.1322 47.1758 48.8677Z" fill="#909090"/>
<path d="M88.1379 44.1755C86.276 44.5386 84.656 45.4603 83.6412 46.7171C83.3992 47.0244 83.1664 47.2757 83.1292 47.2757C83.0826 47.285 83.0547 46.652 83.0547 45.8885V44.4921H80.541H78.0273V56.0829V67.6738H80.5317H83.0454L83.0733 60.7658C83.1106 53.9882 83.1106 53.8299 83.3154 53.1224C83.8647 51.1487 85.196 49.7242 87.058 49.1377C87.8307 48.8864 89.3855 48.8026 90.2885 48.9608C92.0947 49.2587 93.5098 50.5156 94.087 52.3217C94.4594 53.5041 94.506 54.5375 94.506 61.3058V67.6738H97.0196H99.5426L99.5147 59.5928L99.4868 51.5211L99.2354 50.6273C98.7513 48.8491 98.053 47.6574 96.7683 46.4378C95.5673 45.2927 94.1522 44.5758 92.374 44.2128C91.2754 43.9893 89.162 43.9707 88.1379 44.1755Z" fill="#909090"/>
<path d="M139.194 44.0739C139.12 44.0925 138.738 44.1577 138.356 44.2135C135.219 44.7163 132.156 46.6807 130.415 49.3061C129.018 51.4008 128.395 53.5049 128.395 56.1303C128.395 58.7278 129.028 60.8784 130.396 62.9265C132.23 65.6916 135.219 67.5536 138.71 68.1029C140.032 68.3077 142.583 68.2425 143.765 67.9632C146.139 67.4139 148.048 66.4178 149.64 64.9003C152.256 62.3959 153.569 58.8115 153.243 55.0596C152.815 50.144 149.742 46.2245 145.106 44.6884C143.56 44.1763 142.536 44.0273 140.786 44.0367C139.985 44.046 139.269 44.0646 139.194 44.0739ZM143.058 48.9989C145.022 49.5295 146.623 50.8888 147.48 52.7322C147.955 53.7469 148.132 54.4917 148.197 55.7579C148.355 59.2119 146.428 62.1166 143.244 63.1779C142.564 63.4107 142.378 63.4293 140.963 63.4386C139.604 63.4386 139.343 63.4107 138.729 63.2245C137.481 62.8334 136.625 62.3214 135.749 61.437C134.52 60.2174 133.878 58.8115 133.711 56.9961C133.347 52.9835 135.554 49.753 139.241 48.9058C139.995 48.7382 142.294 48.7847 143.058 48.9989Z" fill="#909090"/>
<path d="M168.056 44.1654C164.686 44.7333 162.005 46.4277 160.152 49.1741C159.677 49.8724 158.97 51.4364 158.7 52.3581C158.355 53.5591 158.188 54.788 158.188 56.1938C158.188 62.4222 162.098 67.1237 168.103 68.0919C169.201 68.2688 171.342 68.2688 172.394 68.0919C174.685 67.6916 176.686 66.7048 178.297 65.1779C178.614 64.8707 178.856 64.5635 178.837 64.4983C178.818 64.4331 178.129 63.6139 177.319 62.6829L175.839 60.9885L175.411 61.3329C173.018 63.3066 170.048 63.9211 167.591 62.9529C166.082 62.3477 164.816 61.184 164.099 59.7223C163.457 58.4189 163.28 57.6462 163.28 56.0356C163.28 54.9463 163.327 54.546 163.485 53.9408C164.276 50.9896 166.408 49.0624 169.294 48.6807C171.203 48.4293 173.065 49.0065 174.843 50.4124L175.625 51.0268L175.97 50.673C176.156 50.4682 176.863 49.7141 177.543 48.9879C178.967 47.4611 178.949 47.6101 177.906 46.7163C176.305 45.3384 174.517 44.5098 172.404 44.1654C171.37 43.9978 169.043 43.9978 168.056 44.1654Z" fill="#909090"/>
<path d="M219.354 44.2125C216.058 44.799 213.814 46.419 212.93 48.8675C212.278 50.655 212.353 52.7683 213.116 54.2672C213.423 54.8724 214.122 55.7196 214.671 56.1479C216.235 57.3768 217.929 57.9261 221.681 58.4102C223.683 58.6802 224.474 58.8477 225.182 59.155C227.258 60.0673 227.202 62.339 225.079 63.3351C224.297 63.7075 223.329 63.8751 221.812 63.931C218.786 64.0241 216.524 63.4748 214.587 62.19L213.787 61.65L212.707 63.4096C212.111 64.3685 211.599 65.2157 211.571 65.2902C211.45 65.6161 213.88 66.9474 215.555 67.4781C217.864 68.2042 220.369 68.5022 222.715 68.3253C226.113 68.0739 228.515 67.115 230.2 65.3368C231.289 64.1917 231.885 62.7858 231.987 61.1566C232.118 58.9688 231.261 57.1068 229.567 55.9058C227.984 54.7886 226.392 54.2859 222.752 53.7552C220.192 53.3828 219.633 53.2618 218.814 52.8614C218.069 52.4984 217.753 52.0608 217.697 51.2974C217.604 50.0126 218.563 49.0071 220.285 48.5789C221.123 48.3647 223.469 48.4206 224.661 48.672C225.973 48.9513 227.342 49.4168 228.385 49.9381C228.859 50.1709 229.25 50.3571 229.269 50.3384C229.288 50.3198 229.781 49.4354 230.377 48.3647C231.187 46.9031 231.429 46.391 231.345 46.3352C230.926 46.0466 229.288 45.2925 228.515 45.0225C226.485 44.3149 224.549 44.0263 222.026 44.0356C220.816 44.0356 220.052 44.0915 219.354 44.2125Z" fill="#909090"/>
<path d="M64.9941 56.0829V67.6738H67.5544H70.1146L70.096 56.1016L70.0681 44.5386L67.5358 44.5107L64.9941 44.4921V56.0829Z" fill="#909090"/>
<path d="M184.348 51.7911C184.348 59.2484 184.376 59.8349 184.72 61.2035C185.856 65.635 189.785 68.3535 195.054 68.3535C196.59 68.3535 197.68 68.1859 198.983 67.767C202.865 66.5195 205.23 63.5217 205.667 59.2856C205.723 58.727 205.761 55.543 205.761 51.4187V44.4921H203.2H200.649L200.612 51.819C200.584 59.9373 200.612 59.537 199.96 60.8776C199.607 61.5945 198.759 62.4882 198.061 62.8606C196.479 63.7079 193.546 63.7079 191.954 62.8606C191.218 62.4696 190.483 61.6876 190.092 60.8776C189.422 59.5277 189.44 59.7046 189.403 51.6794L189.366 44.4921H186.852H184.348V51.7911Z" fill="#909090"/>
</svg>
