<svg width="248" height="96" viewBox="0 0 248 96" fill="none" xmlns="http://www.w3.org/2000/svg">
<g clip-path="url(#clip0_2915_362)">
<path fill-rule="evenodd" clip-rule="evenodd" d="M69.4294 42.2246C67.3118 42.2197 65.2598 42.9559 63.6315 44.3046V42.4358H58.3428V62.959H63.8435V49.839C64.4348 49.0733 65.1895 48.4481 66.053 48.0087C66.9166 47.5692 67.8675 47.3266 68.8368 47.2982C69.5871 47.2598 70.3375 47.3719 71.0435 47.6278V42.3654C70.5105 42.2723 69.9705 42.2252 69.4294 42.2246Z" fill="#909090"/>
<path fill-rule="evenodd" clip-rule="evenodd" d="M21.4688 56.6969C23.0395 58.0199 25.0332 58.74 27.09 58.7273C28.5708 58.7273 29.7127 58.0073 29.7127 56.9929C29.7127 53.9033 19.7696 55.0041 19.7696 48.4025C19.7696 44.4681 23.5776 42.0137 27.6393 42.0137C30.1058 42.0204 32.5168 42.7432 34.5775 44.0937L32.0046 48.0633C30.8689 47.2048 29.4944 46.7174 28.0697 46.6681C26.5472 46.6681 25.2768 47.2601 25.2768 48.3177C25.2768 50.9833 35.2215 49.9257 35.2215 57.0345C35.2215 60.9705 31.3669 63.3817 27.0547 63.3817C24.0833 63.3529 21.1963 62.3935 18.8027 60.6393L21.4688 56.6969Z" fill="#909090"/>
<path fill-rule="evenodd" clip-rule="evenodd" d="M55.9943 52.5065C55.9943 46.7945 51.9791 42.0137 46.3033 42.0137C40.2099 42.0137 36.3168 47.0057 36.3168 52.7193C36.2564 54.1398 36.4935 55.5573 37.0132 56.8815C37.5328 58.2056 38.3236 59.4075 39.3351 60.4105C40.3466 61.4136 41.5567 62.1957 42.8883 62.7073C44.2199 63.2188 45.6438 63.4485 47.0694 63.3817C48.6553 63.4025 50.2273 63.0848 51.6797 62.4501C53.1321 61.8153 54.4313 60.8782 55.49 59.7017L52.3582 56.5705C51.7023 57.2914 50.907 57.8729 50.02 58.2801C49.133 58.6873 48.1725 58.9118 47.1963 58.9401C45.8246 58.9845 44.4873 58.5066 43.4568 57.6036C42.4262 56.7006 41.7798 55.4403 41.649 54.0793H55.8674C55.955 53.5596 55.9974 53.0334 55.9943 52.5065ZM41.9027 50.0537C42.1001 49.037 42.648 48.121 43.4516 47.4642C44.2552 46.8074 45.2639 46.4511 46.3033 46.4569C47.3047 46.4584 48.271 46.8251 49.0196 47.4877C49.7682 48.1504 50.2474 49.0631 50.3667 50.0537H41.9027Z" fill="#909090"/>
<path fill-rule="evenodd" clip-rule="evenodd" d="M84.1539 54.9623L89.7815 42.4375H95.4959L86.0587 62.9607H82.2507L72.8135 42.4375H78.5262L84.1539 54.9623Z" fill="#909090"/>
<path fill-rule="evenodd" clip-rule="evenodd" d="M100.115 32.7994C100.811 32.812 101.488 33.0291 102.06 33.4235C102.633 33.8179 103.076 34.3719 103.333 35.0161C103.591 35.6603 103.652 36.366 103.508 37.0445C103.365 37.7231 103.023 38.3443 102.527 38.8302C102.03 39.3161 101.401 39.645 100.717 39.7757C100.033 39.9064 99.3262 39.8331 98.6843 39.5649C98.0424 39.2967 97.4944 38.8456 97.1089 38.2682C96.7234 37.6908 96.5177 37.0129 96.5176 36.3194C96.5175 35.8517 96.611 35.3887 96.7925 34.9574C96.9741 34.5261 97.2401 34.1352 97.5751 33.8075C97.91 33.4798 98.3071 33.2218 98.7433 33.0488C99.1794 32.8757 99.6458 32.7909 100.115 32.7994Z" fill="#909090"/>
<path d="M102.864 42.4375H97.3633V62.9607H102.864V42.4375Z" fill="#909090"/>
<path fill-rule="evenodd" clip-rule="evenodd" d="M125.607 58.7695C124.565 60.2531 123.166 61.4527 121.539 62.2585C119.912 63.0644 118.107 63.4508 116.291 63.3823C114.858 63.4185 113.432 63.1682 112.098 62.6462C110.764 62.1243 109.548 61.3412 108.523 60.3432C107.497 59.3453 106.683 58.1527 106.128 56.836C105.573 55.5193 105.288 54.1051 105.291 52.677C105.294 51.2488 105.584 49.8358 106.144 48.5212C106.704 47.2066 107.523 46.0173 108.553 45.0233C109.582 44.0293 110.801 43.251 112.137 42.7342C113.473 42.2173 114.9 41.9726 116.333 42.0143C117.99 42.002 119.628 42.3651 121.124 43.076C122.619 43.787 123.933 44.8273 124.966 46.1183L121.073 49.5455C120.53 48.7963 119.818 48.1841 118.995 47.7579C118.172 47.3317 117.261 47.1034 116.333 47.0911C115.596 47.0881 114.865 47.2325 114.185 47.5158C113.504 47.7991 112.888 48.2154 112.372 48.7403C111.856 49.2651 111.451 49.8877 111.18 50.5713C110.91 51.2549 110.78 51.9855 110.799 52.7199C110.774 53.4654 110.905 54.2079 111.182 54.9007C111.459 55.5935 111.877 56.2218 112.41 56.7462C112.942 57.2705 113.578 57.6795 114.276 57.9476C114.975 58.2156 115.722 58.337 116.47 58.3039C117.447 58.2846 118.405 58.0278 119.26 57.5561C120.116 57.0843 120.842 56.4117 121.378 55.5967L125.607 58.7695Z" fill="#909090"/>
<path fill-rule="evenodd" clip-rule="evenodd" d="M145.589 59.7017C144.53 60.8783 143.231 61.8155 141.778 62.4502C140.326 63.085 138.754 63.4026 137.168 63.3817C135.743 63.4478 134.319 63.2176 132.988 62.7058C131.657 62.1939 130.448 61.4116 129.437 60.4087C128.426 59.4058 127.636 58.2041 127.116 56.8803C126.597 55.5564 126.36 54.1394 126.42 52.7193C126.42 47.0057 130.313 42.0137 136.407 42.0137C142.076 42.0137 146.096 46.7945 146.096 52.5065C146.1 53.0313 146.057 53.5554 145.969 54.0729H131.751C131.88 55.4342 132.526 56.6952 133.556 57.5992C134.586 58.5031 135.923 58.982 137.295 58.9385C138.271 58.9099 139.232 58.6853 140.119 58.2782C141.006 57.871 141.802 57.2896 142.458 56.5689L145.589 59.7017ZM140.469 50.0553C140.35 49.0649 139.871 48.1521 139.122 47.4894C138.374 46.8268 137.408 46.46 136.407 46.4585C135.367 46.4524 134.358 46.8086 133.555 47.4655C132.751 48.1223 132.203 49.0385 132.006 50.0553H140.469Z" fill="#909090"/>
<path fill-rule="evenodd" clip-rule="evenodd" d="M148.283 62.9593V42.4361H153.572V44.0857C155.201 42.7401 157.252 42.0068 159.368 42.0137C160.724 42.0099 162.064 42.3037 163.293 42.8742C164.522 43.4447 165.609 44.2779 166.478 45.3145C168.06 47.3675 168.815 49.9357 168.593 52.5145V62.9593H163.093V52.0793C163.17 51.3876 163.101 50.6874 162.889 50.0241C162.678 49.3607 162.329 48.7489 161.866 48.2281C161.028 47.4559 159.918 47.0452 158.777 47.0857C157.808 47.1142 156.857 47.3568 155.994 47.7959C155.13 48.235 154.376 48.8597 153.784 49.6249V62.9593H148.283Z" fill="#909090"/>
<path fill-rule="evenodd" clip-rule="evenodd" d="M182.759 42.0149C180.346 42.0099 177.986 42.7273 175.987 44.0741C173.988 45.4209 172.44 47.3349 171.546 49.5681C170.652 51.8014 170.451 54.2507 170.971 56.5987C171.491 58.9467 172.706 61.0851 174.461 62.7365C174.872 63.1268 175.41 63.3575 175.977 63.3869C176.545 63.4162 177.104 63.2423 177.554 62.8965C179.038 61.7963 180.838 61.202 182.688 61.202C184.538 61.202 186.339 61.7963 187.823 62.8965C188.277 63.2431 188.841 63.4155 189.412 63.3823C189.983 63.3491 190.523 63.1125 190.934 62.7157C192.674 61.0704 193.882 58.9448 194.402 56.6113C194.922 54.2778 194.73 51.8429 193.852 49.6185C192.974 47.3942 191.449 45.4818 189.472 44.1265C187.496 42.7713 185.158 42.0349 182.759 42.0117M182.688 60.0005C181.895 60.0219 181.106 59.882 180.369 59.5894C179.631 59.2969 178.962 58.8577 178.401 58.2988C177.839 57.7399 177.399 57.0729 177.105 56.3386C176.811 55.6043 176.67 54.818 176.691 54.0277C176.691 52.4432 177.323 50.9236 178.448 49.8032C179.573 48.6828 181.098 48.0533 182.688 48.0533C184.279 48.0533 185.804 48.6828 186.929 49.8032C188.054 50.9236 188.685 52.4432 188.685 54.0277C188.707 54.818 188.566 55.6043 188.272 56.3386C187.978 57.0729 187.537 57.7399 186.976 58.2988C186.415 58.8577 185.745 59.2969 185.008 59.5894C184.271 59.882 183.482 60.0219 182.688 60.0005Z" fill="#909090"/>
<path fill-rule="evenodd" clip-rule="evenodd" d="M205.569 62.9607H201.472L193.302 42.4375H198.794L203.274 54.1655L207.666 42.4375H212.256L216.609 54.1655L221.127 42.4375H226.621L218.451 62.9607H214.354L209.961 51.2743L205.569 62.9607Z" fill="#909090"/>
<path d="M226.683 60.6397H226.219V61.5085H225.824V59.1309H226.788C226.889 59.1304 226.989 59.1499 227.082 59.1882C227.175 59.2265 227.26 59.2828 227.332 59.3539C227.403 59.425 227.46 59.5095 227.498 59.6025C227.536 59.6955 227.556 59.7951 227.556 59.8957C227.554 60.0447 227.509 60.1901 227.424 60.3132C227.34 60.4363 227.221 60.5316 227.082 60.5869L227.625 61.5133H227.194L226.683 60.6397ZM226.219 60.2893H226.788C226.894 60.2893 226.996 60.2471 227.072 60.1721C227.147 60.0971 227.189 59.9954 227.189 59.8893C227.189 59.7832 227.147 59.6814 227.072 59.6064C226.996 59.5314 226.894 59.4893 226.788 59.4893H226.224L226.219 60.2893Z" fill="#909090"/>
<path d="M226.627 58.1574C227.065 58.1571 227.494 58.2862 227.858 58.5285C228.223 58.7707 228.507 59.1152 228.675 59.5183C228.842 59.9215 228.887 60.3652 228.801 60.7933C228.716 61.2214 228.505 61.6147 228.196 61.9234C227.886 62.2321 227.491 62.4424 227.062 62.5277C226.632 62.6129 226.187 62.5693 225.782 62.4024C225.377 62.2354 225.031 61.9526 224.788 61.5898C224.544 61.2269 224.414 60.8002 224.414 60.3638C224.415 59.7792 224.648 59.2187 225.063 58.8051C225.478 58.3916 226.04 58.1587 226.627 58.1574ZM226.627 57.8086C226.119 57.8086 225.622 57.9587 225.2 58.24C224.777 58.5213 224.448 58.9211 224.253 59.3889C224.059 59.8567 224.008 60.3714 224.107 60.868C224.206 61.3646 224.451 61.8208 224.81 62.1788C225.17 62.5368 225.628 62.7806 226.126 62.8794C226.624 62.9782 227.141 62.9275 227.611 62.7337C228.08 62.54 228.482 62.2118 228.764 61.7909C229.046 61.3699 229.197 60.8749 229.197 60.3686C229.197 59.6896 228.926 59.0385 228.444 58.5584C227.962 58.0783 227.309 57.8086 226.627 57.8086Z" fill="#909090"/>
</g>
<defs>
<clipPath id="clip0_2915_362">
<rect width="212" height="32" fill="white" transform="translate(18 32)"/>
</clipPath>
</defs>
</svg>
