<svg width="248" height="96" viewBox="0 0 248 96" fill="none" xmlns="http://www.w3.org/2000/svg">
<path d="M188.444 40.4315C188.444 38.7814 187.158 37.4727 185.531 37.4727H151.871C145.706 37.4727 140.764 42.2885 140.764 48.5501C140.764 54.8117 145.775 59.5577 151.871 59.5577H178.893C181.534 59.5577 183.634 62.0355 183.634 64.6476C183.634 67.3296 181.468 69.7376 178.893 69.7376H145.233C143.608 69.7376 142.32 71.0436 142.32 72.6964C142.32 74.3491 143.606 75.6552 145.233 75.6552H178.893C185.058 75.6552 190 70.8394 190 64.6476C190 58.386 184.989 53.64 178.893 53.64H151.871C149.23 53.64 147.13 51.1623 147.13 48.5501C147.13 45.8681 149.296 43.4602 151.871 43.4602H185.531C187.156 43.4602 188.444 42.0842 188.444 40.4342V40.4315Z" fill="#909090"/>
<path d="M129.113 24.3348C129.113 21.9269 127.216 20 124.845 20C122.475 20 120.578 21.9269 120.578 24.3348C120.578 26.7427 122.475 28.6695 124.845 28.6695C127.216 28.5997 129.113 26.6755 129.113 24.3348Z" fill="#909090"/>
<path d="M115.567 24.3348C115.567 21.9269 113.67 20 111.3 20C108.929 20 107.032 21.9269 107.032 24.3348C107.032 26.7427 108.929 28.6695 111.3 28.6695C113.67 28.5997 115.567 26.6755 115.567 24.3348Z" fill="#909090"/>
<path d="M102.021 24.3348C102.021 21.9269 100.124 20 97.7538 20C95.3833 20 93.4863 21.9269 93.4863 24.3348C93.4863 26.7427 95.3833 28.6695 97.7538 28.6695C100.124 28.5997 102.021 26.6755 102.021 24.3348Z" fill="#909090"/>
<path d="M88.5442 24.3348C88.5442 21.9269 86.6472 20 84.2767 20C81.9062 20 80.0093 21.9269 80.0093 24.3348C80.0093 26.7427 81.9062 28.6695 84.2767 28.6695C86.6472 28.5997 88.5442 26.6755 88.5442 24.3348Z" fill="#909090"/>
<path d="M74.9983 24.3348C74.9983 21.9269 73.1013 20 70.7308 20C68.3603 20 66.4634 21.9269 66.4634 24.3348C66.4634 26.7427 68.3603 28.6695 70.7308 28.6695C73.1013 28.5997 74.9983 26.6755 74.9983 24.3348Z" fill="#909090"/>
<path d="M106.019 37.4727C105.95 37.4727 105.815 37.4727 105.749 37.4727H77.099C65.72 37.4727 58 45.0404 58 56.5989V72.7663C58 74.5561 59.4234 75.9992 61.1827 75.9992C62.9421 75.9992 64.3655 74.5534 64.3655 72.7663V56.5989C64.3655 48.6173 69.1065 43.3903 77.099 43.3903H105.749C105.818 43.3903 105.953 43.3903 106.019 43.3903C107.643 43.3903 108.932 42.0842 108.932 40.4315C108.932 38.8486 107.646 37.4727 106.019 37.4727Z" fill="#909090"/>
<path d="M67.6143 56.5995C67.6143 58.2495 68.9 59.5583 70.5271 59.5583H99.7194C101.344 59.5583 102.632 58.2522 102.632 56.5995C102.632 54.9467 101.346 53.6406 99.7194 53.6406H70.5271C68.9027 53.6406 67.6143 55.0166 67.6143 56.5995Z" fill="#909090"/>
<path d="M121.663 40.4322V72.7669C121.663 74.5567 123.086 75.9999 124.845 75.9999C126.605 75.9999 128.028 74.554 128.028 72.7669V40.4322C128.028 38.6424 126.605 37.1992 124.845 37.1992C123.083 37.2691 121.663 38.7122 121.663 40.4322Z" fill="#909090"/>
</svg>
