<svg width="248" height="96" viewBox="0 0 248 96" fill="none" xmlns="http://www.w3.org/2000/svg">
<path d="M35.0029 59.9055C36.885 59.6734 38.6896 59.0805 40.3396 58.1523C44.4131 55.8836 46.7334 52.0164 46.9139 47.2211V46.7828H52.5857C52.2506 43.9211 51.142 41.3172 49.5436 39.0742L43.7943 42.7609C45.5475 45.5195 45.7795 48.5102 44.4131 51.5781C42.8404 55.2648 39.1795 58.4102 35.0029 59.9055Z" fill="#909090"/>
<path d="M52.6891 47.6602H47.7906C47.4555 52.507 44.9289 56.6063 40.7781 58.9008C38.4062 60.2156 35.6992 60.8859 32.9406 60.8859C30.8008 60.8859 28.6352 60.4992 26.5469 59.7258C29.0734 61.2727 31.8836 62.1492 34.7711 62.1492H34.8227C40.0563 62.1492 44.8 59.3906 47.4555 54.6984L47.6875 54.3117L50.9359 56.4C52.0961 54.1313 52.7148 51.6047 52.7148 48.8977C52.7148 48.4852 52.6891 48.0984 52.6891 47.6602Z" fill="#909090"/>
<path d="M34.8227 62.9996C29.5375 62.9996 24.6133 60.3957 21.1328 55.9355C23.7883 61.5559 29.5117 65.4746 36.1375 65.4746C42.2734 65.4746 47.6617 62.123 50.5234 57.1473L47.9453 55.5488C45.0836 60.1895 40.2367 62.9996 34.8227 62.9996Z" fill="#909090"/>
<path d="M36.1117 66.3512C26.4695 66.3512 18.632 58.5652 18.632 48.8715C18.632 39.2293 26.418 31.3918 36.1117 31.3918C45.8055 31.3918 53.5914 39.1777 53.5914 48.8715C53.5914 58.5137 45.7539 66.3512 36.1117 66.3512ZM36.1117 24.8691C22.8602 24.8691 12.1094 35.6199 12.1094 48.8715C12.1094 62.123 22.8602 72.8738 36.1117 72.8738C49.3633 72.8738 60.1141 62.123 60.1141 48.8715C60.1141 35.6199 49.3891 24.8691 36.1117 24.8691Z" fill="#909090"/>
<path d="M227.821 57.6883V53.5633H218.617V49.4383H226.867V45.6227H218.617V41.8586H227.331V37.8367H213.977V57.6883H227.821ZM202.839 45.1328C202.633 45.468 202.349 45.7258 202.014 45.8547C201.679 46.0094 201.292 46.1383 200.905 46.1898C200.467 46.2414 200.08 46.293 199.694 46.293H197.425V41.6523H200.003C200.338 41.6523 200.725 41.7039 201.112 41.7555C201.498 41.807 201.834 41.9102 202.169 42.0906C202.452 42.2453 202.762 42.4773 202.942 42.7609C203.148 43.0445 203.226 43.4313 203.226 43.8695C203.174 44.4109 203.097 44.7977 202.839 45.1328ZM209.001 57.6883L203.819 49.1805C205.134 48.7938 206.088 48.1234 206.861 47.1953C207.583 46.2672 207.97 45.1586 207.97 43.818C207.97 42.6578 207.763 41.7297 207.351 40.9562C206.913 40.1828 206.345 39.5641 205.598 39.1258C204.876 38.6359 204.051 38.3523 203.174 38.1203C202.246 37.9141 201.344 37.8367 200.364 37.8367H192.81V57.6883H197.502V49.8508H199.152L203.458 57.7398H209.001V57.6883ZM181.93 50.1344C181.647 50.9078 181.26 51.5266 180.77 52.068C180.28 52.6094 179.662 53.0477 178.991 53.3312C178.321 53.6148 177.548 53.8211 176.723 53.8211C175.898 53.8211 175.124 53.6664 174.454 53.3312C173.784 53.0477 173.139 52.6094 172.675 52.068C172.185 51.5266 171.798 50.8562 171.515 50.1344C171.231 49.3609 171.077 48.5359 171.077 47.6594C171.077 46.7828 171.231 46.0094 171.463 45.2359C171.747 44.5141 172.134 43.8437 172.623 43.3023C173.113 42.7609 173.732 42.3227 174.402 42.0391C175.073 41.7555 175.846 41.5492 176.671 41.5492C177.496 41.5492 178.27 41.7039 178.991 42.0391C179.662 42.3227 180.306 42.7609 180.77 43.3023C181.26 43.8437 181.647 44.4625 181.93 45.2359C182.214 45.9578 182.369 46.7828 182.369 47.6594C182.369 48.5359 182.214 49.3609 181.93 50.1344ZM186.674 43.3539C186.133 42.0906 185.359 40.982 184.405 40.1055C183.426 39.1773 182.266 38.507 180.977 38.0172C179.662 37.5273 178.218 37.2953 176.671 37.2953C175.124 37.2953 173.68 37.5273 172.366 38.0172C171.051 38.507 169.891 39.1773 168.937 40.1055C167.957 41.0336 167.235 42.0906 166.668 43.3539C166.127 44.6172 165.843 46.0609 165.843 47.6594C165.843 49.2062 166.127 50.65 166.668 51.9648C167.209 53.2797 167.983 54.3883 168.937 55.3164C169.916 56.2445 171.025 56.9664 172.366 57.4562C173.68 57.9461 175.124 58.2297 176.671 58.2297C178.218 58.2297 179.662 57.9977 180.977 57.4562C182.291 56.9664 183.452 56.2445 184.405 55.3164C185.385 54.3883 186.107 53.2797 186.674 51.9648C187.216 50.65 187.499 49.2578 187.499 47.6594C187.499 46.0609 187.216 44.6172 186.674 43.3539ZM163.007 54.9297L159.655 51.7844C159.217 52.3773 158.65 52.8414 157.954 53.2281C157.232 53.6148 156.407 53.8211 155.427 53.8211C154.602 53.8211 153.829 53.6664 153.159 53.3828C152.488 53.0992 151.844 52.6609 151.38 52.1195C150.89 51.5781 150.503 50.9594 150.22 50.1859C149.936 49.4641 149.781 48.6391 149.781 47.7109C149.781 46.8344 149.936 46.0094 150.22 45.2875C150.503 44.5656 150.89 43.9211 151.38 43.3539C151.87 42.8125 152.488 42.3742 153.159 42.0906C153.829 41.807 154.602 41.6008 155.479 41.6008C156.252 41.6008 156.974 41.7555 157.696 42.0391C158.418 42.3227 159.011 42.8125 159.449 43.4055L162.698 40.157C161.873 39.1773 160.764 38.4555 159.398 37.9914C158.031 37.5273 156.691 37.2695 155.273 37.2695C153.777 37.2695 152.359 37.5016 151.07 37.9914C149.755 38.4812 148.595 39.1516 147.641 40.0797C146.688 41.0078 145.888 42.0648 145.373 43.3797C144.857 44.6945 144.548 46.0867 144.548 47.6852C144.548 49.232 144.831 50.65 145.373 51.9391C145.914 53.2539 146.688 54.3625 147.59 55.2906C148.57 56.2187 149.678 56.9406 150.967 57.4305C152.256 57.9203 153.674 58.2039 155.221 58.2039C156.923 58.2039 158.366 57.9203 159.681 57.3273C161.022 56.7086 162.079 55.9352 163.007 54.9297ZM140.113 57.6883V53.5633H130.909V49.4383H139.134V45.6227H130.909V41.8586H139.623V37.8367H126.269V57.6883H140.113ZM120.984 41.9102V37.7852H104.948V41.9102H110.568V57.6367H115.363V41.9102H120.984ZM99.7398 37.8367H94.893V57.6883H99.7398V37.8367ZM89.0922 39.7703C88.2156 38.9453 87.2102 38.3781 86.05 37.9398C84.8898 37.5531 83.7297 37.3211 82.6211 37.3211C81.693 37.3211 80.7906 37.4242 79.8625 37.6562C78.9344 37.8883 78.1094 38.2492 77.3875 38.7648C76.6656 39.2547 76.0727 39.925 75.6344 40.6984C75.1961 41.4719 74.9641 42.4516 74.9641 43.5086C74.9641 44.4367 75.1188 45.1586 75.4023 45.7773C75.6859 46.3961 76.0727 46.9375 76.5625 47.3758C77.0523 47.8141 77.568 48.2008 78.2125 48.4328C78.8312 48.7164 79.4242 48.9742 80.0945 49.1547C80.7133 49.3609 81.3578 49.5414 81.8477 49.7477C82.3891 49.9539 82.7758 50.1344 83.1625 50.3406C83.4977 50.5469 83.7812 50.7789 83.9875 51.0625C84.1937 51.2945 84.2711 51.6555 84.2711 52.0422C84.2711 52.4289 84.168 52.7641 84.0391 53.0477C83.9102 53.3313 83.7039 53.5375 83.4461 53.718C83.2141 53.8727 82.9047 54.0016 82.5695 54.1047C82.2344 54.2078 81.8992 54.2078 81.5641 54.2078C80.7906 54.2078 79.9656 54.0016 79.1922 53.6148C78.4188 53.2281 77.7484 52.6867 77.2586 52.1195L74.1133 55.3164C74.9898 56.2445 76.0984 56.9148 77.4133 57.4562C78.7281 57.9461 80.1203 58.1781 81.5383 58.1781C82.518 58.1781 83.4719 58.0234 84.3484 57.7914C85.2766 57.5594 86.1016 57.1211 86.7719 56.5797C87.4938 56.0383 88.0352 55.368 88.4734 54.4914C88.9117 53.6664 89.0922 52.6609 89.0922 51.5266C89.0922 50.5469 88.8859 49.6961 88.4992 49.0516C88.1125 48.3813 87.6227 47.8398 87.0039 47.4016C86.4109 46.9633 85.7406 46.5766 85.0187 46.3445C84.2969 46.0609 83.575 45.8031 82.9305 45.6227C82.4406 45.468 82.0539 45.3391 81.6672 45.1844C81.2805 45.0297 80.9969 44.9008 80.6875 44.6945C80.4039 44.5398 80.1977 44.3078 80.0688 44.1016C79.9141 43.8695 79.8625 43.6117 79.8625 43.2766C79.8625 42.8898 79.9656 42.5547 80.1461 42.2969C80.3523 42.0648 80.5328 41.8586 80.8164 41.6781C81.0484 41.5234 81.3578 41.3945 81.693 41.343C82.0281 41.2914 82.3117 41.2398 82.6727 41.2398C83.2914 41.2398 83.9359 41.3945 84.6063 41.7297C85.2766 42.0133 85.818 42.4516 86.2047 42.993L89.0922 39.7703Z" fill="#909090"/>
<path d="M233.003 39.6664V39.0477H233.338C233.441 39.0477 233.544 39.0477 233.621 39.0992C233.699 39.1508 233.776 39.2023 233.776 39.3312C233.776 39.4859 233.725 39.5633 233.621 39.5633C233.518 39.6148 233.415 39.6148 233.286 39.6148H233.003V39.6664ZM232.616 40.9297H233.003V40.0016H233.286L233.828 40.9297H234.318L233.725 39.95C233.879 39.8984 234.008 39.8469 234.111 39.7437C234.214 39.6406 234.266 39.5117 234.266 39.357C234.266 39.2539 234.266 39.125 234.214 39.0734C234.163 38.9703 234.111 38.9187 234.008 38.8672C233.905 38.8156 233.854 38.7641 233.776 38.7641C233.699 38.7641 233.57 38.7125 233.493 38.7125H232.719V40.8781H232.616V40.9297ZM231.843 39.1766C231.946 38.9703 232.049 38.7898 232.178 38.6351C232.332 38.4805 232.513 38.3516 232.719 38.3C232.925 38.1969 233.157 38.1453 233.338 38.1453C233.57 38.1453 233.776 38.1969 233.957 38.3C234.163 38.4031 234.343 38.5062 234.498 38.6351C234.653 38.7641 234.782 38.9703 234.833 39.1766C234.936 39.3828 234.988 39.6148 234.988 39.7953C234.988 40.0273 234.936 40.2336 234.833 40.4141C234.73 40.6203 234.627 40.8008 234.498 40.9555C234.343 41.1101 234.163 41.2391 233.957 41.2906C233.75 41.3937 233.518 41.4453 233.338 41.4453C233.106 41.4453 232.9 41.3937 232.719 41.2906C232.513 41.1875 232.332 41.0844 232.178 40.9555C232.023 40.8008 231.894 40.6203 231.843 40.4141C231.739 40.2078 231.688 39.9758 231.688 39.7953C231.688 39.5633 231.739 39.3828 231.843 39.1766ZM231.559 40.5945C231.662 40.8266 231.791 41.0328 231.997 41.2133C232.204 41.4195 232.384 41.4969 232.616 41.6516C232.848 41.7547 233.106 41.8062 233.389 41.8062C233.673 41.8062 233.931 41.7547 234.163 41.6516C234.395 41.5484 234.601 41.4195 234.782 41.2133C234.988 41.007 235.117 40.8266 235.22 40.5945C235.323 40.3625 235.375 40.1047 235.375 39.8211C235.375 39.5375 235.323 39.2797 235.22 39.0477C235.117 38.8156 234.988 38.6094 234.782 38.4289C234.575 38.2227 234.395 38.0937 234.163 37.9906C233.931 37.8875 233.673 37.8359 233.389 37.8359C233.106 37.8359 232.848 37.8875 232.616 37.9906C232.384 38.0937 232.178 38.2227 231.997 38.4289C231.791 38.6352 231.662 38.8156 231.559 39.0477C231.456 39.2797 231.404 39.5375 231.404 39.8211C231.404 40.1047 231.456 40.3625 231.559 40.5945Z" fill="#909090"/>
</svg>
