<svg width="248" height="96" viewBox="0 0 248 96" fill="none" xmlns="http://www.w3.org/2000/svg">
<path d="M198.299 64.6186C196.563 63.4609 195.984 62.0139 195.019 59.8915C194.247 58.155 181.899 28.4414 181.899 28.4414H178.426C177.943 29.5991 173.216 42.3335 170.612 48.5077C169.743 50.5336 168.007 54.5855 165.306 60.1809C164.244 62.4962 162.797 63.8468 161.736 64.4257V35.8698C161.736 35.8698 161.64 33.3615 163.28 32.0109C164.823 30.7567 167.717 30.8532 167.717 30.8532V28.4414H152.861V30.9497C152.861 30.9497 156.237 30.8532 157.588 32.1074C158.938 33.458 158.745 35.9663 158.745 35.9663V55.0678L139.644 28.4414H126.138V30.8532C128.935 30.8532 131.733 31.5285 131.733 35.291V60.4703C131.733 60.4703 131.83 63.1715 130.768 64.0398C129.225 65.3904 126.138 65.2939 126.138 65.2939V67.8022H141.187V65.2939C141.187 65.2939 137.521 65.3904 135.785 63.9433C134.627 62.9786 134.724 60.5668 134.724 60.5668V37.7028L157.105 67.7057H174.277V65.1974C174.277 65.1974 170.515 65.2939 169.454 64.8116C168.875 64.5221 168.586 64.1362 168.393 63.5574C168.296 63.268 168.296 62.7856 168.393 62.1103C168.875 59.5056 171.094 54.7784 171.094 54.7784H183.153C183.153 54.7784 185.372 59.9879 186.24 62.0138C187.012 63.9433 186.53 64.8116 185.372 65.101C184.407 65.2939 181.32 65.2939 181.32 65.2939V67.8022H201V65.2939C201 65.2939 199.457 65.3904 198.299 64.6186ZM172.059 51.8842L176.979 40.1146L181.899 51.8842H172.059Z" fill="#909090"/>
<path d="M116.008 44.2624C113.5 43.4906 107.133 41.5612 104.721 39.2459C102.405 36.9305 103.853 33.1681 105.396 31.8175C109.93 27.7656 118.13 30.4669 121.603 42.333H123.822V28.4409H121.893C121.893 28.4409 120.639 30.4669 119.867 30.8527C119.578 31.0457 118.323 30.4669 117.648 30.1774C99.5113 20.2408 87.3557 43.4906 102.695 50.5331C105.975 52.0767 108.001 52.752 111.763 53.9097C118.323 55.8391 118.999 60.8557 116.78 63.5569C113.307 67.8017 102.598 69.0559 97.2924 53.3308H94.6876V64.2322C94.6876 64.2322 93.53 63.5569 92.7582 62.7852C89.2852 59.7945 82.918 50.5331 81.5674 48.7002C92.1794 46.6742 93.2406 36.9305 88.4169 31.8175L81.5674 37.7988C81.6639 39.0529 81.4709 40.5 81.085 42.14C79.9273 46.2884 75.8755 46.9637 73.2707 46.9637C72.499 46.9637 71.4378 46.8672 71.4378 46.8672L62.4658 54.8744V67.8017H71.4378V49.4719V49.5684C76.5508 56.225 81.085 62.8816 84.2686 67.8017H94.6876H97.4854C97.4854 67.8017 98.0642 67.0299 98.7395 66.2582C99.5113 65.3899 100.669 65.9687 101.248 66.2582C104.142 67.6088 106.843 68.2841 110.123 68.3806C128.164 68.9594 131.926 48.8931 116.008 44.2624Z" fill="#909090"/>
<path d="M195.017 27.957C197.043 27.957 198.683 29.5006 198.683 31.623C198.683 33.7454 197.043 35.2889 195.017 35.2889C192.992 35.2889 191.351 33.7454 191.351 31.623C191.255 29.5971 192.992 27.957 195.017 27.957ZM195.017 34.7101C196.754 34.7101 198.008 33.3595 198.008 31.5265C198.008 29.79 196.657 28.4394 195.017 28.4394C193.281 28.4394 192.027 29.79 192.027 31.5265C191.93 33.456 193.281 34.7101 195.017 34.7101ZM193.57 29.5006H195.21C196.272 29.5006 196.657 29.8865 196.657 30.7547C196.657 31.5265 196.175 31.8159 195.5 31.9124L196.754 33.8419H196.079L194.921 32.0089H194.246V33.8419H193.57V29.5006ZM194.246 31.43H194.921C195.5 31.43 196.079 31.43 196.079 30.7547C196.079 30.1759 195.596 30.0794 195.114 30.0794H194.246V31.43Z" fill="#909090"/>
<path d="M62.4646 54.7773V67.8011H47.8008L62.4646 54.7773Z" fill="#909090"/>
<path d="M71.4368 34.1313C71.4368 31.623 74.9098 30.8513 76.6463 31.0442C77.7075 31.1407 79.637 32.3948 80.7947 34.7102L86.1971 29.8865C84.6536 29.0183 82.8206 28.4395 80.6017 28.4395C72.0157 28.4395 57.2554 28.4395 57.2554 28.4395V30.9477C57.2554 30.9477 57.7377 30.9477 58.3166 30.9477C59.2813 31.0442 60.6319 31.1407 61.5966 32.2019C61.9825 32.5878 62.4649 33.649 62.4649 34.9996C62.4649 36.3502 62.4649 43.9715 62.4649 50.9176L71.4368 43.0068V34.1313Z" fill="#909090"/>
</svg>
