<svg width="248" height="96" viewBox="0 0 248 96" fill="none" xmlns="http://www.w3.org/2000/svg">
<path d="M58.3478 34.2704C65.2559 34.2704 67.959 37.5088 67.959 41.665C67.9928 42.8336 67.6895 43.9867 67.0864 44.9825C66.4833 45.9784 65.6067 46.7736 64.5643 47.2704C65.8339 47.7346 66.9258 48.5957 67.6828 49.7298C68.4399 50.8639 68.8232 52.2126 68.7775 53.5818C68.7775 58.0247 65.9992 61.263 58.8794 61.263H48.8597V34.2765L58.3478 34.2704ZM53.0721 38.2574V45.607H58.3478C62.356 45.607 63.7459 43.9459 63.7459 41.9532C63.7459 39.7943 62.3552 38.2574 58.3478 38.2574H53.0721ZM53.0721 49.3021V57.2745H58.8794C63.1331 57.2745 64.5643 55.6965 64.5643 53.2883C64.5643 51.0013 63.1331 49.3021 58.8794 49.3021H53.0721ZM72.7053 32.1953H76.7541V54.4097C76.7541 56.9422 77.4899 57.6877 78.5126 57.6877C79.0106 57.711 79.5054 57.5961 79.9438 57.3553L81.1294 61.0092C80.1265 61.4075 79.0571 61.6048 77.9803 61.5901C74.9955 61.5901 72.7046 59.7605 72.7046 54.4074L72.7053 32.1953ZM100.843 60.5937C98.0697 61.3481 95.2072 61.7113 92.3363 61.6732C87.3054 61.6732 83.6261 59.1407 83.6261 52.6632V40.4986H87.6749V52.9551C87.6749 56.8164 89.6377 57.7716 92.6232 57.7716C94.0099 57.8298 95.3983 57.704 96.753 57.3973V40.4986H100.842L100.843 60.5937ZM123.069 52.4551H109.2V52.6212C109.2 55.9847 111.409 57.77 115.008 57.77C117.204 57.8052 119.39 57.4539 121.469 56.7317L122.655 60.4275C120.198 61.2946 117.609 61.7162 115.008 61.6732C108.873 61.6732 105.028 58.601 105.028 51.2933V50.4212C105.028 43.1546 108.546 40.0816 114.067 40.0816C119.548 40.0816 123.064 43.1546 123.064 50.4212L123.069 52.4551ZM109.205 49.299H118.894V49.0916C118.894 45.604 117.012 43.984 114.068 43.984C111.124 43.984 109.201 45.6032 109.201 49.0916L109.205 49.299ZM135.904 50.7939V61.2569H131.651V50.8793L121.464 34.2704H126.245L133.771 46.8931L141.255 34.2704H146.04L135.904 50.7939ZM143.556 50.5454C143.556 43.1127 147.442 40.0816 152.758 40.0816C158.034 40.0816 161.96 43.1127 161.96 50.5454V51.2094C161.96 58.6414 158.034 61.6732 152.758 61.6732C147.442 61.6732 143.556 58.6422 143.556 51.2094V50.5454ZM157.829 50.5454C157.829 45.5628 155.949 43.9848 152.758 43.9848C149.529 43.9848 147.646 45.5628 147.646 50.5454V51.2094C147.646 56.192 149.528 57.77 152.758 57.77C155.949 57.77 157.829 56.1913 157.829 51.2094V50.5454ZM165.977 41.1619C168.734 40.3957 171.585 40.032 174.443 40.0816C179.474 40.0816 183.195 42.6149 183.195 49.0916V61.2577H179.145V48.8012C179.145 44.94 177.183 43.9848 174.197 43.9848C172.797 43.9334 171.396 44.0589 170.026 44.3583V61.2577H165.977V41.1619ZM204.149 60.5937C201.62 61.3146 199.005 61.6778 196.378 61.6732C190.775 61.6732 186.931 58.3105 186.931 51.2933V50.4623C186.931 43.2789 190.979 40.0816 196.5 40.0816C197.728 40.0537 198.95 40.2652 200.099 40.7045V32.1946H204.148L204.149 60.5937ZM191.021 51.2933C191.021 56.359 193.107 57.7731 196.502 57.7731C197.715 57.8137 198.928 57.6738 200.101 57.3576V44.6922C199.067 44.195 197.932 43.9531 196.788 43.9863C193.393 43.9863 191.021 45.3151 191.021 50.4661L191.021 51.2933ZM226.279 52.4558H212.412V52.622C212.412 55.9854 214.62 57.7708 218.219 57.7708C220.416 57.806 222.602 57.4547 224.68 56.7325L225.867 60.4283C223.409 61.2953 220.82 61.7169 218.219 61.6739C212.084 61.6739 208.24 58.6017 208.24 51.294V50.4219C208.24 43.1554 211.758 40.0824 217.279 40.0824C222.76 40.0824 226.276 43.1554 226.276 50.4219L226.279 52.4558ZM212.507 49.2998H222.199V49.0924C222.199 45.6047 220.318 43.9848 217.373 43.9848C214.428 43.9848 212.507 45.604 212.507 49.0924V49.2998ZM230.508 41.1619C232.732 40.4602 235.049 40.11 237.378 40.1236C238.935 40.1044 240.488 40.2858 242 40.6633L240.773 44.4414C239.749 44.148 238.688 44.0083 237.624 44.0267C236.592 44.0064 235.562 44.118 234.557 44.3591V61.2585H230.509L230.508 41.1619Z" fill="#909090"/>
<path d="M21.7409 31C20.715 31 19.7122 31.3089 18.8592 31.8875C18.0062 32.4662 17.3413 33.2886 16.9487 34.2509C16.5561 35.2132 16.4534 36.272 16.6535 37.2936C16.8537 38.3151 17.3477 39.2535 18.0731 39.9899C18.7985 40.7264 19.7228 41.228 20.729 41.4312C21.7352 41.6344 22.7781 41.5301 23.7259 41.1315C24.6738 40.7329 25.4839 40.0579 26.0538 39.1919C26.6238 38.3259 26.928 37.3077 26.928 36.2662C26.928 34.8695 26.3815 33.53 25.4088 32.5424C24.436 31.5548 23.1166 31 21.7409 31ZM21.7409 65C22.7668 65 23.7697 64.6911 24.6227 64.1125C25.4757 63.5338 26.1406 62.7114 26.5332 61.7491C26.9258 60.7868 27.0285 59.728 26.8283 58.7064C26.6282 57.6849 26.1342 56.7465 25.4088 56.0101C24.6833 55.2736 23.7591 54.772 22.7529 54.5688C21.7467 54.3656 20.7037 54.4699 19.7559 54.8685C18.8081 55.2671 17.998 55.9421 17.4281 56.8081C16.8581 57.6741 16.5539 58.6922 16.5539 59.7338C16.5539 61.1305 17.1004 62.47 18.0731 63.4576C19.0459 64.4452 20.3652 65 21.7409 65ZM22.8372 48C22.8372 48.2452 22.9062 48.4853 23.0362 48.692C23.1662 48.8986 23.3517 49.0632 23.5708 49.1664L31.0909 52.7669C31.8814 53.1447 32.7532 53.3137 33.6253 53.2581C34.4974 53.2025 35.3415 52.9242 36.0793 52.4489C36.8171 51.9737 37.4247 51.3169 37.8457 50.5395C38.2666 49.7621 38.4874 48.8894 38.4874 48.0023C38.4874 47.1152 38.2666 46.2424 37.8457 45.4651C37.4247 44.6877 36.8171 44.0309 36.0793 43.5556C35.3415 43.0804 34.4974 42.802 33.6253 42.7464C32.7532 42.6909 31.8814 42.8599 31.0909 43.2377L23.5701 46.8336C23.3509 46.9367 23.1654 47.1013 23.0355 47.308C22.9055 47.5147 22.8372 47.7548 22.8372 48ZM20.6447 48C20.6448 47.7549 20.5758 47.5148 20.446 47.3082C20.3161 47.1015 20.1308 46.9368 19.9118 46.8336L12.3925 43.2331C11.602 42.8561 10.7305 42.6879 9.85879 42.744C8.98713 42.8001 8.14354 43.0788 7.40625 43.5542C6.66896 44.0295 6.06183 44.6862 5.64119 45.4634C5.22055 46.2405 5 47.1129 5 47.9996C5 48.8864 5.22055 49.7587 5.64119 50.5358C6.06183 51.313 6.66896 51.9697 7.40625 52.4451C8.14354 52.9205 8.98713 53.1991 9.85879 53.2552C10.7305 53.3114 11.602 53.1431 12.3925 52.7661L19.9133 49.1664C20.132 49.0629 20.317 48.8982 20.4466 48.6915C20.5762 48.4849 20.6449 48.2449 20.6447 48Z" fill="#909090"/>
</svg>
