<svg width="248" height="96" viewBox="0 0 248 96" fill="none" xmlns="http://www.w3.org/2000/svg">
<path d="M139.333 48.7006C139.719 48.1083 139.916 47.2704 139.916 46.2065C139.916 45.1441 139.719 44.3076 139.334 43.7215C138.951 43.1416 138.372 42.8592 137.566 42.8592C136.758 42.8592 136.183 43.1416 135.807 43.7215C135.426 44.3077 135.233 45.1442 135.233 46.2065C135.233 47.2704 135.426 48.1099 135.807 48.7006C136.183 49.2883 136.758 49.5722 137.566 49.5722C138.372 49.5722 138.951 49.2868 139.333 48.7006Z" fill="#909090"/>
<path d="M160.307 43.7221C160.058 44.1051 159.897 44.5967 159.811 45.1873H164.193C164.149 44.6181 164.039 44.1051 163.785 43.7221C163.403 43.142 162.87 42.8215 162.064 42.8215C161.257 42.8215 160.683 43.1405 160.307 43.7221Z" fill="#909090"/>
<path d="M111.102 43.7221C110.853 44.1051 110.693 44.5967 110.606 45.1873H114.987C114.944 44.6181 114.833 44.1051 114.581 43.7221C114.198 43.142 113.665 42.8215 112.858 42.8215C112.052 42.8215 111.478 43.1405 111.102 43.7221Z" fill="#909090"/>
<path d="M96.9704 48.8862C97.0518 49.0114 97.0851 49.0602 97.3252 49.2541C97.3206 49.2526 97.8763 49.6936 99.1265 49.6173C100.005 49.5638 100.786 49.3945 100.786 49.3945H100.784V46.5707C100.784 46.5707 99.9978 46.4394 99.1175 46.4272C97.8643 46.4104 97.3313 46.8775 97.3358 46.8759C96.9658 47.14 96.7876 47.5322 96.7876 48.0787C96.7876 48.4237 96.8495 48.6954 96.9704 48.8862Z" fill="#909090"/>
<path fill-rule="evenodd" clip-rule="evenodd" d="M128.553 13.346C123.289 13.346 118.529 15.5792 115.111 19.1799C111.349 14.2084 105.417 11 98.7412 11C87.3711 11 78.1527 20.3047 78.1527 31.7831C78.1527 34.7214 78.7583 37.5163 79.8469 40.0485C74.559 43.1729 71 49.013 71 55.7015C71 65.6825 78.9214 73.7723 88.6923 73.7722C89.9396 73.7722 91.1552 73.641 92.3284 73.3891C95.0131 80.7508 102.007 86 110.214 86C118.095 86 124.856 81.1614 127.758 74.2607C129.966 75.3491 132.445 75.9611 135.067 75.9611C141.329 75.9611 146.784 72.4732 149.647 67.3111C151.129 67.6134 152.637 67.7653 154.148 67.7644C166.768 67.7644 177 57.3316 177 44.4612C177 31.5924 166.768 21.1595 154.148 21.1595C150.858 21.1595 147.731 21.8693 144.906 23.1453C141.655 17.2901 135.55 13.346 128.553 13.346ZM133.566 37.2502C133.798 37.2944 133.976 37.3357 134.173 37.3967C134.215 37.4134 134.334 37.473 134.286 37.6137L133.816 38.9172C133.777 39.0148 133.75 39.0743 133.549 39.0133C133.499 38.998 133.425 38.9766 133.235 38.9353C133.097 38.9064 132.915 38.885 132.731 38.885C132.488 38.885 132.266 38.9155 132.071 38.9796C131.88 39.0423 131.707 39.1506 131.556 39.3032C131.403 39.459 131.222 39.6865 131.125 39.9658C130.934 40.5261 130.841 41.1166 130.811 41.3065C130.806 41.3394 130.802 41.3604 130.801 41.3669H132.765C132.93 41.3669 132.981 41.4433 132.966 41.5668L132.737 42.8581C132.702 43.0458 132.531 43.0397 132.531 43.0397H130.508L129.123 50.9571C128.978 51.7751 128.796 52.4772 128.583 53.0421C128.368 53.6144 128.143 54.0326 127.785 54.4326C127.453 54.8019 127.079 55.0752 126.65 55.2324C126.222 55.388 125.706 55.4689 125.141 55.4689C124.871 55.4689 124.583 55.4644 124.241 55.3834C123.995 55.3239 123.861 55.2812 123.68 55.2171C123.603 55.1881 123.542 55.0919 123.585 54.9683C123.628 54.8446 123.991 53.8388 124.041 53.706C124.104 53.5458 124.263 53.6067 124.263 53.6067C124.373 53.6541 124.45 53.686 124.595 53.7151C124.741 53.7456 124.939 53.7701 125.087 53.7701C125.354 53.7701 125.599 53.7366 125.81 53.6648C126.067 53.5778 126.215 53.4283 126.372 53.2268C126.535 53.0161 126.667 52.7277 126.801 52.3429C126.938 51.9523 127.062 51.4379 127.169 50.812L128.547 43.0397H127.189C127.026 43.0397 126.973 42.962 126.99 42.8398L127.218 41.547C127.254 41.3607 127.423 41.3668 127.423 41.3668H128.818L128.894 40.9471C129.102 39.7 129.517 38.7521 130.129 38.1293C130.744 37.5035 131.619 37.186 132.731 37.186C133.049 37.186 133.33 37.2075 133.566 37.2502ZM106.549 51.0167C106.651 51.0167 106.725 50.9327 106.725 50.8289V37.5738C106.725 37.4701 106.651 37.3861 106.549 37.3861H104.919C104.817 37.3861 104.744 37.4701 104.744 37.5738V50.8289C104.744 50.9327 104.817 51.0167 104.919 51.0167H106.549ZM86.3826 50.1188C86.3509 50.0885 86.2983 50.0384 86.3533 49.893L86.7825 48.6901C86.8504 48.4825 87.0059 48.5512 87.0678 48.5909C87.1178 48.6214 87.1626 48.6507 87.2093 48.6813C87.2726 48.7227 87.3395 48.7665 87.4272 48.8183C88.691 49.6258 89.8612 49.6335 90.2282 49.6335C91.1735 49.6335 91.7593 49.1268 91.7593 48.446V48.4093C91.7593 47.6652 90.8597 47.3857 89.8146 47.061L89.5804 46.9882C88.1443 46.573 86.6118 45.9777 86.6118 44.1416V44.1049C86.6118 42.3633 88.0009 41.1483 89.991 41.1483L90.2084 41.1468C91.3771 41.1468 92.5066 41.4902 93.3235 41.9924C93.3974 42.0382 93.4699 42.1237 93.4292 42.2398C93.3914 42.3466 93.0289 43.3326 92.9867 43.4426C92.9097 43.6486 92.6998 43.5112 92.6998 43.5112C91.9841 43.1113 90.8728 42.7969 89.9366 42.7969C89.094 42.7969 88.5504 43.2487 88.5504 43.8624V43.9005C88.5504 44.6175 89.4795 44.9227 90.5569 45.2767L90.7444 45.3383C92.1744 45.7946 93.6978 46.4265 93.6978 48.1667V48.2033C93.6978 50.0853 92.348 51.2545 90.1736 51.2545C89.1061 51.2545 88.0852 51.0851 87.0041 50.5051C86.9621 50.4809 86.92 50.4572 86.8781 50.4335L86.8774 50.4331C86.7164 50.3422 86.5565 50.2519 86.3986 50.1357C86.395 50.1305 86.3892 50.125 86.3826 50.1188ZM118.214 50.1188C118.183 50.0885 118.13 50.0384 118.185 49.893L118.614 48.6901C118.677 48.4932 118.861 48.5649 118.901 48.5909C118.917 48.6012 118.932 48.6113 118.947 48.6212L118.973 48.6384C119.058 48.6942 119.139 48.7478 119.259 48.8183C120.522 49.6258 121.693 49.6335 122.059 49.6335C123.005 49.6335 123.592 49.1268 123.592 48.446V48.4093C123.592 47.6657 122.692 47.386 121.648 47.0616L121.412 46.9882C119.976 46.573 118.443 45.9777 118.443 44.1416V44.1049C118.443 42.3633 119.832 41.1483 121.822 41.1483L122.04 41.1468C123.208 41.1468 124.338 41.4902 125.155 41.9924C125.229 42.0382 125.301 42.1237 125.261 42.2398C125.223 42.3466 124.86 43.3326 124.818 43.4426C124.741 43.6486 124.531 43.5112 124.531 43.5112C123.816 43.1113 122.704 42.7969 121.768 42.7969C120.925 42.7969 120.382 43.2487 120.382 43.8624V43.9005C120.382 44.6175 121.311 44.9227 122.388 45.2766L122.39 45.2772L122.576 45.3383C124.006 45.7946 125.529 46.4265 125.529 48.1667V48.2033C125.529 50.0853 124.179 51.2545 122.005 51.2545C120.938 51.2545 119.917 51.0851 118.836 50.5051C118.793 50.4808 118.751 50.4569 118.709 50.4331C118.548 50.3423 118.388 50.2517 118.23 50.1357C118.227 50.1305 118.221 50.1251 118.214 50.1188ZM140.905 42.6409C141.275 43.0881 141.552 43.6253 141.731 44.2345C141.909 44.8404 141.998 45.5044 141.998 46.2065C141.998 46.9086 141.909 47.5727 141.731 48.1786C141.552 48.7876 141.275 49.3249 140.905 49.7721C140.535 50.2208 140.065 50.5796 139.511 50.8344C138.955 51.0894 138.302 51.2191 137.566 51.2191C136.829 51.2191 136.175 51.0894 135.62 50.8344C135.066 50.5796 134.596 50.2209 134.226 49.7721C133.855 49.3235 133.578 48.7861 133.399 48.1786C133.222 47.5742 133.133 46.9103 133.133 46.2065C133.133 45.5028 133.222 44.8404 133.399 44.2345C133.578 43.6269 133.856 43.0897 134.225 42.6409C134.596 42.1922 135.064 41.832 135.62 41.5694C136.174 41.3084 136.829 41.1756 137.566 41.1756C138.301 41.1756 138.957 41.3084 139.511 41.5694C140.067 41.832 140.535 42.1921 140.905 42.6409ZM156.404 49.1766C156.404 49.1766 156.575 49.1095 156.635 49.2881L157.081 50.5322C157.138 50.6862 157.007 50.7503 157.007 50.7503C156.321 51.0236 155.367 51.2143 154.437 51.2143C152.863 51.2143 151.657 50.755 150.853 49.8513C150.052 48.9506 149.645 47.7205 149.645 46.1987C149.645 45.495 149.745 44.8294 149.941 44.2235C150.139 43.616 150.435 43.0788 150.825 42.6301C151.214 42.1812 151.706 41.821 152.286 41.5601C152.867 41.2975 153.547 41.1662 154.31 41.1662C154.82 41.1662 155.279 41.1983 155.672 41.2593C156.091 41.3234 156.647 41.4745 156.883 41.5676C156.925 41.5844 157.043 41.6439 156.994 41.7828C156.88 42.1147 156.789 42.3681 156.693 42.6356L156.636 42.7947C156.62 42.8388 156.604 42.8838 156.587 42.9299C156.575 42.965 156.562 43.0009 156.549 43.0376C156.481 43.2268 156.337 43.1642 156.337 43.1642C155.74 42.9734 155.169 42.8864 154.42 42.8864C153.522 42.8864 152.848 43.1903 152.406 43.7825C151.96 44.3776 151.713 45.1592 151.709 46.1987C151.706 47.3405 151.987 48.1845 152.489 48.7065C152.988 49.2286 153.686 49.4926 154.565 49.4926C154.923 49.4926 155.256 49.4681 155.56 49.4209C155.859 49.3736 156.14 49.279 156.404 49.1766ZM165.135 42.4352C165.385 42.7069 165.768 43.3007 165.922 43.8883C166.289 45.1943 166.135 46.3342 166.108 46.5354C166.106 46.5498 166.105 46.5594 166.104 46.5639C166.087 46.7228 165.926 46.7258 165.926 46.7258L159.782 46.7197C159.821 47.6629 160.043 48.3315 160.498 48.7863C160.94 49.2306 161.647 49.5145 162.6 49.516C163.929 49.5187 164.566 49.2724 165.001 49.104C165.043 49.0878 165.083 49.0724 165.121 49.058C165.121 49.058 165.292 48.9955 165.352 49.1648L165.754 50.3021C165.836 50.4944 165.771 50.5616 165.703 50.5996C165.318 50.8149 164.383 51.2148 162.609 51.2209C161.747 51.2225 160.996 51.0973 160.378 50.8561C159.756 50.6136 159.237 50.2655 158.834 49.8213C158.429 49.3802 158.13 48.8476 157.943 48.2431C157.757 47.6433 157.663 46.9762 157.663 46.2603C157.663 45.5567 157.754 44.8897 157.934 44.2776C158.112 43.6624 158.393 43.1206 158.766 42.6658C159.139 42.2094 159.614 41.843 160.181 41.5743C160.745 41.3057 161.441 41.176 162.209 41.176C162.867 41.176 163.468 41.3194 163.969 41.5361C164.353 41.7041 164.739 42.0048 165.135 42.4352ZM115.93 42.4352C116.18 42.7069 116.561 43.3007 116.715 43.8883C117.083 45.1922 116.93 46.3305 116.903 46.5344C116.902 46.5422 116.901 46.5486 116.9 46.5536C116.9 46.5583 116.899 46.5617 116.899 46.5639C116.883 46.7228 116.721 46.7258 116.721 46.7258L110.577 46.7197C110.616 47.6629 110.838 48.3315 111.293 48.7863C111.735 49.2306 112.442 49.5145 113.393 49.516C114.725 49.5187 115.361 49.2725 115.796 49.1042C115.838 49.088 115.878 49.0725 115.916 49.058C115.916 49.058 116.087 48.9955 116.149 49.1648L116.549 50.3021C116.63 50.4944 116.566 50.5616 116.498 50.5996C116.113 50.8149 115.178 51.2148 113.404 51.2209C112.541 51.2225 111.791 51.0973 111.173 50.8561C110.551 50.6136 110.032 50.2655 109.629 49.8213C109.224 49.3802 108.925 48.8476 108.738 48.2431C108.552 47.6433 108.458 46.9762 108.458 46.2603C108.458 45.5567 108.551 44.8897 108.729 44.2776C108.907 43.6624 109.188 43.1206 109.561 42.6658C109.934 42.2094 110.409 41.843 110.976 41.5743C111.54 41.3057 112.238 41.176 113.003 41.176C113.662 41.176 114.263 41.3194 114.764 41.5361C115.147 41.7041 115.534 42.0048 115.93 42.4352ZM98.8109 44.8611C99.1974 44.8611 99.5206 44.8718 99.7698 44.8901C99.7698 44.8901 100.254 44.9343 100.783 45.0106V44.748C100.783 43.9207 100.612 43.5285 100.277 43.269C99.9329 43.0019 99.4226 42.8677 98.7581 42.8677C98.7581 42.8677 97.2633 42.8478 96.081 43.498C96.0265 43.5301 95.9798 43.5484 95.9798 43.5484C95.9798 43.5484 95.8332 43.6003 95.7789 43.4477L95.344 42.2663C95.2775 42.0953 95.3983 42.0189 95.3983 42.0189C95.951 41.5824 97.2933 41.3198 97.2933 41.3198C97.7373 41.2298 98.4787 41.1656 98.9393 41.1656C100.167 41.1656 101.117 41.4542 101.761 42.025C102.409 42.5974 102.738 43.5209 102.738 44.7665L102.741 50.446C102.741 50.446 102.753 50.611 102.601 50.6491C102.458 50.6883 102.314 50.7255 102.171 50.7605C101.965 50.8077 101.225 50.9589 100.623 51.0627C100.014 51.1681 99.3862 51.2199 98.7565 51.2199C98.1585 51.2199 97.612 51.1635 97.1303 51.0521C96.6411 50.9406 96.2198 50.756 95.8785 50.5042C95.5343 50.2522 95.2641 49.9256 95.0768 49.5334C94.8895 49.1425 94.7959 48.6648 94.7959 48.1153C94.7959 47.5749 94.9062 47.0926 95.1236 46.6835C95.3387 46.2774 95.6435 45.9269 96.0144 45.6593C96.3859 45.3908 96.8178 45.1877 97.2979 45.058C97.7751 44.9282 98.284 44.8611 98.8109 44.8611ZM149.232 41.4671C149.273 41.4823 149.371 41.5494 149.324 41.69C149.267 41.8593 148.968 42.7096 148.862 42.9935C148.823 43.1018 148.757 43.1751 148.639 43.1613C148.639 43.1613 148.285 43.0775 147.964 43.0775C147.74 43.0775 147.425 43.1064 147.139 43.195C146.86 43.282 146.605 43.4361 146.38 43.6559C146.156 43.8773 145.975 44.1855 145.842 44.5703C145.706 44.9595 145.638 45.5792 145.638 46.2004V50.8283C145.639 50.8783 145.619 50.9263 145.584 50.9618C145.55 50.9973 145.502 51.0174 145.453 51.0176H143.839C143.736 51.0176 143.651 50.9321 143.651 50.8283V41.5648C143.651 41.4593 143.725 41.3755 143.828 41.3755H145.403C145.506 41.3755 145.58 41.4594 145.58 41.5648V42.3203C145.815 42.0012 146.238 41.7204 146.618 41.5464C147.002 41.3725 147.431 41.2412 148.202 41.2885C148.606 41.3144 149.128 41.4259 149.232 41.4671Z" fill="#909090"/>
</svg>
