<svg width="248" height="96" viewBox="0 0 248 96" fill="none" xmlns="http://www.w3.org/2000/svg">
<path d="M93.408 62.6022H87.1005L92.5445 51.5753H92.6195L93.408 62.6022ZM93.7083 67.5699L94.0838 71.9355H100.992L98.7017 46.457H88.4146L75.3867 71.9355H82.445L84.6226 67.5699H93.7083Z" fill="#909090"/>
<path d="M110.679 60.7957H111.692L116.648 54.0968H123.031L116.198 62.6775L120.403 71.9355H113.607L110.867 64.7097H109.853L108.314 71.9355H102.494L107.863 46.457H113.72L110.679 60.7957Z" fill="#909090"/>
<path d="M130.502 64.5587C132.417 64.5587 133.656 64.7093 133.356 66.177C132.943 68.0588 132.154 68.3598 129.714 68.3598C128.813 68.3598 127.161 68.3598 127.574 66.4405C127.912 64.8222 129.075 64.5587 130.502 64.5587ZM132.117 71.9351H137.936L140.301 60.7953C141.615 54.6609 139.25 53.9082 133.28 53.9082C129.113 53.9082 125.096 53.8706 123.894 59.4028H129.714C130.052 57.7846 131.028 57.4835 132.492 57.4835C135.045 57.4835 134.932 58.5372 134.557 60.1932L133.956 63.0157H133.693C133.468 60.9835 130.915 61.0211 129.263 61.0211C125.058 61.0211 122.543 62.3383 121.642 66.6286C120.666 71.1824 122.843 72.1609 126.898 72.1609C128.925 72.1609 131.666 71.7469 132.605 69.3007H132.792L132.117 71.9351Z" fill="#909090"/>
<path d="M149.724 54.0964L149.198 56.6179H149.424C150.587 54.5104 152.878 53.9082 154.868 53.9082C157.383 53.9082 159.861 54.3598 159.523 57.4082H159.786C160.649 54.8491 163.24 53.9082 165.493 53.9082C169.585 53.9082 171.349 55.6018 170.448 59.7415L167.858 71.9351H162.038L164.216 61.6233C164.516 59.7415 164.817 58.3867 162.564 58.3867C160.311 58.3867 159.523 59.8921 159.148 61.8114L157.008 71.9351H151.188L153.478 61.134C153.741 59.5157 153.891 58.3867 151.864 58.3867C149.461 58.3867 148.748 59.6663 148.297 61.8114L146.157 71.9351H140.338L144.13 54.0964H149.724Z" fill="#909090"/>
<path d="M179.61 64.5587C181.487 64.5587 182.763 64.7093 182.463 66.177C182.088 68.0588 181.262 68.3598 178.821 68.3598C177.958 68.3598 176.268 68.3598 176.681 66.4405C177.019 64.8222 178.183 64.5587 179.61 64.5587ZM181.224 71.9351H187.043L189.409 60.7953C190.723 54.6609 188.358 53.9082 182.388 53.9082C178.221 53.9082 174.166 53.8706 173.002 59.4028H178.821C179.159 57.7846 180.135 57.4835 181.6 57.4835C184.153 57.4835 184.04 58.5372 183.664 60.1932L183.139 63.0157H182.876C182.651 60.9835 180.098 61.0211 178.446 61.0211C174.241 61.0211 171.725 62.3383 170.824 66.6286C169.848 71.1824 172.026 72.1609 176.081 72.1609C178.108 72.1609 180.849 71.7469 181.825 69.3007H182.013L181.224 71.9351Z" fill="#909090"/>
<path d="M195.453 71.9364H189.634L193.388 54.0977H199.208L195.453 71.9364Z" fill="#909090"/>
<path d="M78.3526 78.107C65.4374 74.1554 56.0138 62.1876 56.0138 48.0371C56.0138 33.6984 65.6251 21.6178 78.7656 17.8167C80.1172 17.4403 79.7418 16.5371 78.1274 16.5371C60.6693 16.5371 46.4775 30.65 46.4775 48.0371C46.4775 65.4242 60.6317 79.4995 78.1274 79.4995C79.7418 79.4995 79.8169 78.5586 78.3526 78.107Z" fill="#909090"/>
<path d="M62.021 55.3755C61.9459 54.5476 61.8708 53.682 61.8708 52.8164C61.8708 39.0046 73.0215 27.8272 86.8002 27.8272C99.8281 27.8272 103.733 33.6605 104.221 33.2841C104.746 32.8702 99.4902 21.3164 84.2097 21.3164C70.4309 21.3164 59.2803 32.4938 59.2803 46.3057C59.2803 49.5046 59.881 52.553 60.9698 55.3379C61.4203 56.5422 62.1336 56.5422 62.021 55.3755Z" fill="#909090"/>
<path d="M72.4577 37.3865C78.9153 34.5639 87.0624 34.4886 95.0593 37.2736C100.428 39.1553 103.544 41.8273 103.807 41.7144C104.22 41.5263 100.691 35.8811 94.2709 33.4725C86.4992 30.537 78.1644 32.08 72.0822 36.8596C71.4065 37.3865 71.6693 37.7252 72.4577 37.3865Z" fill="#909090"/>
<path d="M200.522 49.1668C200.522 50.9732 199.058 52.441 197.256 52.441C195.453 52.441 193.989 50.9732 193.989 49.1668C193.989 47.3603 195.453 45.8926 197.256 45.8926C199.058 45.8926 200.522 47.3603 200.522 49.1668Z" fill="#909090"/>
</svg>
