<svg width="248" height="96" viewBox="0 0 248 96" fill="none" xmlns="http://www.w3.org/2000/svg">
<path fill-rule="evenodd" clip-rule="evenodd" d="M49.1376 39.0089C48.7431 39.9095 48.1185 40.6172 47.2966 41.1319C46.5733 41.5822 45.7843 41.8073 44.9296 41.8395C44.568 41.8395 44.2392 41.5822 44.2392 41.1962C44.2392 40.8423 44.5022 40.5207 44.8638 40.5207C45.4885 40.4885 46.0802 40.3277 46.5733 40.006C47.1651 39.6522 47.5925 39.1375 47.8883 38.462C48.0527 38.076 48.0198 37.6579 47.8226 37.2719C47.5925 36.918 47.2308 36.6928 46.8035 36.6607C45.9158 36.5963 45.1597 36.8858 44.568 37.4648C43.6146 38.3977 43.253 40.0704 43.0886 40.778C42.9571 41.3892 41.3791 48.0155 40.7545 50.6853C40.6558 51.1035 40.2942 51.393 39.834 51.393C39.4066 51.393 39.0121 51.1035 38.9135 50.6853L38.6833 49.7203C37.9601 46.6967 36.7108 41.3249 36.5793 40.778C36.415 40.0704 36.0205 38.3977 35.1 37.4648C34.5082 36.8858 33.785 36.6285 32.8645 36.6607C32.4371 36.6928 32.0755 36.918 31.8453 37.2719C31.6152 37.6257 31.5823 38.076 31.7796 38.462C32.0755 39.1053 32.5357 39.62 33.0946 40.006C33.6206 40.3277 34.1795 40.4885 34.8041 40.5207C35.1657 40.5207 35.4616 40.8423 35.4287 41.1962C35.4287 41.55 35.1 41.8395 34.7383 41.8395C33.8836 41.8073 33.0617 41.5822 32.3713 41.1319C31.5495 40.6172 30.9248 39.9095 30.5303 39.0089C30.1687 38.2369 30.2345 37.3362 30.6947 36.5964C31.155 35.8565 31.9111 35.4062 32.7658 35.374C34.048 35.3097 35.1657 35.6957 35.9876 36.5642C37.204 37.7544 37.6313 39.6843 37.8286 40.5207C37.9601 41.0353 39.045 45.6995 39.8011 48.7875C40.5243 45.6995 41.6421 41.0032 41.7736 40.5207C41.9708 39.6843 42.3982 37.7544 43.6146 36.5642C44.4693 35.7279 45.5871 35.3097 46.8363 35.374C47.6911 35.4383 48.4472 35.8887 48.9075 36.5964C49.4006 37.304 49.4663 38.2047 49.1376 39.0089ZM43.1872 28.5547C42.2996 28.5547 41.3791 28.7155 40.4915 29.005C40.097 29.1337 39.6367 29.1337 39.2422 29.005C38.3546 28.7155 37.4341 28.5547 36.5465 28.5547C31.418 28.5547 27.1113 33.637 27.1113 39.6522C27.1113 46.3429 32.2727 52.2615 39.6367 53.9985C39.8011 54.0307 39.9326 54.0307 40.097 53.9985C47.461 52.2294 52.6223 46.3107 52.6223 39.6522C52.6223 33.637 48.2828 28.5547 43.1872 28.5547Z" fill="#909090"/>
<path fill-rule="evenodd" clip-rule="evenodd" d="M40.3925 55.2853C40.2282 55.3175 40.0309 55.3496 39.8665 55.3496C39.6693 55.3496 39.5049 55.3175 39.3405 55.2853C31.3519 53.3875 25.796 46.9541 25.796 39.6523C25.796 32.9295 30.7273 27.236 36.5462 27.236C37.5653 27.236 38.6173 27.3968 39.6693 27.7506C39.8008 27.7828 39.9652 27.7828 40.0967 27.7506C41.1158 27.3968 42.1678 27.236 43.2198 27.236C49.0387 27.236 53.9699 32.9295 53.9699 39.6523C53.937 46.9541 48.3812 53.3875 40.3925 55.2853ZM53.1809 53.484C53.1809 53.8378 52.885 54.1595 52.5234 54.1595C52.1618 54.1595 51.8659 53.87 51.8659 53.484V52.5511C51.8659 52.1973 52.1618 51.8756 52.5234 51.8756C52.885 51.8756 53.1809 52.1651 53.1809 52.5511V53.484ZM53.1809 57.6656C53.1809 58.0195 52.885 58.3411 52.5234 58.3411C52.1618 58.3411 51.8659 58.0516 51.8659 57.6656V56.7328C51.8659 56.379 52.1618 56.0573 52.5234 56.0573C52.885 56.0573 53.1809 56.3468 53.1809 56.7328V57.6656ZM48.94 59.7565C48.94 60.1103 48.6442 60.432 48.2825 60.432C47.9209 60.432 47.625 60.1425 47.625 59.7565V58.8236C47.625 58.4698 47.9209 58.1481 48.2825 58.1481C48.6442 58.1481 48.94 58.4376 48.94 58.8236V59.7565ZM48.94 63.9381C48.94 64.292 48.6442 64.6136 48.2825 64.6136C47.9209 64.6136 47.625 64.3241 47.625 63.9381V63.0053C47.625 62.6515 47.9209 62.3298 48.2825 62.3298C48.6442 62.3298 48.94 62.6193 48.94 63.0053V63.9381ZM44.732 61.8473C44.732 62.2011 44.4362 62.5228 44.0745 62.5228C43.7129 62.5228 43.417 62.2333 43.417 61.8473V60.9145C43.417 60.5606 43.7129 60.239 44.0745 60.239C44.4362 60.239 44.732 60.5285 44.732 60.9145V61.8473ZM44.732 66.029C44.732 66.3828 44.4362 66.7045 44.0745 66.7045C43.7129 66.7045 43.417 66.415 43.417 66.029V65.0961C43.417 64.7423 43.7129 64.4206 44.0745 64.4206C44.4362 64.4206 44.732 64.7101 44.732 65.0961V66.029ZM40.524 59.7565C40.524 60.1103 40.2282 60.432 39.8665 60.432C39.5049 60.432 39.209 60.1425 39.209 59.7565V58.8236C39.209 58.4698 39.5049 58.1481 39.8665 58.1481C40.2282 58.1481 40.524 58.4376 40.524 58.8236V59.7565ZM40.524 63.9381C40.524 64.292 40.2282 64.6136 39.8665 64.6136C39.5049 64.6136 39.209 64.3241 39.209 63.9381V63.0053C39.209 62.6515 39.5049 62.3298 39.8665 62.3298C40.2282 62.3298 40.524 62.6193 40.524 63.0053V63.9381ZM36.316 61.8473C36.316 62.2011 36.0202 62.5228 35.6585 62.5228C35.2969 62.5228 35.001 62.2333 35.001 61.8473V60.9145C35.001 60.5606 35.2969 60.239 35.6585 60.239C36.0202 60.239 36.316 60.5285 36.316 60.9145V61.8473ZM36.316 66.029C36.316 66.3828 36.0202 66.7045 35.6585 66.7045C35.2969 66.7045 35.001 66.415 35.001 66.029V65.0961C35.001 64.7423 35.2969 64.4206 35.6585 64.4206C36.0202 64.4206 36.316 64.7101 36.316 65.0961V66.029ZM32.108 59.7565C32.108 60.1103 31.8122 60.432 31.4505 60.432C31.0889 60.432 30.793 60.1425 30.793 59.7565V58.8236C30.793 58.4698 31.0889 58.1481 31.4505 58.1481C31.8122 58.1481 32.108 58.4376 32.108 58.8236V59.7565ZM32.108 63.9381C32.108 64.292 31.8122 64.6136 31.4505 64.6136C31.0889 64.6136 30.793 64.3241 30.793 63.9381V63.0053C30.793 62.6515 31.0889 62.3298 31.4505 62.3298C31.8122 62.3298 32.108 62.6193 32.108 63.0053V63.9381ZM27.9 53.484C27.9 53.8378 27.6042 54.1595 27.2425 54.1595C26.8809 54.1595 26.585 53.87 26.585 53.484V52.5511C26.585 52.1973 26.8809 51.8756 27.2425 51.8756C27.6042 51.8756 27.9 52.1651 27.9 52.5511V53.484ZM27.9 57.6656C27.9 58.0195 27.6042 58.3411 27.2425 58.3411C26.8809 58.3411 26.585 58.0516 26.585 57.6656V56.7328C26.585 56.379 26.8809 56.0573 27.2425 56.0573C27.6042 56.0573 27.9 56.3468 27.9 56.7328V57.6656ZM39.8665 23.8906C30.7602 23.8906 23.3633 31.2246 23.3633 40.2956V54.4811C23.3633 63.5521 30.7602 70.8861 39.8665 70.8861C48.9729 70.8861 56.3698 63.5521 56.3698 54.4811V40.2956C56.3698 31.2246 48.9729 23.8906 39.8665 23.8906Z" fill="#909090"/>
<path fill-rule="evenodd" clip-rule="evenodd" d="M75.4374 46.6656C72.4129 45.8936 71.1637 45.4433 71.1637 43.7706C71.1637 42.5483 72.2814 41.6155 74.2539 41.6155C76.2593 41.6155 77.5086 42.4196 78.4619 43.642L80.8947 41.6798C79.3496 39.7176 77.2784 38.5918 74.1882 38.5918C70.3418 38.5918 67.7776 40.747 67.7776 43.8671C67.7776 47.2446 70.0788 48.6921 73.9581 49.7215C77.3442 50.6543 78.6921 51.362 78.6921 53.0346C78.6921 54.6108 77.2784 55.5758 74.7799 55.5758C72.1828 55.5758 70.2103 54.4178 69.0268 52.4878L66.4297 54.2891C68.2049 56.959 71.0651 58.5995 74.7799 58.5995C79.4153 58.5995 82.2097 56.4443 82.2097 52.8416C82.2097 49.3676 79.6126 47.695 75.4374 46.6656Z" fill="#909090"/>
<path fill-rule="evenodd" clip-rule="evenodd" d="M95.9842 55.4783C92.1378 55.4783 89.5736 52.6476 89.5736 48.6268C89.5736 44.5738 92.1378 41.7109 95.9842 41.7109C99.7977 41.7109 102.263 44.5416 102.263 48.6268C102.263 52.6476 99.7648 55.4783 95.9842 55.4783ZM102.165 42.2899C100.784 39.9096 98.4827 38.5586 95.2938 38.5586C89.9023 38.5586 85.793 42.8689 85.793 48.5946C85.793 54.2881 89.9023 58.5663 95.2938 58.5663C98.4827 58.5663 100.817 57.2474 102.165 54.8671V58.1159H105.781V39.0089H102.165V42.2899Z" fill="#909090"/>
<path fill-rule="evenodd" clip-rule="evenodd" d="M134.021 38.5898C130.865 38.5898 128.695 39.7478 127.15 42.1282C125.966 39.7478 123.895 38.5898 121.265 38.5898C118.602 38.5898 116.531 39.6835 115.446 41.6778V39.0723H111.83V58.1793H115.446V47.1783C115.446 43.7043 117.287 41.7744 120.476 41.7744C123.271 41.7744 124.618 43.4148 124.618 46.4063V58.1472H128.235V47.0497C128.235 43.6722 130.01 41.7744 133.265 41.7744C135.993 41.7744 137.407 43.3505 137.407 46.3742V58.1472H141.023V45.956C141.056 41.324 138.097 38.5898 134.021 38.5898Z" fill="#909090"/>
<path fill-rule="evenodd" clip-rule="evenodd" d="M154.107 46.6637C151.083 45.8917 149.834 45.4413 149.834 43.7687C149.834 42.5463 150.951 41.6135 152.924 41.6135C154.929 41.6135 156.178 42.4177 157.132 43.64L159.565 41.6778C158.019 39.7157 155.948 38.5898 152.858 38.5898C149.012 38.5898 146.447 40.745 146.447 43.8652C146.447 47.2427 148.749 48.6902 152.628 49.7195C156.014 50.6523 157.362 51.36 157.362 53.0327C157.362 54.6089 155.948 55.5739 153.45 55.5739C150.853 55.5739 148.88 54.4158 147.697 52.4858L145.1 54.2872C146.875 56.957 149.735 58.5975 153.45 58.5975C158.085 58.5975 160.88 56.4424 160.88 52.8397C160.88 49.3657 158.282 47.693 154.107 46.6637Z" fill="#909090"/>
<path fill-rule="evenodd" clip-rule="evenodd" d="M174.654 55.4783C170.807 55.4783 168.243 52.6476 168.243 48.6268C168.243 44.5738 170.807 41.7109 174.654 41.7109C178.467 41.7109 180.933 44.5416 180.933 48.6268C180.933 52.6476 178.434 55.4783 174.654 55.4783ZM180.801 42.2899C179.421 39.9096 177.119 38.5586 173.931 38.5586C168.539 38.5586 164.43 42.8689 164.43 48.5946C164.43 54.2881 168.539 58.5663 173.931 58.5663C177.119 58.5663 179.454 57.2474 180.801 54.8671V58.1159H184.418V39.0089H180.801V42.2899Z" fill="#909090"/>
<path fill-rule="evenodd" clip-rule="evenodd" d="M213.743 55.4783C209.897 55.4783 207.332 52.6476 207.332 48.6268C207.332 44.5738 209.897 41.7109 213.743 41.7109C217.557 41.7109 220.022 44.5416 220.022 48.6268C220.055 52.6476 217.557 55.4783 213.743 55.4783ZM219.924 39.0411V42.2899C218.543 39.9096 216.242 38.5586 213.053 38.5586C207.661 38.5586 203.552 42.8689 203.552 48.5946C203.552 54.2881 207.661 58.5663 213.053 58.5663C216.242 58.5663 218.576 57.2474 219.924 54.8671V58.1159H223.54V39.0089H219.924V39.0411Z" fill="#909090"/>
<path fill-rule="evenodd" clip-rule="evenodd" d="M194.116 43.447V39.0402H190.5V58.1472H194.116V48.2077L202.138 41.2275L199.738 38.5898L194.116 43.447Z" fill="#909090"/>
</svg>
