<svg width="248" height="96" viewBox="0 0 248 96" fill="none" xmlns="http://www.w3.org/2000/svg">
<path d="M86.1594 28.1331H95.4372V68.7476H86.1594V64.5132C82.0748 69.344 77.115 70 74.2558 70C62.0021 70 55 59.5631 55 48.4105C55 35.1706 63.8693 27.0596 74.3725 27.0596C77.2901 27.0596 82.4249 27.835 86.1594 32.8447V28.1331ZM64.5112 48.6491C64.5112 55.6865 68.8292 61.5908 75.5395 61.5908C81.3746 61.5908 86.8013 57.2372 86.8013 48.7684C86.8013 39.8821 81.433 35.6477 75.5395 35.6477C68.8292 35.5881 64.5112 41.3731 64.5112 48.6491ZM106.466 28.1331H115.743V31.7712C116.794 30.5187 118.311 29.147 119.595 28.3717C121.403 27.2982 123.154 27 125.255 27C127.53 27 129.981 27.3578 132.548 28.9085L128.756 37.4965C126.655 36.1248 124.963 36.0652 124.029 36.0652C122.045 36.0652 120.061 36.3634 118.252 38.2718C115.685 41.0749 115.685 44.9515 115.685 47.6352V68.6879H106.407L106.466 28.1331ZM138.442 28.1331H147.72V31.8904C150.812 28.0139 154.488 27.0596 157.523 27.0596C161.666 27.0596 165.575 29.0874 167.792 33.0236C171.118 28.1928 176.078 27.0596 179.579 27.0596C184.422 27.0596 188.624 29.3856 190.899 33.4411C191.658 34.8128 193 37.7947 193 43.699V68.8072H183.722V46.4424C183.722 41.9098 183.255 40.061 182.847 39.2261C182.263 37.6755 180.863 35.6477 177.537 35.6477C175.261 35.6477 173.277 36.9001 172.052 38.6297C170.418 40.9556 170.243 44.4147 170.243 47.8738V68.8072H160.965V46.4424C160.965 41.9098 160.499 40.061 160.09 39.2261C159.507 37.6755 158.106 35.6477 154.78 35.6477C152.504 35.6477 150.521 36.9001 149.295 38.6297C147.661 40.9556 147.486 44.4147 147.486 47.8738V68.8072H138.442V28.1331Z" fill="#909090"/>
</svg>
