<svg width="248" height="96" viewBox="0 0 248 96" fill="none" xmlns="http://www.w3.org/2000/svg">
<path d="M125.487 13.0296C131.602 12.8174 137.757 13.7447 143.525 15.8081C152.202 18.8789 159.957 24.5064 165.632 31.796C168.128 34.994 170.219 38.5093 171.857 42.2285C172.148 42.8473 172.372 43.5429 172.216 44.2325C172.025 45.3901 171.019 46.3471 169.861 46.4627C168.659 46.6399 167.416 45.8837 166.988 44.7416C163.729 37.0115 158.168 30.2971 151.232 25.6492C146.943 22.7603 142.134 20.6566 137.109 19.4788C130.63 17.9509 123.808 17.9509 117.327 19.4742C108.074 21.6223 99.6015 26.9732 93.6259 34.4083C91.0922 37.541 89.0002 41.0331 87.423 44.7483C87.0817 45.6116 86.2975 46.2884 85.3825 46.44C84.5001 46.6117 83.5396 46.3045 82.9244 45.642C82.199 44.9093 81.9618 43.7383 82.3358 42.7767C86.6763 32.4311 94.7133 23.7402 104.595 18.567C111.03 15.1711 118.23 13.2769 125.487 13.0296Z" fill="#909090"/>
<path d="M117.406 44.8836C117.369 44.3463 117.873 43.9443 118.373 43.9315C119.022 43.9139 119.673 43.9194 120.324 43.9288C120.776 43.9443 121.304 44.248 121.302 44.7599C121.325 50.7713 121.288 56.7847 121.322 62.7996C123.738 60.0911 126.175 57.3975 128.599 54.6972C129.077 54.2224 129.454 53.5032 130.197 53.4413C131.198 53.3996 132.201 53.4244 133.203 53.4258C133.589 53.3908 134.02 53.7477 133.885 54.1631C133.726 54.4838 133.436 54.7039 133.198 54.9585C130.577 57.5996 127.945 60.2313 125.336 62.8837C127.856 65.7835 130.341 68.7128 132.849 71.6232C133.172 72.0374 133.576 72.3889 133.846 72.8454C134.045 73.2023 133.716 73.6367 133.337 73.6535C132.504 73.7007 131.669 73.6535 130.834 73.6737C130.4 73.6636 129.93 73.7276 129.536 73.502C129.12 73.2616 128.868 72.832 128.571 72.4704C126.151 69.399 123.748 66.3154 121.32 63.2494C121.295 66.273 121.313 69.2953 121.311 72.3168C121.301 72.6657 121.372 73.0859 121.071 73.3404C120.591 73.8071 119.877 73.6434 119.279 73.6737C118.748 73.6555 118.126 73.7727 117.695 73.3774C117.454 73.1889 117.392 72.867 117.401 72.5808C117.408 63.3471 117.398 54.1147 117.406 44.8836Z" fill="#909090"/>
<path d="M106.385 53.3753C107.598 52.9821 108.965 52.9072 110.153 53.4258C110.57 53.6232 111.055 54.044 110.866 54.5625C110.676 55.2137 110.514 55.8722 110.286 56.512C110.119 56.9712 109.59 57.1417 109.146 57.0521C108.145 56.879 107.162 56.5457 106.136 56.5794C105.42 56.5625 104.76 56.9497 104.27 57.4515C103.48 58.2305 103.071 59.32 102.887 60.4009C102.742 61.182 102.783 61.98 102.776 62.7692C102.776 66.0858 102.778 69.4044 102.776 72.7209C102.822 73.2663 102.263 73.6367 101.774 73.6555C101.104 73.665 100.434 73.6737 99.7645 73.6502C99.2802 73.6246 98.7352 73.2684 98.798 72.7189C98.7952 66.5774 98.7913 60.438 98.7993 54.2966C98.758 53.6858 99.4291 53.3537 99.9556 53.411C100.616 53.4548 101.518 53.2043 101.947 53.8744C102.273 54.6513 102.428 55.4905 102.734 56.2744C103.655 55.0003 104.877 53.8769 106.385 53.3753Z" fill="#909090"/>
<path d="M38 53.844C38.1864 53.6285 38.4041 53.3955 38.7147 53.4177C39.6245 53.4089 40.5369 53.3887 41.4461 53.4311C41.9076 53.4446 42.2256 53.8535 42.293 54.2864C43.1874 57.9531 44.0658 61.6253 44.9562 65.2932C45.2174 66.4259 45.5354 67.5471 45.7057 68.6993C45.8814 69.7343 45.9161 70.7848 46.0831 71.8219C46.3129 70.3417 46.5186 68.8522 46.9147 67.4064C48.079 63.0285 49.2426 58.6515 50.4082 54.275C50.4991 53.7759 50.9646 53.4211 51.4596 53.4211C52.4722 53.3955 53.4869 53.413 54.4995 53.413C55.0426 53.3874 55.6238 53.7073 55.7546 54.2683C56.6243 57.4596 57.4834 60.6568 58.3497 63.8508C58.8754 65.9195 59.564 67.9532 59.8614 70.0757C59.9434 70.6602 60.0236 71.2461 60.1432 71.8266C60.4698 68.4919 61.3209 65.2474 62.0209 61.9821C62.5987 59.3842 63.1637 56.7835 63.7482 54.1854C63.8344 53.6635 64.3821 53.401 64.8645 53.4156C65.6834 53.411 66.5037 53.3874 67.3213 53.4292C67.8069 53.4434 68.086 53.9847 67.915 54.4212C66.2718 60.5337 64.6347 66.6501 62.9908 72.7626C62.9026 73.2529 62.479 73.6354 61.9828 73.6434C60.7136 73.6852 59.4419 73.6535 58.1727 73.6603C57.7179 73.6886 57.2369 73.4428 57.1567 72.9599C56.0205 68.7565 54.907 64.5457 53.7815 60.339C53.374 58.8756 53.209 57.3586 53.038 55.8534C52.8289 57.1936 52.7254 58.5558 52.3714 59.8724C51.2191 64.2037 50.0602 68.537 48.9053 72.869C48.775 73.5707 47.9795 73.7108 47.3876 73.665C46.2073 73.6434 45.0271 73.6926 43.8481 73.6434C43.4279 73.6448 43.104 73.3148 43.0285 72.9148C41.3719 66.8266 39.7207 60.7355 38.0628 54.6487C38.0053 54.3827 38.0127 54.1114 38 53.844Z" fill="#909090"/>
<path d="M186.848 53.4293C187.709 53.4144 188.575 53.411 189.436 53.4293C189.961 53.4367 190.453 53.7982 190.619 54.3033C192.107 58.2238 193.584 62.1517 195.07 66.0744C195.381 66.8703 195.598 67.7006 195.737 68.5437C196.352 66.2171 197.17 63.9531 197.888 61.6568C198.687 59.174 199.488 56.6906 200.291 54.2069C200.41 53.7747 200.818 53.4798 201.252 53.4434C201.956 53.3908 202.664 53.4367 203.369 53.4177C203.781 53.4225 204.272 53.3739 204.586 53.7073C204.789 53.8811 204.746 54.1698 204.661 54.3955C202.283 61.2339 199.912 68.0757 197.537 74.9162C197.125 76.0556 196.807 77.2482 196.143 78.2731C195.189 79.834 193.644 80.9579 191.946 81.566C191.353 81.7512 190.741 82.162 190.103 81.9317C189.65 81.8152 189.476 81.3404 189.234 80.9916C189.061 80.6751 188.74 80.3822 188.807 79.9882C188.838 79.5977 189.149 79.2798 189.515 79.1755C190.231 78.9263 190.959 78.6515 191.539 78.1418C192.948 76.9397 193.82 75.162 194.152 73.3525C193.927 72.5492 193.511 71.8104 193.209 71.0326C190.941 65.7195 188.673 60.4044 186.4 55.0932C186.263 54.7456 186.062 54.4143 186.023 54.0373C186.028 53.6232 186.499 53.4413 186.848 53.4293Z" fill="#909090"/>
<path d="M81.1121 55.9989C79.8751 56.2306 78.7468 57.0071 78.1189 58.1128C77.0696 59.906 76.9487 62.0697 76.9961 64.1034C77.0708 65.9444 77.3641 67.9081 78.5291 69.3963C79.3982 70.5155 80.8262 71.0778 82.2144 71.0562C83.5495 71.0993 84.9483 70.6434 85.8534 69.6198C87.0096 68.3451 87.381 66.5761 87.54 64.908C87.6101 63.2697 87.6429 61.6016 87.2214 60.0017C86.8861 58.6501 86.178 57.2986 84.9529 56.5706C83.8127 55.8655 82.404 55.7996 81.1121 55.9989ZM81.6345 53.0831C83.8729 52.9443 86.2182 53.413 88.0657 54.7498C89.7182 55.935 90.8405 57.7613 91.3648 59.7195C91.9881 62.0574 91.9853 64.5525 91.4202 66.9027C90.8878 69.069 89.6428 71.1114 87.7645 72.3424C85.7571 73.6852 83.2356 74.034 80.8797 73.7478C78.8725 73.4987 76.9166 72.6111 75.5192 71.1202C73.8767 69.3855 73.0611 66.9956 72.8914 64.6333C72.685 62.0137 73.0831 59.2407 74.5286 57.0036C75.598 55.32 77.2981 54.0831 79.1943 53.5187C79.9852 53.2696 80.8103 53.1538 81.6345 53.0831Z" fill="#909090"/>
<path d="M147.661 55.8926C146.434 55.972 145.25 56.6838 144.702 57.813C143.632 59.9013 143.61 62.3315 143.664 64.628C143.749 66.1282 143.911 67.6771 144.604 69.032C145.073 69.9444 145.925 70.665 146.932 70.8858C148.473 71.2596 150.287 70.9431 151.382 69.7155C152.437 68.504 152.785 66.8569 152.947 65.2979C153.058 63.5209 153.065 61.7073 152.628 59.9679C152.327 58.8049 151.818 57.6434 150.904 56.8352C150.028 56.0575 148.807 55.7577 147.661 55.8926ZM152.942 44.6264C152.914 44.1551 153.391 43.8541 153.807 43.8177C154.471 43.7814 155.138 43.7988 155.804 43.8062C156.312 43.8015 156.879 44.182 156.806 44.7504C156.806 54.0259 156.808 63.2999 156.805 72.5741C156.839 73.0529 156.372 73.4246 155.933 73.4535C155.403 73.4818 154.872 73.4818 154.344 73.4448C153.972 73.4212 153.612 73.1808 153.485 72.8219C153.286 72.2192 153.182 71.5929 153.03 70.9801C152.296 71.9848 151.348 72.8737 150.172 73.3148C148.493 73.9377 146.625 73.9478 144.899 73.5236C143.166 73.1034 141.656 71.9027 140.82 70.3222C139.507 67.9094 139.352 65.071 139.434 62.3795C139.481 60.0798 139.916 57.6535 141.402 55.8286C142.523 54.2817 144.36 53.3941 146.215 53.1619C147.942 52.9072 149.814 53.2001 151.244 54.2548C151.92 54.7343 152.461 55.3773 152.944 56.0494C152.93 52.2427 152.934 48.4346 152.942 44.6264Z" fill="#909090"/>
<path d="M171.521 56.0084C170.905 56.1349 170.309 56.384 169.811 56.7726C168.816 57.5537 168.322 58.7949 168.058 60.0003C167.674 61.9128 167.679 63.8879 167.877 65.8218C168.063 67.2427 168.417 68.7592 169.451 69.8097C170.292 70.7007 171.561 71.0273 172.749 70.9687C174.026 71.0151 175.355 70.5357 176.179 69.5242C177.209 68.2683 177.5 66.5976 177.65 65.0239C177.745 63.1733 177.747 61.2784 177.231 59.4817C176.905 58.3626 176.309 57.2494 175.304 56.6118C174.196 55.8791 172.796 55.8117 171.521 56.0084ZM169.811 53.4682C171.583 52.9733 173.48 52.9443 175.271 53.3572C176.934 53.7458 178.491 54.687 179.514 56.081C180.594 57.5099 181.14 59.2818 181.367 61.0474C181.564 62.4089 181.507 63.7881 181.509 65.1599C181.509 67.6353 181.509 70.1114 181.503 72.5862C181.529 72.8879 181.34 73.1552 181.097 73.3121C180.684 73.568 180.173 73.4549 179.714 73.4838C179.198 73.4798 178.52 73.5256 178.24 72.9848C177.966 72.3491 177.909 71.64 177.733 70.9714C177.042 71.8185 176.326 72.6926 175.325 73.1822C173.801 73.9418 172.019 73.8973 170.388 73.5761C168.392 73.1788 166.553 71.9889 165.425 70.2744C164.08 68.2777 163.592 65.8131 163.611 63.4312C163.5 62 164.045 58.7087 165.326 56.7443C166.35 55.1383 167.993 53.9754 169.811 53.4682Z" fill="#909090"/>
<path d="M205.507 68.6771C204.494 69.0522 203.856 70.2306 204.115 71.2946C204.379 72.5438 205.82 73.3963 207.023 72.9343C208.131 72.5929 208.831 71.3182 208.487 70.1943C208.185 68.9296 206.696 68.1821 205.507 68.6771ZM205.648 68.1431C206.249 68.0474 206.902 68.0407 207.46 68.3215C208.41 68.7565 209.093 69.7848 208.99 70.8542C209.069 72.1296 208.004 73.2697 206.79 73.4751C205.423 73.768 203.951 72.7694 203.673 71.3943C203.313 70.0104 204.267 68.4528 205.648 68.1431Z" fill="#909090"/>
<path d="M205.93 69.6973C205.928 69.9869 205.927 70.2764 205.93 70.568C206.182 70.5525 206.441 70.568 206.69 70.4986C206.924 70.401 206.9 70.1013 206.837 69.9007C206.595 69.6623 206.236 69.7242 205.93 69.6973ZM205.17 69.2259C205.897 69.2676 206.712 69.0609 207.366 69.4697C207.894 69.869 207.638 70.7377 207.043 70.9229C207.214 71.3808 207.453 71.8064 207.672 72.2427C207.397 72.2481 207.126 72.2528 206.855 72.2576C206.66 71.8535 206.468 71.4448 206.281 71.0373C206.162 71.034 206.045 71.0326 205.93 71.0306C205.928 71.438 205.928 71.8454 205.928 72.2528C205.671 72.2495 205.419 72.2461 205.167 72.2441C205.169 71.2374 205.165 70.2306 205.17 69.2259Z" fill="#909090"/>
</svg>
