<svg width="248" height="96" viewBox="0 0 248 96" fill="none" xmlns="http://www.w3.org/2000/svg">
<path fill-rule="evenodd" clip-rule="evenodd" d="M230.045 37.7652H229.468V38.4761H230.045C230.314 38.4761 230.487 38.3542 230.487 38.1277C230.487 37.887 230.325 37.7652 230.045 37.7652ZM228.756 37.1058H230.06C230.77 37.1058 231.241 37.4949 231.241 38.1027C231.244 38.2718 231.201 38.4383 231.118 38.585C231.035 38.7318 230.915 38.8533 230.77 38.937L231.28 39.6776V39.8245H230.541L230.045 39.112H229.468V39.8245H228.756V37.1058ZM232.393 38.5151C232.393 37.0621 231.428 35.9605 229.948 35.9605C228.497 35.9605 227.532 37.0089 227.532 38.5151C227.532 39.9526 228.497 41.0713 229.948 41.0713C231.428 41.0713 232.393 39.9682 232.393 38.5151ZM233 38.5151C233 40.2229 231.859 41.651 229.953 41.651C228.06 41.651 226.93 40.2135 226.93 38.5151C226.93 36.8089 228.057 35.3809 229.953 35.3809C231.859 35.384 233 36.8074 233 38.5151ZM62.1438 44.5946L56.2585 48.0023L62.1438 51.4007C62.4956 51.6013 62.8045 51.8709 63.0524 52.194C63.3004 52.517 63.4824 52.8869 63.5879 53.2821C63.6934 53.6773 63.7203 54.0899 63.6669 54.4957C63.6136 54.9015 63.4811 55.2925 63.2772 55.6459C62.8583 56.359 62.1805 56.8772 61.3894 57.0889C60.5982 57.3007 59.7568 57.1893 59.0456 56.7786L48.5053 50.6851C47.8297 50.2986 47.326 49.6639 47.0979 48.9117C46.9947 48.5858 46.9474 48.2444 46.9578 47.9023C46.9655 47.657 47.0009 47.4133 47.0656 47.168C47.2765 46.4102 47.7693 45.7305 48.5007 45.3024L59.038 39.2167C59.7498 38.8045 60.5928 38.6931 61.3849 38.9066C62.177 39.12 62.8545 39.6411 63.271 40.3573C64.1349 41.8416 63.6298 43.7353 62.1438 44.5946ZM56.5711 61.1082L46.0385 55.0256C45.4947 54.7078 44.8683 54.5661 44.243 54.6193C43.4681 54.6715 42.7415 55.0196 42.2095 55.5937C41.6774 56.1677 41.3796 56.925 41.3758 57.713V69.8938C41.3758 71.6125 42.7571 73 44.474 73C46.1894 73 47.5753 71.6094 47.5753 69.8938V63.0816L53.4729 66.4893C54.1834 66.9037 55.0263 67.0173 55.8188 66.8052C56.6112 66.5931 57.2893 66.0726 57.706 65.3565C58.5606 63.8722 58.0571 61.9675 56.5711 61.1082ZM44.4155 49.1945L40.0361 53.5725C39.8858 53.7138 39.6911 53.7967 39.4864 53.8068H38.2006C37.9968 53.795 37.8032 53.7122 37.6524 53.5725L33.2731 49.1945C33.137 49.0447 33.0569 48.8512 33.0467 48.6476V47.3571C33.057 47.1517 33.137 46.9563 33.2731 46.8039L37.6494 42.4244C37.8006 42.2862 37.9942 42.2051 38.1976 42.1947H39.4864C39.6904 42.2041 39.8848 42.2853 40.0361 42.4244L44.4155 46.8039C44.5516 46.9563 44.6316 47.1517 44.6418 47.3571V48.6476C44.6418 48.8195 44.5418 49.0695 44.4155 49.1945ZM40.9154 47.9789C40.9014 47.7733 40.8194 47.5784 40.6829 47.4258L39.4156 46.1602C39.2634 46.0224 39.0695 45.9414 38.8659 45.9305H38.815C38.6128 45.9417 38.4205 46.0228 38.2699 46.1602L37.0026 47.4258C36.869 47.5793 36.7909 47.7744 36.7809 47.9789V48.0289C36.7809 48.2055 36.8779 48.4508 37.0026 48.5758L38.2699 49.8445C38.3962 49.9695 38.6395 50.0757 38.815 50.0757H38.8659C39.0696 50.0638 39.2633 49.9823 39.4156 49.8445L40.6829 48.5758C40.82 48.426 40.9022 48.2329 40.9154 48.0289V47.9789ZM21.1175 34.884L31.6532 40.9744C32.2214 41.3026 32.8496 41.4307 33.4517 41.3807C34.2269 41.3267 34.9533 40.9774 35.4854 40.4028C36.0174 39.8282 36.3157 39.0707 36.3205 38.2823V26.103C36.3205 24.3906 34.9315 23 33.2223 23C31.5069 23 30.121 24.3906 30.121 26.103V32.9184L24.2188 29.5029C23.5075 29.0904 22.6649 28.9783 21.8728 29.1908C21.0808 29.4033 20.403 29.9234 19.9857 30.6388C19.7817 30.9922 19.6491 31.3832 19.5956 31.7891C19.5421 32.195 19.5688 32.6076 19.6742 33.0029C19.7795 33.3983 19.9614 33.7683 20.2092 34.0915C20.457 34.4148 20.7658 34.6831 21.1175 34.884ZM44.243 41.3807C44.8466 41.4307 45.4749 41.3026 46.0385 40.9744L56.5711 34.8856C56.9226 34.6845 57.2312 34.4145 57.479 34.0914C57.7267 33.7682 57.9087 33.3983 58.0143 33.0031C58.1199 32.608 58.147 32.1955 58.0941 31.7896C58.0411 31.3837 57.9092 30.9925 57.706 30.6388C57.2884 29.9238 56.6106 29.4039 55.8187 29.1914C55.0268 28.9789 54.1843 29.0908 53.4729 29.5029L47.5753 32.9184V26.103C47.5753 24.3906 46.1894 23 44.474 23C42.7571 23 41.3758 24.3906 41.3758 26.103V38.2808C41.3712 39.9167 42.6354 41.2604 44.243 41.3791V41.3807ZM33.4517 54.6178C32.8254 54.5639 32.1978 54.7056 31.6532 55.024L21.1175 61.1066C20.766 61.3081 20.4575 61.5785 20.2099 61.9019C19.9622 62.2254 19.7803 62.5955 19.6747 62.9909C19.5691 63.3863 19.542 63.7989 19.5948 64.205C19.6477 64.6111 19.7795 65.0025 19.9826 65.3565C20.4009 66.0708 21.0791 66.5896 21.871 66.8012C22.6628 67.0129 23.5049 66.9002 24.2157 66.4877L30.1179 63.08V69.8923C30.1179 71.611 31.5038 72.9984 33.2192 72.9984C34.9284 72.9984 36.3174 71.6079 36.3174 69.8923V57.713C36.3148 56.925 36.0178 56.1674 35.4862 55.5929C34.9546 55.0185 34.2281 54.67 33.4533 54.6178H33.4517ZM30.5953 48.9117C30.6962 48.5853 30.743 48.2443 30.7339 47.9023C30.7167 47.3699 30.5645 46.851 30.2921 46.3956C30.0197 45.9402 29.6362 45.5637 29.1786 45.3024L18.6522 39.2182C17.1662 38.362 15.2707 38.8698 14.4191 40.3588C13.5583 41.8432 14.068 43.7369 15.554 44.5962L21.4378 48.0039L15.5509 51.4022C15.199 51.6027 14.89 51.8723 14.6419 52.1952C14.3938 52.5182 14.2116 52.8881 14.106 53.2833C14.0003 53.6785 13.9733 54.0911 14.0266 54.497C14.0798 54.9029 14.2122 55.294 14.416 55.6474C14.8344 56.3616 15.5124 56.8806 16.3042 57.0925C17.0959 57.3043 17.938 57.1922 18.6491 56.7802L29.1786 50.6866C29.8931 50.2804 30.3736 49.6351 30.5953 48.9117ZM161.28 30.7107H160.989C160.95 30.7107 160.913 30.7154 160.875 30.7185C160.838 30.7154 160.802 30.7107 160.762 30.7107C160.015 30.7107 159.287 30.7982 158.608 31.0232C157.928 31.2366 157.319 31.6348 156.846 32.1747L156.843 32.17V32.1778C156.348 32.7278 156.024 33.3856 155.822 34.134C155.625 34.884 155.544 35.7293 155.536 36.6933V38.5558H153.486C153.152 38.5528 152.83 38.6842 152.59 38.9213C152.351 39.1584 152.214 39.4819 152.208 39.8213C152.205 40.1781 152.339 40.5223 152.581 40.7807C152.825 41.0324 153.153 41.1828 153.5 41.2026H155.536V56.3505L155.533 56.3865C155.533 56.7427 155.679 57.0692 155.919 57.3036C156.157 57.5333 156.491 57.6692 156.853 57.6692C157.188 57.6676 157.508 57.5314 157.745 57.2904C157.981 57.0494 158.114 56.7233 158.114 56.3833V41.1947H160.317C160.663 41.1791 160.99 41.0324 161.233 40.7838C161.356 40.66 161.454 40.5127 161.52 40.3505C161.586 40.1882 161.62 40.0142 161.62 39.8385V39.7885C161.614 39.1057 161.043 38.548 160.333 38.548H158.112V36.6933C158.128 35.873 158.212 35.259 158.334 34.8137C158.453 34.3637 158.617 34.0825 158.762 33.9075C158.936 33.7253 159.154 33.5914 159.393 33.5184C159.698 33.4184 160.122 33.3575 160.693 33.3575H160.761C160.793 33.3575 160.83 33.3497 160.862 33.3497C160.901 33.3497 160.939 33.3575 160.981 33.3575H161.269C162 33.3575 162.589 32.7638 162.589 32.0341C162.59 31.8595 162.557 31.6864 162.492 31.5248C162.426 31.3633 162.33 31.2166 162.208 31.0934C162.086 30.9701 161.941 30.8728 161.782 30.8071C161.623 30.7414 161.452 30.7086 161.28 30.7107ZM206.729 40.5354C206.853 40.4144 206.952 40.2694 207.021 40.109C207.089 39.9486 207.125 39.7759 207.127 39.601C207.126 39.4299 207.09 39.261 207.02 39.105C206.951 38.9489 206.851 38.8092 206.725 38.6948H206.729C206.725 38.6886 206.721 38.6886 206.721 38.6886C206.721 38.6808 206.715 38.6808 206.715 38.6808H206.71C206.47 38.4379 206.145 38.3009 205.806 38.2995C205.464 38.3033 205.137 38.4429 204.895 38.6886L194.748 48.5883V31.9528C194.748 31.2372 194.149 30.6513 193.413 30.6513C193.244 30.6511 193.076 30.685 192.92 30.751C192.763 30.8169 192.621 30.9137 192.502 31.0357C192.26 31.2781 192.121 31.6077 192.117 31.9528V56.3115C192.119 56.482 192.154 56.6505 192.22 56.8074C192.286 56.9642 192.382 57.1063 192.502 57.2255C192.745 57.469 193.072 57.6069 193.413 57.6099C194.149 57.6099 194.748 57.0318 194.748 56.3161V52.2928L198.051 48.9898L204.787 57.1255C204.911 57.313 205.084 57.4411 205.256 57.5099C205.45 57.5817 205.641 57.6099 205.809 57.6099C206.114 57.6159 206.412 57.5186 206.656 57.3333L206.672 57.3224L206.688 57.3052C206.82 57.1783 206.926 57.026 206.999 56.8573C207.072 56.6885 207.111 56.5067 207.113 56.3224C207.11 56.0056 206.997 55.7001 206.793 55.4599V55.4568L199.936 47.1133L206.721 40.5416H206.729V40.537V40.5354ZM188.409 38.8604C188.649 39.0948 188.797 39.4292 188.797 39.7917V56.3115C188.796 56.4815 188.762 56.6496 188.696 56.8062C188.631 56.9627 188.536 57.1047 188.417 57.2239C188.172 57.4679 187.843 57.6057 187.5 57.6083C187.158 57.6056 186.83 57.4678 186.586 57.2239C186.465 57.1056 186.368 56.9639 186.302 56.8072C186.236 56.6505 186.202 56.4819 186.201 56.3115V54.7006C184.568 56.4661 182.274 57.6083 179.736 57.6083C178.531 57.6072 177.339 57.3558 176.233 56.8694C175.127 56.383 174.131 55.672 173.306 54.7803C171.607 52.966 170.663 50.5566 170.671 48.0539C170.671 45.4462 171.672 43.0556 173.306 41.3229C174.132 40.4325 175.128 39.7229 176.234 39.2376C177.34 38.7524 178.532 38.5017 179.736 38.5011C182.274 38.5011 184.568 39.6089 186.201 41.3666V39.7948C186.2 39.6227 186.234 39.4522 186.299 39.2934C186.365 39.1345 186.461 38.9906 186.582 38.8701C186.703 38.7495 186.847 38.6548 187.004 38.5914C187.162 38.528 187.331 38.4973 187.5 38.5011C187.845 38.5011 188.172 38.6339 188.409 38.8604ZM186.201 48.0539C186.201 46.1008 185.465 44.3509 184.288 43.0853C183.113 41.826 181.498 41.0604 179.736 41.0572C177.987 41.0572 176.38 41.826 175.191 43.0853C173.946 44.4306 173.257 46.2088 173.266 48.0539C173.266 50.0054 174.013 51.7413 175.191 52.9959C176.372 54.2506 177.984 55.0053 179.736 55.0053C180.59 55.0036 181.435 54.8248 182.218 54.4798C183.001 54.1348 183.707 53.6309 184.291 52.9991C185.53 51.6604 186.213 49.8899 186.201 48.0539ZM81.777 47.5899C80.7283 47.093 79.5396 46.7305 78.3554 46.3352C77.2637 45.9649 76.1581 45.6524 75.3681 45.2384C74.9708 45.0259 74.6613 44.8009 74.4596 44.5478C74.2563 44.3095 74.1466 44.0036 74.1516 43.6884C74.1547 43.2103 74.2902 42.8259 74.5243 42.4806C74.88 41.9713 75.4759 41.5713 76.1257 41.3166C76.7678 41.0572 77.4654 40.9354 77.9643 40.9354C79.4364 40.9385 80.3665 41.4276 81.081 41.9385C81.4321 42.1932 81.7308 42.4556 82.0141 42.6681C82.1573 42.7791 82.2928 42.8806 82.4514 42.9556C82.5993 43.0275 82.7748 43.0884 82.9658 43.0884C83.0874 43.0884 83.206 43.0666 83.3168 43.0197C83.4322 42.9724 83.5389 42.9058 83.6325 42.8228C83.7284 42.7319 83.8076 42.6246 83.8666 42.5056C83.9156 42.3874 83.9413 42.2605 83.942 42.1322C83.936 41.9037 83.8741 41.6804 83.7619 41.4822C83.5648 41.126 83.263 40.7838 82.8795 40.4385C82.2369 39.8811 81.5167 39.4231 80.7422 39.0792C79.9276 38.7136 79.0561 38.4651 78.2261 38.4651C76.2982 38.4651 74.6906 38.9026 73.5234 39.7089C72.9136 40.1307 72.3777 40.5901 72.002 41.226C71.617 41.8635 71.4015 42.6494 71.3737 43.6744V43.8119C71.3691 44.804 71.6894 45.6243 72.1914 46.2665C72.9521 47.2336 74.0839 47.8086 75.1941 48.2195C76.2982 48.6289 77.4084 48.8726 78.1044 49.107C79.0884 49.4335 80.1324 49.7898 80.8977 50.2601C81.2781 50.5007 81.583 50.7601 81.7909 51.0444C81.991 51.3351 82.1065 51.6382 82.1142 52.0178V52.0475C82.1111 52.6006 81.9495 53.0319 81.68 53.4022C81.2735 53.9568 80.6021 54.3584 79.8891 54.6178C79.2687 54.8376 78.6182 54.9578 77.9612 54.974C76.2797 54.974 75.1572 54.5678 74.338 54.1615C73.9284 53.9568 73.5988 53.7553 73.297 53.5834C73.1573 53.501 73.0123 53.4285 72.8628 53.3662C72.7148 53.3038 72.5564 53.2709 72.3962 53.2694C72.2845 53.2695 72.1738 53.2907 72.0697 53.3319C71.9637 53.376 71.8662 53.439 71.7818 53.5178C71.6676 53.6253 71.5728 53.7522 71.5015 53.8928C71.435 54.0309 71.4007 54.1828 71.4014 54.3365C71.4014 54.5928 71.4938 54.8224 71.6324 55.0349C71.8434 55.3396 72.156 55.6099 72.5425 55.8833C72.9459 56.1521 73.4233 56.4146 73.9715 56.6771C75.1957 57.2552 76.7617 57.5583 77.9535 57.5755H77.9566C79.8091 57.5755 81.4059 57.1489 82.7533 56.1568V56.1521H82.7563C84.0745 55.1599 84.8921 53.6834 84.8921 52.0147C84.8921 51.0976 84.6765 50.321 84.3039 49.6867C83.7372 48.7258 82.8179 48.0898 81.777 47.5899ZM166.632 30.6498C166.462 30.6497 166.294 30.6837 166.137 30.7496C165.98 30.8156 165.838 30.9123 165.718 31.0341C165.597 31.1536 165.501 31.2962 165.435 31.4536C165.369 31.611 165.334 31.7802 165.333 31.9513V56.3099C165.333 56.4807 165.367 56.6498 165.433 56.8069C165.499 56.964 165.596 57.1058 165.718 57.2239C165.962 57.4672 166.29 57.605 166.632 57.6083C167.368 57.6083 167.964 57.0302 167.967 56.3146V31.9513C167.964 31.2326 167.371 30.6498 166.632 30.6498ZM226.366 47.4383V47.568C226.366 47.9273 226.205 48.2508 225.96 48.4633C225.71 48.6803 225.391 48.798 225.062 48.7945H210.501C210.871 52.3522 213.712 54.9818 217.096 55.0053H217.954C219.075 55.0099 220.165 54.6209 221.128 53.9818C222.093 53.3357 222.906 52.481 223.508 51.4788C223.622 51.2815 223.789 51.1207 223.989 51.0148C224.185 50.9104 224.404 50.8579 224.626 50.8623C224.847 50.8667 225.064 50.9277 225.256 51.0397L225.271 51.0476L225.285 51.0585C225.465 51.1845 225.613 51.3523 225.716 51.548C225.819 51.7437 225.875 51.9616 225.878 52.1835C225.878 52.4131 225.817 52.6444 225.695 52.8553L225.69 52.8631L225.687 52.8663C224.854 54.1999 223.749 55.3364 222.446 56.199C221.125 57.0583 219.596 57.6005 217.954 57.6005H217.083C215.864 57.5917 214.659 57.3372 213.537 56.8517C212.416 56.3662 211.402 55.6594 210.552 54.7724C208.827 52.9858 207.863 50.5832 207.866 48.082C207.866 45.4352 208.897 43.0384 210.574 41.301C211.43 40.4116 212.454 39.7051 213.584 39.2232C214.714 38.7412 215.928 38.4936 217.153 38.4948C219.612 38.4948 221.824 39.476 223.462 41.0791C225.099 42.6822 226.168 44.9118 226.359 47.4164L226.366 47.4383ZM223.522 46.2087C222.783 43.2103 220.155 41.076 217.153 41.0791C214.077 41.0791 211.485 43.1681 210.681 46.2087H223.522ZM95.6126 38.5339C93.665 38.5348 91.7869 39.2685 90.3417 40.5932V39.8385C90.343 39.4996 90.2143 39.1735 89.9829 38.9292C89.8662 38.8062 89.7263 38.7082 89.5715 38.6411C89.4168 38.574 89.2503 38.5392 89.0821 38.5386C88.9089 38.5365 88.737 38.5697 88.5767 38.6363C88.4165 38.7028 88.271 38.8014 88.1489 38.9261C87.9139 39.1699 87.7823 39.4975 87.7824 39.8385V56.7021L87.8363 56.7568L87.8409 56.763C87.8611 56.8255 87.8896 56.8849 87.9256 56.9396C88.1027 57.2521 88.3922 57.4895 88.7525 57.5942L88.8018 57.6099H89.0821C89.2736 57.6092 89.4626 57.5665 89.6364 57.4849C89.7924 57.4066 89.9284 57.2927 90.0337 57.1521H90.0368C90.0522 57.1364 90.0553 57.1208 90.0691 57.1052C90.1397 57.0198 90.1987 56.9252 90.2447 56.8239C90.2816 56.7239 90.3062 56.6271 90.3247 56.5552L90.3355 56.5083V46.3821C90.3678 44.9828 90.9368 43.6515 91.9216 42.6713C92.9002 41.6838 94.2248 41.1304 95.6049 41.1322C97.0662 41.1322 98.3689 41.7229 99.3144 42.6713C100.261 43.6212 100.836 44.9259 100.836 46.3665V56.3115C100.836 56.6739 100.99 57.0114 101.224 57.2411C101.47 57.4758 101.796 57.6063 102.134 57.6063C102.472 57.6063 102.797 57.4758 103.044 57.2411C103.167 57.1209 103.265 56.9765 103.332 56.8167C103.399 56.6569 103.433 56.485 103.432 56.3115V46.3665C103.443 42.0775 99.9411 38.5417 95.6126 38.5339ZM121.417 41.3338C123.115 43.1461 124.06 45.5521 124.055 48.0523C124.058 50.5517 123.113 52.9565 121.417 54.7693C119.791 56.5083 117.519 57.6052 114.99 57.6052C112.485 57.6052 110.209 56.5052 108.575 54.7678C106.878 52.9556 105.931 50.551 105.931 48.0508C105.931 45.5506 106.878 43.146 108.575 41.3338C110.209 39.5979 112.486 38.498 114.99 38.498C117.519 38.5011 119.791 39.5979 121.417 41.3338ZM121.453 48.0523C121.453 46.1196 120.709 44.365 119.528 43.0994C118.341 41.8307 116.736 41.0572 114.987 41.0572C113.242 41.0572 111.63 41.8338 110.446 43.0994C109.204 44.4402 108.516 46.2124 108.521 48.0523C108.514 49.8856 109.203 51.6512 110.446 52.9819C111.632 54.2443 113.242 55.0053 114.989 55.0053C116.732 55.0053 118.347 54.2428 119.528 52.9819C120.77 51.6516 121.46 49.8851 121.453 48.0523ZM149.469 38.6464L149.461 38.6417L149.455 38.6386C149.308 38.5734 149.149 38.5389 148.989 38.537C148.737 38.541 148.491 38.6144 148.277 38.7495C148.053 38.8894 147.877 39.0948 147.771 39.3386V39.3464L142.812 52.9272L138.993 43.8259L138.986 43.8212C138.877 43.5762 138.697 43.3707 138.47 43.2322C138.252 43.0921 137.998 43.0181 137.74 43.0186C137.482 43.0192 137.229 43.0943 137.012 43.2353C136.787 43.3739 136.61 43.5782 136.502 43.8212L136.499 43.8259L132.671 52.935L127.692 39.3573H127.689C127.604 39.1069 127.436 38.8936 127.215 38.7526C126.998 38.6149 126.748 38.5403 126.493 38.537C126.325 38.537 126.159 38.5716 126.005 38.6386H125.997L125.991 38.6448C125.767 38.75 125.577 38.918 125.445 39.129C125.312 39.3399 125.241 39.5851 125.241 39.8354C125.241 39.9932 125.272 40.151 125.333 40.3088L131.462 56.788V56.7958C131.513 56.9289 131.585 57.0521 131.678 57.1599C131.758 57.2499 131.856 57.3231 131.964 57.3755C131.985 57.3927 132.015 57.4224 132.066 57.4505C132.122 57.4834 132.183 57.5051 132.247 57.5145C132.355 57.5505 132.503 57.6052 132.697 57.6052C132.943 57.6052 133.174 57.5145 133.382 57.3817C133.591 57.2446 133.752 57.0447 133.843 56.8099L133.856 56.7989L137.734 47.5211L141.614 56.7599H141.617C141.707 57.0083 141.865 57.1974 142.045 57.3349C142.238 57.4786 142.453 57.5692 142.68 57.6052H142.841C142.995 57.6052 143.146 57.5755 143.273 57.527C143.391 57.481 143.502 57.4179 143.602 57.3396C143.811 57.178 143.974 56.9628 144.073 56.7161V56.7099L150.162 40.3026C150.286 39.9897 150.282 39.6397 150.153 39.3293C150.023 39.0189 149.777 38.7734 149.469 38.6464Z" fill="#909090"/>
</svg>
