<svg width="248" height="96" viewBox="0 0 248 96" fill="none" xmlns="http://www.w3.org/2000/svg">
<path d="M201.963 57.5063C201.725 57.5063 201.488 57.6688 201.329 58.075C199.745 62.7875 197.528 65.6313 195.707 65.6313C194.677 65.6313 194.281 64.4125 194.281 62.625C194.281 57.9938 196.974 48.1625 198.32 43.6125C198.478 43.0438 198.558 42.5562 198.558 42.15C198.558 40.85 197.845 40.2 196.103 40.2C194.281 40.2 192.222 40.9313 190.321 44.425C189.688 41.3375 187.629 40.0375 184.778 40.0375C181.531 40.0375 178.363 42.2313 175.75 45.725C173.136 49.2188 170.048 50.3563 167.751 49.7875C169.414 45.6438 170.048 42.475 170.048 40.2C170.048 36.5437 168.305 34.35 165.454 34.35C161.178 34.35 158.723 38.575 158.723 42.9625C158.723 46.375 160.228 49.8688 163.554 51.575C160.782 57.9938 156.743 63.8438 155.159 63.8438C153.179 63.8438 152.546 53.85 152.704 46.7C152.783 42.6375 153.1 42.3938 153.1 41.175C153.1 40.4438 152.625 39.9563 150.803 39.9563C146.606 39.9563 145.26 43.6125 145.101 47.8375C145.022 49.4625 144.785 51.0062 144.389 52.55C142.646 58.9687 139.003 63.925 136.628 63.925C135.519 63.925 135.202 62.7875 135.202 61.325C135.202 56.6938 137.736 50.8437 137.736 45.8875C137.736 42.2312 136.153 39.9563 133.222 39.9563C129.738 39.9563 125.224 44.1813 120.868 52.0625C122.294 46.05 122.848 40.2 118.651 40.2C117.7 40.2 116.829 40.4437 116.037 40.9312C115.483 41.175 115.166 41.7438 115.166 42.3938C115.562 48.8125 110.098 65.3062 104.95 65.3062C104 65.3062 103.525 64.25 103.525 62.5438C103.525 57.9125 106.217 48.0812 107.563 43.5312C107.722 42.9625 107.801 42.475 107.801 41.9875C107.801 40.7688 107.088 40.1187 105.346 40.1187C103.525 40.1187 101.465 40.85 99.5648 44.3438C98.852 41.2563 96.8722 39.9563 94.0212 39.9563C89.3487 39.9563 84.2011 44.9938 81.9045 51.575C78.8159 60.35 72.718 68.8813 64.4026 68.8813C56.8791 68.8813 52.9194 62.4625 52.9194 52.3062C52.9194 37.6 63.4522 25.6562 71.2133 25.6562C74.9354 25.6562 76.6777 28.0938 76.6777 31.8313C76.6777 36.3813 74.2227 38.4125 74.2227 40.2C74.2227 40.6875 74.6186 41.2563 75.4898 41.2563C78.8951 41.2563 82.8548 37.1938 82.8548 31.5875C82.8548 25.9813 78.5783 22 70.8173 22C57.9087 22 45 35.2437 45 52.3062C45 65.875 51.4939 74 62.7395 74C70.4213 74 77.1528 67.9063 80.7166 60.7563C81.1125 66.6875 83.726 69.775 87.7649 69.775C91.3286 69.775 94.1796 67.5813 96.397 63.7625C97.2682 67.7438 99.4856 69.6938 102.416 69.6938C105.742 69.6938 108.593 67.5 111.206 63.5187C111.206 66.6875 111.84 69.6938 114.532 69.6938C115.8 69.6938 117.304 69.3688 117.542 68.2313C120.393 56.2875 127.362 46.4563 129.5 46.4563C130.134 46.4563 130.292 47.1062 130.292 47.8375C130.292 51.0875 128.075 57.75 128.075 61.975C128.075 66.6063 129.975 69.6125 133.935 69.6125C138.291 69.6125 142.726 64.1687 145.656 56.125C146.606 63.6 148.586 69.6125 151.675 69.6125C155.476 69.6125 162.366 61.325 166.484 52.55C168.068 52.7937 170.523 52.7125 172.899 51.0063C171.869 53.6063 171.315 56.45 171.315 59.2125C171.315 67.3375 175.116 69.6125 178.363 69.6125C181.927 69.6125 184.778 67.4188 186.995 63.6C187.708 67.0125 189.609 69.5312 193.014 69.5312C198.32 69.5312 202.992 63.925 202.992 59.2938C203.072 58.3188 202.517 57.5063 201.963 57.5063ZM91.091 65.225C88.9528 65.225 88.0816 63.0313 88.0816 59.7C88.0816 53.9313 91.9622 44.2625 96.0011 44.2625C97.7433 44.2625 98.4561 46.375 98.4561 49.0562C98.4561 54.9062 94.8131 65.225 91.091 65.225ZM164.979 48C163.712 46.4563 163.237 44.2625 163.237 42.3938C163.237 40.0375 164.108 38.0875 165.058 38.0875C166.009 38.0875 166.405 39.0625 166.405 40.525C166.325 42.8 165.534 46.2938 164.979 48ZM181.689 65.225C179.551 65.225 178.68 62.625 178.68 59.7C178.68 54.0938 182.56 44.2625 186.599 44.2625C188.341 44.2625 188.975 46.375 188.975 49.0562C189.054 54.9062 185.49 65.225 181.689 65.225Z" fill="#909090"/>
</svg>
