<svg width="248" height="96" viewBox="0 0 248 96" fill="none" xmlns="http://www.w3.org/2000/svg">
<g clip-path="url(#clip0_2915_213)">
<path fill-rule="evenodd" clip-rule="evenodd" d="M42.8048 24C29.0884 24 18 35.1701 18 48.9891C18 60.0353 25.1047 69.3857 34.9608 72.6951C36.1931 72.9439 36.6445 72.1574 36.6445 71.4959C36.6445 70.9165 36.6038 68.9308 36.6038 66.8618C29.7037 68.3515 28.2669 63.8829 28.2669 63.8829C27.158 60.9868 25.515 60.2425 25.515 60.2425C23.2566 58.7117 25.6795 58.7117 25.6795 58.7117C28.1846 58.8772 29.4991 61.2767 29.4991 61.2767C31.7164 65.0827 35.2893 64.0073 36.7267 63.3452C36.9318 61.7316 37.5893 60.6146 38.2875 59.9942C32.7842 59.4149 26.994 57.2636 26.994 47.6649C26.994 44.9343 27.979 42.7003 29.5398 40.9628C29.2935 40.3424 28.4309 37.7768 29.7865 34.343C29.7865 34.343 31.8809 33.6809 36.6033 36.9081C38.6252 36.3611 40.7103 36.0828 42.8048 36.0805C44.8992 36.0805 47.0342 36.3704 49.0057 36.9081C53.7286 33.6809 55.823 34.343 55.823 34.343C57.1787 37.7768 56.3155 40.3424 56.0693 40.9628C57.6712 42.7003 58.6156 44.9343 58.6156 47.6649C58.6156 57.2636 52.8254 59.3732 47.2809 59.9942C48.1847 60.7802 48.9646 62.2693 48.9646 64.6278C48.9646 67.9788 48.924 70.6682 48.924 71.4953C48.924 72.1574 49.3759 72.9439 50.6076 72.6956C60.4637 69.3852 67.5684 60.0353 67.5684 48.9891C67.609 35.1701 56.48 24 42.8048 24Z" fill="#909090"/>
</g>
<path d="M97.3892 44.5708C97.0935 44.5708 96.7978 44.8674 96.7978 45.164V51.2446C96.7978 51.5412 97.0935 51.8378 97.3892 51.8378H102.268V59.4015C102.268 59.4015 101.233 59.8464 98.1284 59.8464C94.5802 59.8464 89.7015 58.5116 89.7015 47.5369C89.7015 36.5622 94.8759 35.2274 99.7546 35.2274C104.042 35.2274 105.816 35.969 106.999 36.2656C107.294 36.4139 107.738 35.969 107.738 35.6724L109.069 29.7401C109.069 29.5918 109.069 29.4435 108.773 29.2952C108.329 28.9986 105.52 27.3672 98.2762 27.3672C89.8493 27.3672 81.5703 30.7782 81.5703 47.9818C81.5703 65.0371 91.3277 67.5583 99.4589 67.5583C106.26 67.5583 110.399 64.7405 110.399 64.7405C110.547 64.5922 110.547 64.4439 110.547 64.2956V45.164C110.547 44.8674 110.251 44.5708 109.956 44.5708" fill="#909090"/>
<path d="M173.823 29.4428C173.823 29.1462 173.527 28.8496 173.231 28.8496H166.283C165.987 28.8496 165.691 29.1462 165.691 29.4428V42.9388H154.751V29.4428C154.751 29.1462 154.456 28.8496 154.16 28.8496H147.211C146.916 28.8496 146.62 29.1462 146.62 29.4428V66.0746C146.62 66.3712 146.916 66.6678 147.211 66.6678H154.16C154.456 66.6678 154.751 66.3712 154.751 66.0746V50.3541H165.691V66.0746C165.691 66.3712 165.987 66.6678 166.283 66.6678H173.231C173.527 66.6678 173.823 66.3712 173.823 66.0746V29.4428Z" fill="#909090"/>
<path d="M118.53 38.9333C121.061 38.9333 123.113 36.8749 123.113 34.3358C123.113 31.7967 121.061 29.7383 118.53 29.7383C115.999 29.7383 113.947 31.7967 113.947 34.3358C113.947 36.8749 115.999 38.9333 118.53 38.9333Z" fill="#909090"/>
<path d="M122.522 41.4546C122.522 41.1579 122.226 40.8613 121.93 40.8613H114.982C114.686 40.8613 114.391 41.1579 114.391 41.4546V65.7769C114.391 66.5184 114.834 66.6667 115.426 66.6667H121.783C122.522 66.6667 122.67 66.3701 122.67 65.7769" fill="#909090"/>
<path d="M193.486 41.0098C193.19 41.0098 192.894 41.3064 192.894 41.603V59.5481C192.894 59.5481 191.12 60.8829 188.607 60.8829C186.094 60.8829 185.502 59.6964 185.502 57.3235V41.603C185.502 41.3064 185.207 41.0098 184.911 41.0098H177.962C177.667 41.0098 177.371 41.3064 177.371 41.603V58.51C177.371 65.777 181.363 67.5567 186.981 67.5567C191.564 67.5567 195.26 65.0355 195.26 65.0355C195.26 65.0355 195.408 66.3702 195.555 66.5185C195.703 66.6668 195.851 66.8151 195.999 66.8151H200.434C200.73 66.8151 201.025 66.5185 201.025 66.2219V41.603C201.025 41.3064 200.73 41.0098 200.434 41.0098" fill="#909090"/>
<path d="M216.844 61.0322C213.887 61.0322 212.556 59.6974 212.556 59.6974V47.9812C212.556 47.9812 214.182 46.943 216.104 46.7947C218.618 46.4981 220.983 47.388 220.983 53.3202C220.983 59.6974 220.244 61.0322 216.696 61.0322H216.844ZM212.852 41.9006V29.4428C212.852 29.1462 212.556 28.8496 212.261 28.8496H205.312C205.016 28.8496 204.721 29.1462 204.721 29.4428V66.0746C204.721 66.3712 205.016 66.6678 205.312 66.6678H210.191C210.339 66.6678 210.634 66.5195 210.634 66.3712C210.782 66.2229 210.93 64.7399 210.93 64.7399C210.93 64.7399 213.739 67.5577 219.209 67.5577C225.566 67.5577 229.262 64.2949 229.262 53.0236C229.262 41.7523 223.496 40.2692 219.505 40.2692C215.513 40.2692 212.852 42.0489 212.852 42.0489V41.9006Z" fill="#909090"/>
<path d="M137.454 40.8626V33.8922C137.454 33.5956 137.306 33.4473 137.01 33.4473H129.766C129.47 33.4473 129.323 33.5956 129.323 34.0405V41.3075C129.323 41.3075 125.774 42.1974 125.479 42.1974C125.183 42.3457 125.035 42.494 125.035 42.7906V47.3881C125.035 47.6847 125.331 47.9813 125.627 47.9813H129.323V58.8077C129.323 66.9646 134.94 67.7061 138.784 67.7061C140.558 67.7061 142.628 67.1129 142.924 66.9646C143.072 66.8163 143.219 66.668 143.219 66.3714V61.4772C143.219 61.1806 142.924 60.884 142.628 60.884C142.332 60.884 141.593 61.0323 140.706 61.0323C138.193 61.0323 137.306 59.8459 137.306 58.2145C137.306 56.5831 137.306 47.9813 137.306 47.9813H142.48C142.776 47.9813 143.072 47.6847 143.072 47.3881V41.4558C143.072 41.1592 142.776 40.8626 142.48 40.8626" fill="#909090"/>
<defs>
<clipPath id="clip0_2915_213">
<rect width="49.7578" height="48.7423" fill="white" transform="translate(18 24)"/>
</clipPath>
</defs>
</svg>
