<svg width="248" height="96" viewBox="0 0 248 96" fill="none" xmlns="http://www.w3.org/2000/svg">
<path d="M113.478 44.9196L114.568 40.1596H96.3582L95.9482 41.9996C95.8461 42.3314 95.8267 42.6832 95.8917 43.0243C95.9566 43.3654 96.1039 43.6854 96.3208 43.9565C96.5377 44.2276 96.8176 44.4416 97.1361 44.5799C97.4546 44.7181 97.8021 44.7763 98.1482 44.7496H106.588L91.6382 57.9396L90.6382 62.3696H109.908L111.018 57.5196H98.8282L113.478 44.9196ZM125.618 48.7596C124.768 48.5396 119.978 47.8296 120.278 46.1696C120.618 44.3196 122.878 44.1696 123.988 44.1696C126.258 44.2396 126.988 45.2396 127.098 45.5896C127.23 46.0325 127.512 46.4159 127.895 46.6748C128.277 46.9337 128.738 47.052 129.198 47.0096H132.788C133.178 44.7896 133.288 39.6596 124.948 39.6596C122.268 39.6596 118.708 40.3296 116.338 43.0496C115.078 44.5096 112.898 48.1296 115.128 50.8496C116.298 52.2296 119.338 53.2996 122.598 53.9396C124.708 54.3496 125.818 55.1896 125.598 56.1896C125.458 56.8596 124.598 58.3696 121.518 58.3596C120.128 58.3596 117.128 58.1496 117.688 55.0196H112.018C111.348 57.8596 111.108 62.7896 119.758 62.7896C123.098 62.7896 129.888 62.3696 131.658 55.2696C132.928 50.1596 127.178 49.1496 125.658 48.7596H125.618ZM145.728 56.6096C145.23 57.0682 144.645 57.4222 144.008 57.6506C143.371 57.8791 142.694 57.9774 142.018 57.9396C137.728 57.9396 138.218 53.7396 138.798 51.1796C139.378 48.6196 140.798 44.4996 144.798 44.4996C147.688 44.4996 148.018 46.3696 148.168 46.9196H154.008C153.798 40.7596 149.078 39.5796 145.738 39.6596C136.578 39.8896 133.928 47.5396 133.108 51.0996C130.718 61.4896 137.358 62.7896 140.538 62.7896C142.982 62.854 145.39 62.2006 147.466 60.9102C149.542 59.6199 151.194 57.7492 152.218 55.5296H148.048C147.589 55.5123 147.132 55.6006 146.713 55.7879C146.293 55.9751 145.922 56.2563 145.628 56.6096H145.728ZM169.478 58.7396C167.791 60.7293 165.445 62.0461 162.868 62.4496C157.798 63.2896 150.868 63.0796 152.578 55.7796C152.738 54.7728 153.102 53.8094 153.649 52.9493C154.196 52.0892 154.914 51.3507 155.758 50.7796C158.688 48.8496 162.588 48.5796 163.848 48.4396C164.278 48.3896 167.468 48.1496 168.018 46.2596C168.568 44.3696 165.628 44.2596 164.808 44.2596C162.298 44.2596 161.438 45.2596 161.018 45.8396H155.428C157.688 39.8896 163.918 39.6596 165.608 39.6596C167.488 39.6596 175.058 39.6596 173.608 45.9296C171.408 55.4896 171.328 56.4396 169.478 58.7396ZM167.018 51.1796C165.885 51.6396 164.713 51.9996 163.518 52.2596C162.348 52.6196 160.158 52.7496 159.088 53.7696C158.168 54.6296 156.558 58.1996 160.388 58.2796C161.872 58.3166 163.318 57.8124 164.457 56.861C165.597 55.9096 166.35 54.5761 166.578 53.1096C166.768 52.2296 167.018 51.1796 167.018 51.1796ZM181.418 33.6496H178.418L171.868 62.3696H177.708L183.628 36.3696C183.735 36.037 183.759 35.6831 183.696 35.3393C183.633 34.9955 183.486 34.6726 183.269 34.3994C183.051 34.1261 182.769 33.911 182.448 33.7732C182.127 33.6354 181.776 33.5792 181.428 33.6096L181.418 33.6496ZM196.568 55.4896H200.748C199.708 57.7103 198.047 59.5818 195.965 60.8775C193.883 62.1731 191.47 62.8373 189.018 62.7896C180.128 62.7896 180.678 54.8596 181.588 51.0996C184.108 40.6496 191.098 39.6596 194.218 39.6596C198.368 39.6596 204.878 41.3796 201.578 52.7696H187.168C186.818 54.2796 186.518 57.9896 190.498 57.9396C191.59 58.0026 192.672 57.6961 193.568 57.0696C194.108 56.7896 194.568 55.5596 196.568 55.5296V55.4896ZM188.018 48.9996H196.528C197.258 44.9196 194.728 44.4896 193.298 44.4896C192.078 44.4896 189.168 44.9396 188.018 48.9996ZM209.068 42.5696C206.119 44.753 204.099 47.9656 203.408 51.5696C203.058 53.1896 200.948 62.3396 200.948 62.3396H206.798C206.798 62.3396 209.018 52.2996 209.418 50.9396C209.786 49.1891 210.781 47.6333 212.215 46.5651C213.65 45.4969 215.426 44.9899 217.208 45.1396L218.558 40.1396C215.221 39.9194 211.901 40.767 209.078 42.5596L209.068 42.5696ZM219.278 35.8096L219.428 35.1096H222.578L222.428 35.8096H221.298L220.648 38.8796H219.818L220.458 35.8096H219.278ZM224.448 35.1096L224.738 37.8396L226.198 35.1096H227.348L226.548 38.8796H225.778L226.458 35.8796L224.868 38.8796H224.238L223.868 35.8796L223.308 38.8796H222.518L223.318 35.1096H224.448ZM89.1582 48.8596C90.2782 55.7296 84.3082 59.5996 78.2682 59.9996C74.4182 67.9996 60.8582 73.2896 49.1082 67.5296C44.1082 68.2996 41.3182 67.0396 39.1982 64.6396C43.4982 59.1096 56.5082 49.1496 72.4082 54.2896C80.8982 57.0296 83.0982 50.5896 80.9582 48.1696C72.9582 39.0796 54.8682 47.2696 54.2282 47.9496C61.3282 37.0896 86.7282 34.0396 89.1582 48.8596Z" fill="#909090"/>
<path d="M64.8079 36.3694C64.8079 36.3694 59.0179 34.2994 50.8979 37.8194L49.8979 37.3994C57.7579 32.1994 64.6179 29.9994 70.4879 30.8594C66.9379 26.7694 49.8679 23.7594 40.0979 33.5594C28.0179 31.1794 19.5579 41.4194 20.0179 50.7694C20.4779 60.1194 30.7279 65.9994 36.5379 64.3694C36.6779 64.3494 36.8179 64.3494 36.9579 64.3694C38.2479 58.1894 43.5079 43.8094 64.8079 36.3694Z" fill="#909090"/>
</svg>
