<svg width="248" height="96" viewBox="0 0 248 96" fill="none" xmlns="http://www.w3.org/2000/svg">
<path d="M55.6268 45.4409L43.023 45.1311L47.3939 49.759L55.6268 49.5591V45.4409Z" fill="#909090"/>
<path d="M53.7008 56.446L55.6268 56.2261V52.2779L50.0783 52.5877L53.7008 56.446Z" fill="#909090"/>
<path d="M30 58.9249L50.4276 56.7759L46.4958 52.8176L30 53.7672V58.9249Z" fill="#909090"/>
<path d="M38.8217 45.0211L30 44.8012V50.1988L43.6018 49.8689L38.8217 45.0211Z" fill="#909090"/>
<path d="M39.8795 41.8125L55.6268 42.7121V38.7539L34.9497 36.5849L39.8795 41.8125Z" fill="#909090"/>
<path d="M30 36.0751V41.2328L35.3988 41.5426L30 36.0751Z" fill="#909090"/>
<path d="M56.7246 59.1448C57.068 59.0346 57.3633 58.8097 57.5612 58.5078C57.7592 58.2058 57.8478 57.845 57.8123 57.4856V37.4944C57.8497 37.1347 57.7618 36.773 57.5636 36.4707C57.3654 36.1683 57.069 35.9438 56.7246 35.8352L30 31.9969V28.6784C32.9938 26.5093 39.4205 25 46.8451 25C54.2697 25 60.6664 26.5093 63.6901 28.6784V66.3216C60.6963 68.4907 54.2697 70 46.8451 70C39.4205 70 32.9938 68.4907 30 66.3216V62.9831L56.7246 59.1748" fill="#909090"/>
<path d="M76.4237 54.6968V50.1388C76.4237 46.7703 76.5135 41.4127 77.9705 38.0442C81.5688 36.2028 85.6372 35.4888 89.6463 35.9951C89.9093 37.4774 89.6256 39.0049 88.8479 40.2932C86.6469 39.9361 84.3898 40.2279 82.3514 41.1328C81.6785 43.9295 81.3798 46.8035 81.4632 49.679V58.9849C79.9547 59.2519 78.4112 59.2519 76.9027 58.9849C76.5026 57.5929 76.3406 56.143 76.4237 54.6968Z" fill="#909090"/>
<path d="M102.599 50.3587C100.262 50.3812 97.9257 50.2175 95.6139 49.8689V51.8181C95.6139 55.2765 98.9769 55.4465 101.801 55.4465C104.191 55.4251 106.564 55.0374 108.836 54.297C109.193 54.7468 109.452 55.2664 109.597 55.8224C109.741 56.3785 109.768 56.9586 109.675 57.5255C106.975 59.0161 103.936 59.7806 100.853 59.7446C95.3744 59.7446 90.5045 58.4151 90.5045 51.948V48.9494C90.4973 45.2468 91.1425 41.5721 92.4105 38.0942C95.0014 36.6087 97.9188 35.788 100.903 35.7052C106.651 35.7052 110.762 37.4745 110.762 43.5018C110.728 45.6552 110.371 47.7913 109.705 49.839C107.348 50.1435 104.976 50.317 102.599 50.3587ZM100.853 39.9933C99.3209 40.0124 97.8168 40.407 96.4721 41.1428C96.0046 42.7193 95.7331 44.3476 95.6638 45.9907C97.4 46.415 99.1871 46.5934 100.973 46.5204C102.516 46.552 104.058 46.418 105.573 46.1206C105.82 45.3008 105.937 44.4477 105.923 43.5917C105.923 40.6131 103.448 39.9933 100.853 39.9933Z" fill="#909090"/>
<path d="M209.827 50.3587C207.489 50.3812 205.153 50.2175 202.841 49.8689V51.8181C202.841 55.2765 206.204 55.4465 209.029 55.4465C211.445 55.4333 213.846 55.0455 216.144 54.297C216.501 54.7468 216.76 55.2664 216.904 55.8224C217.048 56.3785 217.075 56.9586 216.982 57.5255C214.276 59.0195 211.23 59.7841 208.14 59.7446C202.662 59.7446 197.792 58.4151 197.792 51.948V48.9494C197.768 45.2464 198.396 41.5683 199.648 38.0842C202.239 36.5987 205.156 35.778 208.14 35.6952C213.889 35.6952 218 37.4645 218 43.4918C217.965 45.6452 217.609 47.7813 216.942 49.829C214.582 50.1372 212.207 50.314 209.827 50.3587ZM208.101 39.9933C206.568 40.0124 205.064 40.407 203.72 41.1428C203.244 42.7116 202.962 44.3331 202.881 45.9707C204.618 46.395 206.405 46.5734 208.19 46.5004C209.734 46.532 211.276 46.398 212.791 46.1006C213.037 45.2808 213.155 44.4277 213.14 43.5717C213.15 40.6131 210.625 39.9933 208.101 39.9933Z" fill="#909090"/>
<path d="M195.816 55.7563C194.888 55.8463 194.559 55.8663 194.249 55.8663C191.685 55.8663 189.03 55.7064 189.03 52.1479V40.9929H194.778C195.221 39.5945 195.221 38.0932 194.778 36.6948H189.03V30.9973C187.556 30.5751 185.993 30.5751 184.519 30.9973C184.116 33.1584 183.953 35.3574 184.03 37.5544V52.3478C184.03 58.2152 188.411 59.5247 190.926 59.5846C192.809 59.7066 194.695 59.3884 196.435 58.655C196.552 58.1284 196.552 57.5824 196.435 57.0558C196.388 56.5631 196.169 56.1029 195.816 55.7563Z" fill="#909090"/>
<path d="M147.237 35.6952C144.195 35.7779 141.213 36.5648 138.525 37.9942C137.108 41.3627 136.978 46.6704 136.978 50.0389V51.988C136.978 58.4551 141.708 59.7845 147.017 59.7845C148.875 59.7755 150.705 59.3377 152.366 58.5051C152.383 60.2505 152.175 61.9907 151.747 63.6828C150.231 64.3576 148.587 64.6985 146.927 64.6824C144.356 64.7412 141.799 64.2753 139.413 63.313C138.557 64.4204 138.006 65.7337 137.816 67.1213C140.671 68.4329 143.788 69.0691 146.927 68.9805C150.129 69.0658 153.289 68.2373 156.039 66.5915C157.002 63.0069 157.479 59.3086 157.456 55.5964V43.4918C157.456 37.2046 152.945 35.6952 147.237 35.6952ZM152.456 54.1371C150.85 54.9664 149.069 55.3991 147.262 55.3991C145.455 55.3991 143.674 54.9664 142.068 54.1371V41.2328C143.674 40.4035 145.455 39.9708 147.262 39.9708C149.069 39.9708 150.85 40.4035 152.456 41.2328V54.147V54.1371Z" fill="#909090"/>
<path d="M170.768 35.6952C167.726 35.7779 164.744 36.5648 162.056 37.9942C160.639 41.3627 160.509 46.6704 160.509 50.0389V51.7681C160.509 58.1853 165.948 59.4747 168.822 59.4747C171.533 59.5696 174.177 58.6177 176.207 56.8159L176.606 58.9849C177.916 59.3125 179.287 59.3125 180.598 58.9849C180.833 56.941 180.95 54.8851 180.947 52.8276V43.4918C180.977 37.2046 176.466 35.6952 170.768 35.6952ZM175.937 53.0575C174.449 54.2515 172.614 54.9286 170.708 54.9867C168.888 55.1005 167.076 54.6615 165.509 53.7272V41.2328C167.115 40.4035 168.896 39.9708 170.703 39.9708C172.51 39.9708 174.291 40.4035 175.897 41.2328V53.0575H175.937Z" fill="#909090"/>
<path d="M133.445 26.3094C131.947 25.9778 130.394 25.9778 128.895 26.3094V36.9347C127.342 35.9935 125.535 35.5603 123.726 35.6952C120.695 35.7724 117.725 36.5598 115.054 37.9942C113.816 40.9129 113.547 45.5209 113.507 48.6695V51.988C113.507 58.4551 118.237 59.7845 123.726 59.7845C126.81 59.8389 129.847 59.0101 132.477 57.3956C133.894 53.8572 133.934 47.1202 133.934 45.7008V31.3572C134.013 29.6598 133.848 27.9599 133.445 26.3094ZM129.025 54.147C127.452 55.0853 125.632 55.5244 123.805 55.4065C121.985 55.5253 120.171 55.086 118.606 54.147V41.2328C120.175 40.3055 121.987 39.8735 123.805 39.9933C125.626 39.8745 127.439 40.3138 129.005 41.2528V54.147H129.025Z" fill="#909090"/>
</svg>
