<svg width="248" height="96" viewBox="0 0 248 96" fill="none" xmlns="http://www.w3.org/2000/svg">
<path fill-rule="evenodd" clip-rule="evenodd" d="M124.636 77.5H65V18.5H183L124.636 77.5ZM123.411 29.5866L135.027 29.5938L135.026 29.5944C146.126 29.5944 151.34 33.5943 151.34 42.3109C151.34 50.1357 145.974 54.8056 136.902 54.8056H133.15V66.0761H115.942L114.235 60.686C112.415 61.2881 110.361 61.6265 108.181 61.6265C105.941 61.6265 103.832 61.2728 101.979 60.6325L100.208 66.0761H89.6565L90.822 62.9312C90.8046 62.9467 90.7873 62.9623 90.77 62.9779C90.6486 63.087 90.5282 63.1952 90.3962 63.3005C87.7682 65.4395 84.4782 66.6137 80.4015 66.6878L79.7989 66.6947C75.1158 66.6947 70.5261 65.388 66.65 63.1596L70.2371 55.9573C74.124 58.2785 76.5646 58.7997 79.8544 58.7294C81.5598 58.697 82.7951 58.3821 83.5983 57.5442C84.083 57.028 84.3388 56.3926 84.3626 55.7115C84.3932 53.8385 81.7615 52.961 78.5367 51.9511C75.9227 51.132 72.9572 50.0185 70.6382 48.2994C67.8921 46.2616 66.585 43.7055 66.65 40.1036C66.69 37.4854 67.6489 35.1187 69.429 33.2553C71.9828 30.587 76.1033 28.968 81.047 28.968H81.0716C85.3111 28.9726 90.4849 30.1899 94.2299 32.1155L90.1947 39.2178C86.0923 37.2181 84.0312 37.0275 81.6934 36.9023C78.2162 36.7129 76.461 37.9718 76.4349 39.3274C76.4043 40.9785 79.7247 42.4726 82.8543 43.4883C87.5937 45.0122 93.6179 47.0448 94.5404 52.9309L103.204 29.5866H113.265L123.411 57.5011V29.5866ZM104.46 52.8213C105.556 53.2398 106.827 53.4793 108.182 53.4793H108.182C109.501 53.4793 110.742 53.2447 111.83 52.8546L108.212 41.0812H108.142L104.46 52.8213ZM133.15 46.7336H135.709C139.122 46.7336 141.843 45.5854 141.843 41.9407C141.843 38.4187 139.122 37.2731 135.709 37.2731H133.15V46.7336Z" fill="#909090"/>
</svg>
