<svg width="180" height="68" viewBox="0 0 180 68" fill="none" xmlns="http://www.w3.org/2000/svg">
<path d="M50.2704 42.75V25.25H61.6055V27.025H52.3217V33.125H61.3426V34.875H52.3217V40.975H61.6055V42.75H50.2704Z" fill="white"/>
<path d="M65.8745 37.85C66.2164 40 67.9522 41.25 70.6874 41.25C73.291 41.25 75.0531 39.975 75.0531 38.225C75.0531 33.375 64.2965 36.125 64.2965 29.7C64.2965 27.025 66.9002 25 70.4507 25C74.0537 25 76.4996 27 76.9467 29.75L74.869 30.15C74.5534 28.175 72.8966 26.725 70.4244 26.725C68.0574 26.725 66.4005 27.95 66.4005 29.625C66.4005 34.275 77.1571 31.45 77.1571 38.175C77.1571 41.025 74.2904 43 70.6348 43C66.9002 43 64.2439 41.175 63.8231 38.25L65.8745 37.85Z" fill="white"/>
<path d="M81.9009 37.85C82.2428 40 83.9786 41.25 86.7138 41.25C89.3174 41.25 91.0795 39.975 91.0795 38.225C91.0795 33.375 80.3229 36.125 80.3229 29.7C80.3229 27.025 82.9266 25 86.4771 25C90.0801 25 92.526 27 92.9731 29.75L90.8954 30.15C90.5798 28.175 88.9229 26.725 86.4508 26.725C84.0838 26.725 82.4269 27.95 82.4269 29.625C82.4269 34.275 93.1835 31.45 93.1835 38.175C93.1835 41.025 90.3168 43 86.6612 43C82.9266 43 80.2703 41.175 79.8495 38.25L81.9009 37.85Z" fill="white"/>
<path d="M96.2178 42.75V25.25H107.553V27.025H98.2692V33.125H107.29V34.875H98.2692V40.975H107.553V42.75H96.2178Z" fill="white"/>
<path d="M110.472 42.75V25.25H114.496L123.964 42.35V25.25H126.015V42.75H121.991L112.523 25.675V42.75H110.472Z" fill="white"/>
<path d="M128.849 34C128.849 28.925 133.004 25 138.396 25C142.472 25 145.523 27.35 146.812 30.05L144.944 30.8C143.814 28.5 141.394 26.8 138.396 26.8C134.214 26.8 130.953 29.95 130.953 34C130.953 38.05 134.214 41.2 138.396 41.2C141.394 41.2 143.814 39.5 144.944 37.2L146.812 37.95C145.523 40.65 142.472 43 138.396 43C133.004 43 128.849 39.075 128.849 34Z" fill="white"/>
<path d="M149.665 42.75V25.25H161V27.025H151.716V33.125H160.737V34.875H151.716V40.975H161V42.75H149.665Z" fill="white"/>
<path d="M30.1638 27.0258C29.5997 26.4829 30.0043 25.5625 30.807 25.5625H36.177C36.6763 25.5625 37.0811 25.9473 37.0811 26.4219V31.5272C37.0811 32.2902 36.113 32.6748 35.5418 32.1387L32.9149 29.6732L30.1638 27.0258Z" fill="white"/>
<path d="M19 36.8039C19 36.0383 19.9738 35.6548 20.5433 36.1962L25.8945 41.283C26.464 41.8243 26.0607 42.75 25.2553 42.75H19.9041C19.4048 42.75 19 42.3652 19 41.8906V36.8039Z" fill="white"/>
<path d="M21.6479 32.1307C20.4711 31.012 20.4711 29.1983 21.6479 28.0796C22.8248 26.9609 24.7328 26.9609 25.9097 28.0796L34.4332 36.1818C35.61 37.3005 35.61 39.1143 34.4332 40.233C33.2563 41.3517 31.3483 41.3517 30.1714 40.233L21.6479 32.1307Z" fill="white"/>
</svg>
