<svg width="180" height="68" viewBox="0 0 180 68" fill="none" xmlns="http://www.w3.org/2000/svg">
<g clip-path="url(#clip0_2786_131)">
<path d="M71.392 39.6306C71.392 42.7447 68.4178 44.9174 64.1554 44.9174C60.4229 44.9174 58.0472 43.4004 56.7109 42.1301L56.3774 41.8125L58.0769 40.1721L58.3807 40.4668C59.8906 41.9176 61.9396 42.715 64.1531 42.715C66.9468 42.715 68.7536 41.5452 68.7536 39.7311C68.7536 37.917 67.4516 37.3253 65.3249 36.5233L62.1863 35.349C60.8249 34.8349 57.6384 33.6286 57.6384 30.4871C57.6384 27.6357 60.4389 25.5703 64.2993 25.5703C66.6978 25.5703 68.9706 26.3974 70.5308 27.8391L70.8711 28.1543L69.2699 29.7148L68.9638 29.4498C67.6846 28.3371 66.1153 27.7728 64.2993 27.7728C61.8551 27.7728 60.2744 28.7895 60.2744 30.3637C60.2744 32.0909 62.095 32.7627 63.5592 33.3019L66.7001 34.4762C68.9706 35.3353 71.392 36.5142 71.392 39.6306Z" fill="white"/>
<path d="M89.3212 25.8867V37.187C89.3212 42.1723 86.6075 44.9163 81.6803 44.9163C76.7531 44.9163 74.0691 42.1723 74.0691 37.187V25.8867H76.6777V37.1139C76.6777 40.8312 78.3612 42.7138 81.6803 42.7138C84.9993 42.7138 86.7971 40.8289 86.7971 37.1139V25.8867H89.3189H89.3212Z" fill="white"/>
<path d="M108.187 25.8867V44.5987H105.732L97.0467 32.1309L95.4203 29.6725C95.4203 29.6931 95.4203 29.7159 95.4249 29.7388C95.498 30.9406 95.5734 32.1812 95.5734 33.4698V44.5987H93.0515V25.8867H95.5048L104.219 38.3271L105.805 40.7718C105.727 39.4877 105.663 38.1854 105.663 36.8923V25.8867H108.185H108.187Z" fill="white"/>
<path d="M125.634 28.3908C123.9 26.7298 121.365 25.8867 118.101 25.8867H112.708V44.5987H118.13C124.506 44.5987 128.161 41.167 128.161 35.1833C128.161 32.284 127.311 29.997 125.634 28.3931V28.3908ZM115.314 27.9887H117.927C122.859 27.9887 125.465 30.4768 125.465 35.181C125.465 38.5053 124.156 42.4716 117.927 42.4716H115.314V27.9887Z" fill="white"/>
<path d="M144.16 42.4465V44.5987H131.356V25.8867H143.845V28.0138H133.965V33.6388H142.287V35.7682H133.965V42.4465H144.16Z" fill="white"/>
<path d="M156.246 36.3097C159.384 35.6905 161.168 33.8193 161.168 31.0959C161.168 26.7892 157.123 25.8867 153.728 25.8867H147.154V44.5987H149.761V36.5519H153.381L158.969 44.5987H161.997L156.243 36.312L156.246 36.3097ZM149.763 27.9887H153.326C155.901 27.9887 158.532 28.3588 158.532 31.0959C158.532 33.319 156.78 34.4476 153.326 34.4476H149.763V27.9887Z" fill="white"/>
<path d="M20.6903 33.0998H19.0342L19.0433 32.9445C19.5824 24.564 26.5814 18 34.9807 18C43.3799 18 50.379 24.564 50.918 32.9445L50.9295 33.0998H49.2711L49.2597 32.9627C48.7366 25.5008 42.464 19.6541 34.9807 19.6541C27.4974 19.6541 21.2271 25.5008 20.7017 32.9627L20.6926 33.0998H20.6903Z" fill="white"/>
<path d="M20.832 41.4844H49.093L48.972 41.7014C48.7093 42.1812 48.41 42.6633 48.0811 43.1362L48.0377 43.2002H21.8874L21.844 43.1362C21.515 42.6633 21.2135 42.1812 20.9508 41.7014L20.832 41.4844Z" fill="white"/>
<path d="M27.8836 48.3633H42.0393L41.3997 48.6443C39.3621 49.5445 37.1943 49.9992 34.9603 49.9992C32.7263 49.9992 30.5608 49.5422 28.5209 48.6443L27.8813 48.3633H27.8836Z" fill="white"/>
<path d="M19.5024 38.043H50.4223L50.3721 38.228C50.2373 38.7192 50.082 39.2013 49.9084 39.6628L49.8718 39.7588H20.0507L20.0164 39.6628C19.8405 39.2013 19.6852 38.717 19.5527 38.228L19.5024 38.043Z" fill="white"/>
<path d="M23.283 44.9219H46.6419L46.3998 45.1732C45.9041 45.6804 45.365 46.1648 44.7985 46.608L44.7597 46.64H25.1652L25.1264 46.608C24.5599 46.1648 24.0208 45.6827 23.5251 45.1732L23.283 44.9219Z" fill="white"/>
<path d="M19 34.6016H50.925L50.9181 34.7546C50.8976 35.2162 50.8542 35.6982 50.7856 36.1895L50.7697 36.3174H19.1553L19.1371 36.1895C19.0708 35.6982 19.0274 35.2162 19.0069 34.7546L19 34.6016Z" fill="white"/>
</g>
<defs>
<clipPath id="clip0_2786_131">
<rect width="143" height="32" fill="white" transform="translate(19 18)"/>
</clipPath>
</defs>
</svg>
