<svg width="180" height="68" viewBox="0 0 180 68" fill="none" xmlns="http://www.w3.org/2000/svg">
<path d="M64.9486 30.6231V19.1842H72.7507V21.2571H67.3198V24.159H71.9858V26.2318H67.3198V30.6231H64.9486Z" fill="white"/>
<path d="M73.9274 30.6231V19.1842H76.2986V28.5503H81.1176V30.6231H73.9274Z" fill="white"/>
<path d="M81.4522 30.6231L85.3074 19.1842H88.4589L92.3141 30.6231H89.7286L88.9637 28.2893H84.7873L84.0224 30.6231H81.4522ZM85.4451 26.2164H88.3059L86.5619 20.8118H87.2044L85.4451 26.2164Z" fill="white"/>
<path d="M95.9456 30.6231L92.0445 19.1842H94.6453L97.5825 28.366H97.0624L99.9997 19.1842H102.6L98.6993 30.6231H95.9456Z" fill="white"/>
<path d="M109.185 30.8073C108.328 30.8073 107.532 30.6589 106.798 30.3621C106.064 30.0652 105.421 29.6507 104.87 29.1184C104.33 28.5759 103.907 27.9463 103.601 27.2298C103.295 26.5133 103.142 25.7353 103.142 24.896C103.142 24.0566 103.29 23.2787 103.585 22.5622C103.891 21.8456 104.315 21.2212 104.855 20.689C105.406 20.1567 106.048 19.7421 106.783 19.4453C107.517 19.1484 108.318 19 109.185 19C110.051 19 110.852 19.1484 111.586 19.4453C112.321 19.7421 112.958 20.1567 113.499 20.689C114.049 21.2212 114.473 21.8456 114.768 22.5622C115.074 23.2787 115.227 24.0566 115.227 24.896C115.227 25.7353 115.074 26.5133 114.768 27.2298C114.462 27.9463 114.034 28.5759 113.483 29.1184C112.943 29.6507 112.305 30.0652 111.571 30.3621C110.837 30.6589 110.041 30.8073 109.185 30.8073ZM109.185 28.6578C109.705 28.6578 110.184 28.5656 110.623 28.3814C111.071 28.1971 111.464 27.9412 111.801 27.6137C112.137 27.2759 112.397 26.8767 112.581 26.416C112.764 25.9554 112.856 25.4487 112.856 24.896C112.856 24.3432 112.764 23.8417 112.581 23.3913C112.397 22.9307 112.137 22.5315 111.801 22.1937C111.464 21.8559 111.071 21.6 110.623 21.426C110.184 21.2417 109.705 21.1496 109.185 21.1496C108.664 21.1496 108.18 21.2417 107.731 21.426C107.293 21.6 106.905 21.8559 106.569 22.1937C106.232 22.5315 105.972 22.9307 105.788 23.3913C105.605 23.8417 105.513 24.3432 105.513 24.896C105.513 25.4487 105.605 25.9554 105.788 26.416C105.972 26.8767 106.232 27.2759 106.569 27.6137C106.905 27.9412 107.293 28.1971 107.731 28.3814C108.18 28.5656 108.664 28.6578 109.185 28.6578Z" fill="white"/>
<path d="M116.909 30.6231V19.1842H121.269C122.054 19.1842 122.748 19.3224 123.35 19.5988C123.962 19.8752 124.441 20.2846 124.788 20.8271C125.135 21.3697 125.308 22.0401 125.308 22.8385C125.308 23.6165 125.129 24.2818 124.772 24.8346C124.416 25.3771 123.936 25.7865 123.334 26.0629L125.935 30.6231H123.273L120.458 25.5716L121.988 26.4775H119.28V30.6231H116.909ZM119.28 24.4047H121.284C121.621 24.4047 121.912 24.3381 122.156 24.2051C122.401 24.072 122.59 23.8877 122.722 23.6523C122.865 23.4169 122.937 23.1456 122.937 22.8385C122.937 22.5212 122.865 22.2448 122.722 22.0094C122.59 21.774 122.401 21.5897 122.156 21.4567C121.912 21.3236 121.621 21.2571 121.284 21.2571H119.28V24.4047Z" fill="white"/>
<path d="M131.259 30.8073C130.545 30.8073 129.872 30.6794 129.239 30.4235C128.617 30.1573 128.077 29.7837 127.618 29.3026C127.169 28.8215 126.833 28.2534 126.608 27.5983L128.551 26.7231C128.837 27.3475 129.229 27.8389 129.729 28.1971C130.239 28.5554 130.8 28.7345 131.412 28.7345C131.738 28.7345 132.019 28.6833 132.253 28.581C132.488 28.4786 132.671 28.3404 132.804 28.1664C132.937 27.9822 133.003 27.7672 133.003 27.5215C133.003 27.2554 132.921 27.0302 132.758 26.846C132.595 26.6515 132.34 26.4979 131.993 26.3853L129.76 25.6483C128.852 25.3515 128.169 24.9318 127.71 24.3893C127.251 23.8366 127.021 23.1763 127.021 22.4086C127.021 21.733 127.184 21.1393 127.511 20.6275C127.847 20.1157 128.311 19.7165 128.903 19.4299C129.505 19.1433 130.193 19 130.968 19C131.651 19 132.284 19.1177 132.865 19.3531C133.446 19.5886 133.946 19.9212 134.364 20.3512C134.793 20.7811 135.114 21.298 135.328 21.9019L133.401 22.7771C133.186 22.2448 132.865 21.8303 132.437 21.5334C132.008 21.2263 131.519 21.0728 130.968 21.0728C130.652 21.0728 130.372 21.124 130.127 21.2263C129.882 21.3287 129.693 21.4771 129.561 21.6716C129.428 21.8559 129.362 22.0708 129.362 22.3165C129.362 22.5826 129.449 22.8181 129.622 23.0228C129.795 23.2173 130.055 23.3708 130.402 23.4834L132.59 24.1897C133.508 24.4865 134.191 24.9011 134.64 25.4334C135.099 25.9657 135.328 26.6157 135.328 27.3834C135.328 28.0487 135.155 28.6424 134.808 29.1644C134.461 29.6762 133.982 30.0806 133.37 30.3774C132.768 30.664 132.065 30.8073 131.259 30.8073Z" fill="white"/>
<path d="M145.473 30.8073C144.617 30.8073 143.821 30.6589 143.087 30.3621C142.352 30.0652 141.71 29.6507 141.159 29.1184C140.619 28.5759 140.195 27.9463 139.889 27.2298C139.583 26.5133 139.43 25.7353 139.43 24.896C139.43 24.0566 139.578 23.2787 139.874 22.5622C140.18 21.8456 140.603 21.2212 141.144 20.689C141.695 20.1567 142.337 19.7421 143.071 19.4453C143.806 19.1484 144.606 19 145.473 19C146.34 19 147.141 19.1484 147.875 19.4453C148.609 19.7421 149.247 20.1567 149.787 20.689C150.338 21.2212 150.761 21.8456 151.057 22.5622C151.363 23.2787 151.516 24.0566 151.516 24.896C151.516 25.7353 151.363 26.5133 151.057 27.2298C150.751 27.9463 150.323 28.5759 149.772 29.1184C149.232 29.6507 148.594 30.0652 147.86 30.3621C147.125 30.6589 146.33 30.8073 145.473 30.8073ZM145.473 28.6578C145.993 28.6578 146.473 28.5656 146.911 28.3814C147.36 28.1971 147.753 27.9412 148.089 27.6137C148.426 27.2759 148.686 26.8767 148.869 26.416C149.053 25.9554 149.145 25.4487 149.145 24.896C149.145 24.3432 149.053 23.8417 148.869 23.3913C148.686 22.9307 148.426 22.5315 148.089 22.1937C147.753 21.8559 147.36 21.6 146.911 21.426C146.473 21.2417 145.993 21.1496 145.473 21.1496C144.953 21.1496 144.469 21.2417 144.02 21.426C143.581 21.6 143.194 21.8559 142.857 22.1937C142.521 22.5315 142.261 22.9307 142.077 23.3913C141.893 23.8417 141.802 24.3432 141.802 24.896C141.802 25.4487 141.893 25.9554 142.077 26.416C142.261 26.8767 142.521 27.2759 142.857 27.6137C143.194 27.9412 143.581 28.1971 144.02 28.3814C144.469 28.5656 144.953 28.6578 145.473 28.6578Z" fill="white"/>
<path d="M153.198 30.6231V19.1842H161V21.2571H155.569V24.159H160.235V26.2318H155.569V30.6231H153.198Z" fill="white"/>
<path d="M64.1071 49.8157L67.9623 38.3769H71.1138L74.969 49.8157H72.3835L71.6186 47.4819H67.4422L66.6773 49.8157H64.1071ZM68.1 45.4091H70.9608L69.2168 40.0045H69.8593L68.1 45.4091Z" fill="white"/>
<path d="M76.1534 49.8157V38.3769H78.5246V47.7429H83.3436V49.8157H76.1534Z" fill="white"/>
<path d="M89.6365 50C88.8206 50 88.0608 49.8516 87.357 49.5547C86.6635 49.2579 86.0567 48.8433 85.5365 48.311C85.0164 47.7788 84.6084 47.1544 84.3127 46.4378C84.0271 45.7213 83.8843 44.9383 83.8843 44.0887C83.8843 43.2391 84.0271 42.456 84.3127 41.7395C84.5982 41.0127 85.0011 40.3883 85.5212 39.8663C86.0414 39.334 86.6482 38.9246 87.3417 38.6379C88.0455 38.3411 88.8104 38.1927 89.6365 38.1927C90.4626 38.1927 91.202 38.3309 91.8547 38.6072C92.5177 38.8836 93.0786 39.2521 93.5376 39.7127C93.9965 40.1734 94.3229 40.6852 94.5167 41.2481L92.4208 42.2615C92.227 41.7088 91.8853 41.2533 91.3958 40.895C90.9164 40.5265 90.33 40.3422 89.6365 40.3422C88.9634 40.3422 88.3718 40.5009 87.8619 40.8182C87.3519 41.1355 86.9542 41.5757 86.6686 42.1387C86.3932 42.6914 86.2556 43.3414 86.2556 44.0887C86.2556 44.8359 86.3932 45.491 86.6686 46.054C86.9542 46.617 87.3519 47.0571 87.8619 47.3744C88.3718 47.6918 88.9634 47.8504 89.6365 47.8504C90.33 47.8504 90.9164 47.6713 91.3958 47.313C91.8853 46.9445 92.227 46.4839 92.4208 45.9312L94.5167 46.9445C94.3229 47.5075 93.9965 48.0193 93.5376 48.4799C93.0786 48.9406 92.5177 49.3091 91.8547 49.5854C91.202 49.8618 90.4626 50 89.6365 50Z" fill="white"/>
<path d="M96.0382 49.8157V38.3769H98.4095V43.321H102.846V38.3769H105.217V49.8157H102.846V45.3938H98.4095V49.8157H96.0382Z" fill="white"/>
<path d="M107.243 49.8157V38.3769H114.908V40.4497H109.614V43.0446H114.602V45.1174H109.614V47.7429H114.908V49.8157H107.243Z" fill="white"/>
<path d="M116.252 49.8157V38.3769H118.547L122.815 44.0579H121.744L125.89 38.3769H128.184V49.8157H125.813V41.0025L126.762 41.2174L122.371 46.8985H122.065L117.827 41.2174L118.623 41.0025V49.8157H116.252Z" fill="white"/>
<path d="M133.158 49.8157V44.8257L129.364 38.3769H132.072L134.826 43.2288H133.862L136.6 38.3769H139.308L135.529 44.8103V49.8157H133.158Z" fill="white"/>
<path d="M19 20.4139V19.2143H30.1632V20.4139C27.5505 20.4139 26.1254 20.8937 27.0755 21.8533L35.151 30.0102V23.5327C35.151 21.6134 33.9634 20.4139 30.8757 20.4139V19.2143H37.7636V49.9226H30.6382V48.963H32.7758C34.2009 48.963 35.151 47.5235 35.151 46.5639V38.6469L26.3629 47.5235C25.6504 48.2432 28.0255 48.963 28.7381 48.963H29.9256V49.9226H19.2375V48.963C21.1376 48.963 21.3751 48.2432 22.3252 47.5235L33.0133 36.9675H26.1254C24.2253 36.9675 23.5128 38.1671 23.5128 41.5258H22.3252V27.851H23.2753C23.2753 30.49 24.2253 32.1694 26.1254 32.1694H33.4884L24.9378 23.5327C22.3428 20.8203 21.6127 20.4139 19 20.4139Z" fill="white"/>
<path d="M56.2897 20.4139V19.2143H45.1265V20.4139C47.7392 20.4139 49.1643 20.8937 48.2142 21.8533L40.1387 30.0102V23.5327C40.1387 21.6134 41.3263 20.4139 44.414 20.4139V19.2143H37.5261V49.9226H44.6515V48.963H42.5139C41.0888 48.963 40.1387 47.5235 40.1387 46.5639V38.6469L48.9268 47.5235C49.6393 48.2432 47.2642 48.963 46.5516 48.963H45.3641V49.9226H56.0522V48.963C54.1521 48.963 53.9146 48.2432 52.9645 47.5235L42.2764 36.9675H49.1643C51.0644 36.9675 51.7769 38.1671 51.7769 41.5258H52.9645V27.851H52.0144C52.0144 30.49 51.0644 32.1694 49.1643 32.1694H41.8013L50.3518 23.5327C52.9469 20.8203 53.677 20.4139 56.2897 20.4139Z" fill="white"/>
</svg>
