<svg width="16" height="16" viewBox="0 0 16 16" fill="none" xmlns="http://www.w3.org/2000/svg">
<rect width="16" height="16" fill="#1E2932"/>
<path d="M6.66879 10.9945H4.4265C4.33927 10.9945 4.25205 10.967 4.1956 10.9341C3.99549 10.7857 3.93904 10.4999 4.07246 10.2801L4.16482 10.1317C4.16995 10.1317 6.36606 6.60917 6.36606 6.60917L6.54565 6.31243C6.57643 6.26296 6.61748 6.219 6.66365 6.18602C6.86891 6.03764 7.14085 6.0926 7.27425 6.31243L7.45385 6.60917L9.59864 10.0548C9.62943 10.1042 9.67561 10.1317 9.73206 10.1317H10.4248C10.4555 10.1317 10.4863 10.1207 10.512 10.1042C10.5889 10.0438 10.6095 9.93938 10.5582 9.85695L8.12602 5.94973L7.64393 5.17647C7.51992 4.97756 7.51982 4.72542 7.6437 4.52642C7.67449 4.48245 7.7104 4.44399 7.75145 4.41651C7.9567 4.26814 8.22864 4.32308 8.36205 4.54291L11.9282 10.2691C11.9743 10.3515 12 10.4395 12 10.5329C12 10.7857 11.8101 11 11.5639 11H9.3267C9.18302 11 9.04448 10.9121 8.96239 10.7857L7.03823 7.69177C7.02284 7.66979 7.00745 7.6533 6.99205 7.6423C6.90995 7.59285 6.81246 7.61483 6.76115 7.69177L5.42706 9.84596C5.41167 9.87344 5.40141 9.90641 5.40141 9.93938C5.39627 10.0383 5.47325 10.1152 5.56048 10.1152H6.26857C6.31988 10.1152 6.37118 10.0878 6.40197 10.0383L6.81246 9.38435C6.84325 9.33489 6.8843 9.29093 6.93047 9.25796C7.13573 9.10958 7.40767 9.16453 7.54107 9.38435L7.5616 9.41732C7.65909 9.57119 7.65909 9.78001 7.5616 9.93389L7.0331 10.7802C6.951 10.9176 6.81246 10.9945 6.66879 10.9945Z" fill="white"/>
</svg>
